<svg width="199" height="81" viewBox="0 0 199 81" fill="none" xmlns="http://www.w3.org/2000/svg">
<g clip-path="url(#clip0_73_4227)">
<path d="M75.9799 0.959929C77.1499 0.989928 78.5599 0.939929 79.9999 0.679929C81.6999 0.369929 83.4599 0.339929 85.2099 0.449928C85.6799 0.479928 86.1999 0.529929 86.6299 0.379928C88.0299 -0.100071 89.4699 -7.14837e-05 90.9099 0.00992852C92.9099 0.0199285 94.8999 0.169929 96.8999 0.109929C97.9399 0.0799285 98.9399 0.319929 99.9599 0.399929C102.25 0.579929 104.57 0.179929 106.84 0.819929C107.43 0.989929 108.09 0.559929 108.69 0.939929C111.09 0.849928 113.46 1.26993 115.83 1.48993C117.81 1.67993 119.79 1.85993 121.77 2.04993C124.85 2.34993 127.9 2.99993 130.98 3.22993C133.85 3.43993 136.66 3.94993 139.5 4.34993C142.88 4.81993 146.26 5.34993 149.61 6.02993C149.75 6.05993 149.88 6.18993 150.01 6.28993C150.07 6.33993 150.1 6.41993 150.12 6.49993C150.12 6.53993 150.07 6.62993 150.04 6.62993C149.57 6.65993 149.08 6.76993 148.62 6.69993C146.1 6.32993 143.6 5.89993 141.08 5.51993C139.59 5.28993 138.07 5.17993 136.59 4.90993C134.38 4.50993 132.17 4.35993 129.93 4.29993C128.9 4.26993 127.88 4.04993 126.86 3.88993C125.13 3.62993 123.41 3.34993 121.68 3.08993C121.29 3.02993 120.89 3.00993 120.49 3.00993C117.62 3.00993 114.76 2.63993 111.92 2.33993C109.78 2.11993 107.61 2.15993 105.5 1.84993C102.39 1.40993 99.2799 1.72993 96.1799 1.45993C94.9199 1.34993 93.6299 1.54993 92.3499 1.54993C89.2399 1.54993 86.1299 1.57993 83.0299 1.91993C80.0199 2.24993 76.9999 2.46993 73.9699 2.51993C73.5799 2.51993 73.1699 2.56993 72.7899 2.65993C71.1599 3.04993 69.5099 3.21993 67.8399 3.37993C65.7099 3.57993 63.5999 4.03993 61.4899 4.42993C60.0099 4.69993 58.5499 5.11993 57.0599 5.30993C55.7099 5.47993 54.4099 5.80993 53.0899 6.10993C51.8499 6.38993 50.6299 6.76993 49.3399 6.79993C48.7199 6.81993 48.0899 7.01993 47.4799 7.19993C46.0299 7.62993 44.5999 8.12993 43.1499 8.52993C42.2299 8.77993 41.2799 8.86993 40.3499 9.07993C39.9799 9.16993 39.4499 9.30993 39.3399 9.57993C38.8399 10.7399 37.9499 10.6699 36.9399 10.5599C36.0699 10.4699 35.1799 10.5199 34.4399 11.1499C34.2599 11.2999 34.0399 11.4399 33.8099 11.4899C31.0599 12.0899 28.7199 13.7699 25.9999 14.4599C25.6299 14.5599 25.2699 14.7899 24.9499 15.0199C23.5099 16.0599 21.9099 16.7799 20.2699 17.3999C19.5099 17.6899 18.9099 18.1699 18.2699 18.6699C16.9699 19.6899 15.8199 20.8899 14.3499 21.7299C13.1199 22.4299 12.0899 23.4799 10.9699 24.3899C10.5399 24.7399 10.1699 25.1799 9.70987 25.4899C8.80987 26.0899 8.26987 26.9499 7.75987 27.8699C7.33987 28.6299 6.90987 29.4199 6.33987 30.0699C5.58987 30.9299 5.09987 31.9199 4.62987 32.9299C4.35987 33.5099 4.12987 34.0999 3.88987 34.6899C3.46987 35.7099 2.84987 36.6699 3.32987 37.8699C3.42987 38.1099 3.20987 38.4699 3.15987 38.7899C2.92987 40.3799 2.93987 41.9499 3.10987 43.5599C3.33987 45.7699 4.28987 47.6699 5.21987 49.6099C6.12987 51.5099 7.52987 53.0499 8.92987 54.5699C11.5499 57.4199 14.6399 59.6299 18.0099 61.5399C21.8299 63.7099 25.7599 65.6599 29.8699 67.1799C34.4199 68.8599 39.0399 70.3699 43.7799 71.4599C46.4799 72.0799 49.1799 72.7499 51.9099 73.2099C55.4399 73.8099 58.9299 74.6299 62.4999 74.9699C64.3999 75.1499 66.2699 75.5399 68.1699 75.7499C70.1499 75.9799 72.1299 76.1099 74.1099 76.2899C74.5099 76.3299 74.9099 76.3299 75.2999 76.4099C77.5799 76.8799 79.8999 76.8399 82.2099 76.8999C82.6899 76.9099 83.1899 76.8399 83.6399 76.9599C85.2799 77.4099 86.9599 77.3599 88.6299 77.3799C89.4999 77.3799 90.3899 77.2599 91.2299 77.6499C91.3699 77.7099 91.5699 77.7499 91.6999 77.6899C93.3599 76.9599 94.9999 77.7899 96.6499 77.7399C98.2399 77.6999 99.8399 77.7999 101.44 77.8599C101.91 77.8799 102.39 77.9499 102.85 78.0699C103.34 78.1999 103.77 78.1599 104.25 78.0199C104.78 77.8599 105.35 77.7099 105.89 77.7499C106.67 77.7999 107.45 78.1399 108.22 78.1199C108.91 78.0999 109.61 77.6599 110.32 77.9899C110.91 78.2699 111.39 77.7999 111.95 77.8599C112.73 77.9399 113.51 78.0299 114.29 78.0299C115.08 78.0299 115.87 77.8799 116.67 77.8699C122.18 77.8099 127.69 77.8199 133.2 77.6999C135.34 77.6499 137.48 77.3199 139.61 77.1099C139.84 77.0899 140.1 76.8899 140.3 76.9599C141.88 77.4699 143.44 77.2199 145.02 76.9199C145.31 76.8699 145.64 77.0099 145.96 77.0599C146.35 77.1199 146.77 77.2899 147.13 77.2199C149.78 76.6799 152.52 76.8499 155.16 76.1499C156.18 75.8799 157.33 75.9999 158.41 75.9699C159.76 75.9299 161.07 75.7499 162.39 75.4599C163.39 75.2399 164.38 74.8999 165.45 74.9599C165.99 74.9899 166.55 74.7899 167.09 74.6799C167.4 74.6099 167.71 74.4199 168.01 74.4299C170.44 74.4799 172.7 73.6199 175.04 73.1999C177.15 72.8199 179.27 72.4199 181.33 71.8399C183.55 71.2199 185.82 70.6799 187.79 69.3899C188.19 69.1299 188.63 68.8999 189.08 68.7499C191.14 68.0599 192.62 66.5899 193.98 65.0299C194.81 64.0699 195.23 62.8299 195.47 61.5599C195.62 60.7799 195.78 59.9999 195.87 59.2099C196.06 57.6699 195.71 56.1599 195.24 54.7499C194.02 51.0599 192.17 47.7399 188.91 45.3799C188.2 44.8699 187.68 44.0999 186.98 43.5899C185.64 42.6099 184.41 41.4799 182.79 40.8799C181.69 40.4699 180.71 39.7199 179.69 39.0999C175.79 36.7099 171.64 34.9099 167.27 33.5599C165.14 32.8999 163.05 32.1199 160.91 31.4699C158.09 30.6099 155.19 30.0199 152.38 29.1799C148.63 28.0599 144.72 27.7199 140.97 26.6199C139.61 26.2199 138.13 26.3199 136.72 25.9899C134.71 25.5099 132.68 25.1299 130.6 24.9999C129.42 24.9199 128.25 24.5799 127.08 24.3599C126.69 24.2899 126.3 24.1499 125.91 24.1399C123.91 24.0999 121.95 23.7699 120.01 23.2899C119.63 23.1999 119.22 23.1799 118.82 23.1799C116.42 23.1299 114.07 22.6999 111.71 22.3299C111.55 22.3099 111.4 22.2499 111.24 22.2399C108.46 22.0199 105.68 21.8399 102.91 21.5599C100.06 21.2799 97.2199 20.9299 94.3899 20.5299C93.6699 20.4299 93.0099 20.2399 92.2799 20.4599C92.0199 20.5399 91.6799 20.3899 91.3799 20.3399C90.5199 20.1899 89.6599 20.0399 88.7999 19.8899C88.0699 20.5099 87.2499 19.5499 86.4999 20.0099C86.3899 20.0699 86.1799 20.0499 86.0599 19.9899C85.9299 19.9299 85.8099 19.7799 85.7799 19.6499C85.7599 19.5599 85.8799 19.3499 85.9699 19.3299C87.2099 19.0399 88.4399 18.7399 89.6899 18.5099C89.9799 18.4599 90.2999 18.6499 90.6099 18.6799C91.1599 18.7299 91.7799 18.9199 92.2499 18.7299C93.3299 18.2999 94.2799 18.6099 95.2799 18.9099C95.5799 18.9999 95.9499 19.2499 96.1699 19.1499C97.2999 18.6599 98.3499 19.0899 99.4299 19.2999C100.13 19.4299 100.86 19.3599 101.58 19.3499C103.01 19.3299 104.45 19.1599 105.84 19.7399C106.19 19.8799 106.63 19.8499 107.03 19.8299C108.14 19.7599 109.26 19.4999 110.3 20.1299C111.25 19.5899 112.19 20.0599 113.09 20.2399C114.43 20.5099 115.75 20.7499 117.11 20.6799C117.19 20.6799 117.27 20.6799 117.35 20.6799C118.37 20.6199 119.31 21.5299 120.37 20.9399C121.39 21.1199 122.41 21.2999 123.43 21.4799C123.66 21.5199 123.92 21.6499 124.13 21.6099C125 21.4099 125.83 21.3099 126.64 21.8699C127.36 22.3699 128.41 22.0299 129.07 22.7399C130.15 22.8599 131.17 23.3299 132.29 23.2299C133.16 23.1599 134.02 23.1699 134.86 23.5999C135.33 23.8399 135.94 23.8299 136.49 23.8899C138.54 24.1499 140.61 24.2899 142.59 24.9399C142.67 24.9599 142.75 24.9799 142.83 24.9799C145.34 24.8399 147.7 25.6999 150.13 26.0999C150.68 26.1899 151.21 26.3699 151.75 26.5199C152.21 26.6399 152.67 26.8899 153.13 26.8899C155.09 26.8899 156.83 27.7999 158.68 28.2299C159.14 28.3399 159.56 28.5899 160 28.7799C160.37 28.9399 160.72 29.1899 161.1 29.2299C163.5 29.4799 165.54 30.9199 167.92 31.2499C168.91 31.3899 169.85 31.9499 170.81 32.3399C172.58 33.0499 174.41 33.6299 176.03 34.6799C176.35 34.8899 176.77 34.9599 177.14 35.0899C177.51 35.2199 177.92 35.2999 178.25 35.4999C179.84 36.4199 181.4 37.3799 182.99 38.2999C184.09 38.9299 185.19 39.5699 186.33 40.0899C187.08 40.4299 187.64 40.9599 188.25 41.4799C190.06 43.0499 191.94 44.5399 193.53 46.3399C193.95 46.8099 194.48 47.1699 194.65 47.8499C194.72 48.1399 194.94 48.4299 195.17 48.6399C196.99 50.2999 197.64 52.4799 197.89 54.8199C197.97 55.6299 198.12 56.4099 198.52 57.1099C198.83 57.6399 198.95 58.1199 198.59 58.6599C198.53 58.7499 198.55 58.9999 198.63 59.0699C199.23 59.5999 198.99 60.1699 198.87 60.8199C198.65 61.9899 198.36 63.1299 197.85 64.2099C197.45 65.0699 197.17 65.9899 196.09 66.3199C195.86 66.3899 195.63 66.7799 195.59 67.0599C195.39 68.5899 194.19 69.1299 193.03 69.5899C192.48 69.7999 192.05 70.0299 191.69 70.4699C191.31 70.9299 190.86 71.1699 190.21 70.9299C189.99 70.8499 189.58 71.0099 189.39 71.1999C188.8 71.7699 188.15 72.1099 187.32 72.2699C186.16 72.4999 185.01 72.8999 183.91 73.3699C183.01 73.7599 182.12 74.0199 181.15 74.0599C180.84 74.0699 180.39 74.0599 180.24 74.2599C179.33 75.3799 177.88 75.0299 176.76 75.6099C175.73 76.1399 174.48 76.2399 173.32 76.4899C172.87 76.5899 172.39 76.6099 171.92 76.6199C170.81 76.6499 169.73 76.8099 168.66 77.0699C168.05 77.2199 167.4 77.4199 166.79 77.3599C165.07 77.1799 163.46 77.7199 161.84 78.0299C160.73 78.2399 159.65 78.4699 158.53 78.4199C157.27 78.3699 156 78.7299 154.74 78.4399C153.15 79.0099 151.4 78.5099 149.82 79.1999C149.47 79.3499 149.03 79.3599 148.64 79.3699C147.05 79.3899 145.45 79.3899 143.86 79.3699C142.51 79.3499 141.15 79.2999 139.8 79.2699C139.56 79.2699 139.29 79.2399 139.09 79.3399C137.95 79.8699 136.74 79.7899 135.55 79.7199C134.05 79.6399 132.6 80.0699 131.1 80.0599C129.67 80.0599 128.24 80.2599 126.81 80.2699C122.82 80.3099 118.82 80.3099 114.83 80.2999C112.51 80.2999 110.19 80.3099 107.88 80.1699C106.86 80.1099 105.84 79.7399 104.8 79.8799C103.71 80.0299 102.63 80.3999 101.53 79.9799C100.9 80.2799 100.32 80.1199 99.6799 79.9299C99.1699 79.7799 98.5799 79.8699 98.0299 79.8399C96.5299 79.7799 95.0099 80.0299 93.5199 79.5299C93.2499 79.4399 92.9099 79.5599 92.5999 79.5799C91.6499 79.6299 90.6699 79.8199 89.7399 79.6899C88.1599 79.4699 86.5899 79.2299 84.9899 79.2299C84.6799 79.2299 84.3699 79.0899 84.0599 79.0199C83.7499 78.9499 83.4099 78.7699 83.1299 78.8399C81.1399 79.2999 79.1699 78.7799 77.2099 78.6999C75.1699 78.6199 73.0699 78.6099 71.0899 77.8899C69.9399 77.4699 68.7499 77.4499 67.5499 77.4699C65.9499 77.4999 64.3799 77.3899 62.7999 77.0199C61.4299 76.6999 59.9799 76.6699 58.5699 76.4999C58.1799 76.4499 57.7099 76.4399 57.4399 76.2099C56.6099 75.5299 55.6699 75.5199 54.7099 75.5599C53.3299 75.6199 52.0499 75.1999 50.7299 74.8699C48.3699 74.2899 46.1299 73.1199 43.5899 73.3499C41.8299 72.6499 39.8299 72.6899 38.1999 71.5599C37.7699 71.2699 37.1599 71.2399 36.6299 71.0999C35.5599 70.8099 34.4499 70.6199 33.4199 70.2299C32.2299 69.7799 31.0599 69.2699 29.7999 69.0399C28.6099 68.8199 27.5999 68.1699 26.5199 67.7099C24.0299 66.6399 21.7299 65.1399 19.0899 64.4499C18.3699 64.2599 17.7899 63.8999 17.1999 63.4799C16.4299 62.9299 15.5599 62.5299 14.7399 62.0499C14.2599 61.7699 13.6899 61.5599 13.3399 61.1599C12.3299 59.9899 11.0499 59.1999 9.75987 58.4099C8.86987 57.8599 8.24987 57.0399 7.56987 56.2799C6.03987 54.5599 4.27987 53.0599 2.96987 51.1499C2.59987 50.6199 2.15987 50.1399 2.12987 49.4699C2.08987 48.3999 1.56987 47.4899 1.19987 46.5399C1.05987 46.1699 0.749866 45.8099 0.749866 45.4399C0.759866 43.9099 0.229866 42.4599 0.0998659 40.9799C-0.0901341 38.8399 0.0298659 36.7399 0.999866 34.6599C1.90987 32.7099 2.52987 30.6399 4.03987 29.0199C5.02987 26.7499 7.15987 25.4099 8.59987 23.5099C8.78987 23.2599 9.03987 23.0199 9.31987 22.8899C10.2999 22.4299 10.9499 21.6099 11.6799 20.8799C12.2499 20.3199 12.8299 19.8099 13.5999 19.4999C14.2499 19.2299 14.8499 18.7899 15.3899 18.3299C17.2999 16.7099 19.5099 15.6199 21.7599 14.5799C22.5499 14.2099 23.3299 13.8099 24.0899 13.3899C24.7199 13.0399 25.3099 12.6799 26.0399 12.5099C26.7299 12.3499 27.3599 11.9699 28.0099 11.6699C28.9499 11.2499 29.8699 10.7599 30.8399 10.4099C33.0099 9.61993 35.1799 8.81993 37.3899 8.16993C41.0499 7.09993 44.7399 6.12993 48.4399 5.21993C49.7499 4.89993 51.0899 4.65993 52.4299 4.53993C53.7899 4.41993 55.1299 4.21993 56.4299 3.84993C58.6499 3.20993 60.9199 2.77993 63.1899 2.36993C63.6599 2.27993 64.1299 2.15993 64.5999 2.16993C66.8399 2.22993 69.0399 1.85993 71.2099 1.40993C72.7199 1.09993 74.2099 1.03993 75.9899 1.01993L75.9799 0.959929Z" fill="#265BF6"/>
<path d="M167.14 10.6099C166.09 10.7199 165.11 10.4799 164.1 10.1899C160.81 9.26989 157.52 8.33989 154.15 7.72989C153.29 7.56989 152.43 7.38989 151.6 7.13989C151.36 7.06989 151.2 6.74989 151 6.53989C151.23 6.48989 151.47 6.37989 151.68 6.40989C155.52 7.04989 159.29 7.96989 163.02 9.06989C163.93 9.33989 164.88 9.50989 165.79 9.77989C166.3 9.92989 166.9 10.0299 167.09 10.6799L167.15 10.6099H167.14Z" fill="#265BF6"/>
<path d="M167.08 10.68C167.8 10.56 168.49 10.56 169.17 10.9C170.23 11.42 171.31 11.9 172.38 12.42C172.5 12.48 172.57 12.65 172.67 12.77C172.53 12.8 172.33 12.92 172.24 12.86C171.23 12.2 170.06 11.98 168.94 11.61C168.28 11.39 167.53 11.32 167.14 10.62L167.08 10.69V10.68Z" fill="#265BF6"/>
</g>
<defs>
<clipPath id="clip0_73_4227">
<rect width="198.98" height="80.25" fill="white"/>
</clipPath>
</defs>
</svg>
