<?xml version="1.0" encoding="utf-8"?>
<svg xmlns="http://www.w3.org/2000/svg" fill-rule="evenodd" height="100%" stroke-linejoin="round" stroke-miterlimit="2" viewBox="0 0 481 205" width="100%">
  <style>.B{fill-rule:nonzero}.C{fill:#231f20}.D{fill:#ed1639}</style>
  <path class="B C" d="M202.703 88.354l-8.874.73-.465 6.712h39.647l.499-6.712-.662-.025c-9.775-.437-11.394-.824-11.394-9.259l-.006-61.303 10.604-.851v-6.757l-41.341.03v6.731l.562-.008c7.284-.012 11.453 3.49 11.419 11l.011 59.713zm-54.772-61.072l-12.684 34.749 21.619-.001-8.935-34.747zm-19.384 53.649c-1.963 6.224 1.154 8.16 10.477 8.165l.958-.033-.466 6.727h-30.919l.486-6.693 7.877-.837 28.829-77.335h14.468l21.035 72.891c1.045 3.327 3.335 5.064 6.682 5.084l2.577.192-.499 6.698-38.058.008.472-6.709 11.209-.735-4.689-18.168-26.681.009-3.758 10.735zM286.88 17.628v-6.696l39.582.005v6.693l-11.141.855 16.367 31.108 13.208-25.321c2.643-5.667 1.493-6.665-5.899-6.597l-2.01-.033v-6.725h28.659v6.724l-8.382.911-22.007 41.076v22.3c0 6.32 2.198 7.028 13.272 7.138l.583.006-.409 6.775-42.984-.031.583-6.753 10.645-.76-.032-28.926-20.521-37.103c-1.808-3.083-4.387-4.641-8.867-4.641l-.647-.002zM69.099 82.358c.025 4.341.107 6.005 3.816 6.008 10.789.008 22.709-7.221 22.754-34.118.049-30.358-11.225-36.03-26.57-36.036v64.146zM39.114 10.892l31.094.018c29.972-.007 44.892 14.662 44.921 42.484.028 25.682-15.323 42.397-44.299 42.437l-30.174.006.488-6.77 9.214-.74.014-57.3c-.004-9.423-2.719-13.326-10.571-13.359-.228-.014-.459.007-.696-.002l.008-6.772zm236.373 77.295c9.418 0 11.49-1.465 15.136-10.075 1.515-3.576 2.061-5.284 2.643-6.816.662-1.746 1.879-2.582 3.645-2.582 1.324 0 2.728.131 4.127.512l-2.717 26.619-61.975-.039.495-6.726 10.334-.768V28.873c-.033-10.369-6.202-11.065-10.382-11.185l-.858-.03v-6.74l44.325-.004v6.741l-14.339.835-.015 67.525c0 .828.174 1.376.464 1.678.262.272.709.47 1.367.47l7.751.024z"/>
  <path class="B" d="M387.655 106.733c-5.842-4.461-9.574-8.961-12.271-15.379-2.096-5.68-3.512-11.736-2.782-18.025.762-7.797 2.282-14.575 3.743-22.147.413-.417.126-1.091.381-1.572.953-4.364 2.127-8.632 3.08-12.996.381-.096.888-.064 1.301-.032l-.476.096 11.24.706c.222.289.635.256.888.193l.91.13c.323-.895.679-1.747 1.103-2.246-1.365-2.631-1.735-2.954-3.354-5.457 0 0-3.191-4.878-3.927-5.374s-1.391-.744-2.372-1.24-2.108-.396-3.6-.909c-1.778-5.745-4.744-12.733-6.421-19.866l2.286 2.311 7.81 7.636 4.61 3.786c.127.963.127 2.278.572 3.272.254 1.252 1.238 2.118 1.778 3.273 2.572 3.658 3.886 5.042 6.3 8.765 0 0 1.554-.579 2.535-1.406-1.308-.661-.935-4.961-.935-4.961-.254-2.246-2.191-4.203-1.143-6.642.159-.193.508-1.123.603-1.444-.191-1.219-1.763-2.008-.652-3.323.126-.193-.364-.912-.364-1.201-.095-2.567.698-5.038.953-7.508.603-.995 1.302-1.701 2.349-2.214 2.636-1.091 5.842-1.252 8.541-2.054.222.161.317-.193.54-.161 1.428 0 2.572-1.122 4-.61 2.096 2.022 4.096 4.107 6.064 6.225 1.461.995 2.159 2.502 3.335 3.818.317.706 1.012 1.795.598 2.629l-.899 1.075-.335 5.023c-.254.45-.191 1.028-.572 1.445v.256l-.063-.064c-.191 1.187-.285 2.406-.666 3.498-.192 1.283-.397 2.702-.492 4.145-.191 2.471.52 3.519 1.281 5.733.603.61 1.773 2.012 2.728 3.198 1.24 1.539 4.254 4.133 6.709 8.846s5.154 13.229 7.036 22.738c.508 3.594 1.542 6.346.082 10.005-1.842 2.406-2.469 2.726-5.073 3.72 0 0 7.2 9.426 7.2 11.257 0 1.265-.574 1.808-.574 1.808h-31.006c-3.354 4.299-12.992 10.314-22.58 11.245" fill="#fff"/>
  <path class="B D" d="M414.386 1.941l5.513 5.659c1.328.905 1.962 2.276 3.031 3.472.288.642.779 1.371.404 2.129l-.462.555-.519 5.251c-.231.408-.174.933-.519 1.312v.233l-.058-.058c-.173 1.079-.26 2.188-.606 3.18-.173 1.166-.606 2.421-.693 3.733-.173 2.247.492 4.492 1.184 6.506.549.554.577 1.195 1.212 1.662l-.029.029 5.08 5.66 1.934 2.362c.029.321.231.525.491.7 4.445 6.913 5.657 15.169 7.735 23.103.462 3.267 1.646 7.059.318 10.385-1.674 2.188-4.157 3.238-6.523 4.142 2.626 3.792 5.599 7.526 8.139 11.376.029.205.087.379.058.584-1.443-.059-2.973-.262-4.388-.233-2.366-3.675-4.907-7.351-7.591-10.852-.086-.088-.346.029-.346-.146-.03.029-.087.058-.058.117-.693-.059-1.5.175-2.28.204-.26.379-.317.963-.432 1.459-.115.438-.145.934-.405 1.255.492.642.636 1.4 1.184 2.012.953 2.071 1.79 4.23 2.684 6.33h-5.512l-10.131.029c-.462.088-.981-.146-1.415 0l-1.184-.058c.52-.379.837-.992 1.299-1.371 4.879-.088 9.583.204 14.432-.118-.606-2.334-1.848-4.491-3.204-6.563l-1.731-1.954c-1.386-.642-2.945-.875-4.358-1.459l1.616-5.601c2.684.613 5.254 1.838 7.764 2.8 4.186-6.738 7.101-14.323 6.495-22.841l-.346-2.8c-.26-.262-.057-.555-.231-.846-.866-4.958-2.944-9.48-6.465-13.243-.058.146.144.233.173.35.174.904.606 2.012-.144 2.771-.606.817-1.674.7-2.483.496-2.366-1.662-4.069-4.288-6.032-6.271-2.656-2.8-5.86-5.455-9.901-5.28-1.529-.088-2.972.262-4.3.642-.115.059-.087.205-.058.262 2.252.292 4.157 1.371 6.062 2.567 2.569 2.071 4.185 4.784 5.08 7.76-1.646-.496-3.262-1.051-4.993-1.372.26-.32.779-.437.692-.904-.346-.467-.924-.321-1.443-.525l-.519.029c-.029.613.664 1.137 1.068 1.342-.491-.205-.982-.35-1.501-.467.231-.262-.029-.584-.346-.584-.519.088-1.038-.291-1.559-.058l.231.233c-.432-.117-.866-.176-1.269-.35.26-.117.288-.321.26-.584-.461-.291-1.154 0-1.415-.613h-.144c-.057.117.058.233.174.292-.231-.03-.462-.35-.664-.088-.057.35.26.584.491.7l.433.116c-3.002-.437-6.148-1.225-9.266-1.691.577-1.108 1.386-2.071 2.252-3.092-1.241-2.392-3.06-4.551-4.532-6.826l-3.463-4.668c-.693-.437-1.155-1.166-1.962-1.342-1.184-.787-2.483-1.283-3.839-1.75-1.617-5.222-3.464-10.327-5.744-15.285l2.078 2.1 7.101 6.943 2.54 2.275c.115.876.115 2.071.519 2.976.231 1.137 1.126 1.925 1.617 2.975 2.338 3.326 4.762 6.36 6.956 9.743.231.291.636.554.492.875l-.03.059c.519-.205.837-.817 1.415-1.051 1.385-.817 2.886-1.4 4.474-1.692l.173.059c.174-.321-.201-.438-.201-.758-.087-.147-.405-.088-.289-.35-.953-.35-2.424-.7-2.453-2.042l-.288-3.151c-.231-2.042-1.992-3.821-1.039-6.038.144-.176.173-.409.26-.613h-.115c.202-.088.318-.409.405-.7-.174-1.108-1.559-2.159-.549-3.354.115-.176.231-.35.173-.584-.115.117-.548.088-.548-.176-.087-2.334.635-4.579.866-6.826.549-.904 1.184-1.545 2.136-2.012 2.396-.992 5.31-1.137 7.764-1.867.201.146.288-.176.491-.147 1.299 0 2.338-1.021 3.637-.554"/>
  <path class="B" d="M414.212 3.253c.693.788 1.731 1.167 2.136 2.1-.405.147-.808-.233-1.212-.35-1.501-.642-3.175-.992-4.763-1.312v-.233c1.097-.233 2.454.758 3.176-.438.26-.437.606-.029.663.233m1.357 2.713c1.617 1.05 3.55 1.604 4.878 3.267-.057.029-.115 0-.144.058 0 .088.115.088.174.117l.086-.058c.491.816.174 1.954.115 2.858l-.375 2.976c.375.378.606.728.837 1.137l.115-.262.462-4.959a1.18 1.18 0 0 1 .173-.233c.202.205.405.496.462.788l-.115.029c-.029 1.954-.115 3.996-.462 5.834l-.086.058c-.174-.029-.231-.205-.346-.321.144-.291-.26-.116-.26-.379-.405-.437-.722-.904-1.155-1.283-.462-.787-1.356-1.401-2.021-2.013-.75-.525-1.529-1.225-2.424-1.545-1.991-1.43-4.531-1.634-6.87-2.218-1.154.117-2.482-.116-3.637.176v-.117h.087c.346-1.721.866-3.442 1.039-5.28 2.222-.233 4.588-.262 6.609.379l2.858.992zM405.323 4.77l-1.039 5.339-1.01.35a49.57 49.57 0 0 1 .924-5.281c.317-.262.722-.349 1.125-.408m-3.579 2.363l-.577 3.763c-.288 0-.461.408-.663.32.144-1.4.491-2.887.75-4.317.202-.204.577-.087.491.233m-21.851 2.889c2.597 2.625 5.022 5.163 7.764 7.497.404-.03.087.379.231.583.549 3.705 3.406 6.447 5.138 9.655.029.233-.232.146-.318.205-.144.175-.288.32-.491.35l.057-.117-6.523-9.16c-1.125-1.634-2.078-3.413-3.434-4.93.663 1.897 1.587 3.793 2.251 5.747-.086.262-.374.438-.635.321-.519-.205-.837-.846-1.038-1.342l-3.522-9.305-.26-.291c.318.232.664.408.78.787m34.492 2.363c-.115.7.462 1.167.519 1.838.491 2.363.549 5.251.115 7.701l-1.097 2.684c-.577.934-1.125 1.983-2.107 2.538-1.473 1.371-3.724 1.779-5.571.992-1.126-.059-1.443-2.334-2.771-1.137-.144.32-.519.554-.549.933l-.115.088c-.288-.467 0-1.312-.087-1.721.145-.787.954-.787 1.588-.963l1.125.146.115-.058c-.289-.379-.433-.934-.577-1.342-.519-.205-1.097.117-1.703 0-.202.029-.491.029-.663-.146l.173-.029c0-.118-.144-.321 0-.497.664-.437 1.5-.466 2.28-.699.375.204.779-.117 1.068.175l1.183.176c.202.291.52.437.837.583.202-.146-.173-.233-.144-.408l-.029.058c-.289-.175-.26-1.312-.923-.787-1.242.146-2.165-1.43-3.377-.438-.405.147-.693-.525-1.011-.058l-.346.321.491-1.459h-.087c.463-.205 1.069.291 1.415-.263l-.086-.204.086.088.029-.059-.115-.117.173-.117c.664 0 1.646.642 1.992-.146.029-.438-.261-.817-.607-1.051-.721-.058-1.269.525-1.933.379-.405-.232-.982-.466-1.126-.904.375-1.254.78-2.479 1.443-3.646.375-.088.663.205 1.068.146.318.759 1.184.934 1.76 1.401.491.088.953.408 1.444.262.144-.088.317.146.461.058-.144-.613-.924-.992-.924-1.75-.057-.088-.23-.088-.115-.205 1.357-.262 2.685-.058 3.695.614.058.029.115 0 .174-.059-1.155-.671-2.252-1.867-3.724-1.604l.029-.029-.26-.147c1.385-.904 3.031.176 4.417.409l.115-.088c-1.299-.846-2.685-1.488-4.215-1.721-.981.029-1.789.408-2.684.613-.404-.321-.779-.613-.606-1.254-.057-.117.058-.205.115-.262 1.27-.555 2.685-.584 4.128-.497 1.933.35 3.781.905 5.512 1.663m2.484 1.37c-.375.029-.606.525-1.039.291.087-.379-.721-.554-.26-.904.405.233 1.357-.205 1.299.613m2.511 2.1l-.115.291c-.432 0-.663-.437-.779-.787l-.144-.555c.577.088.75.642 1.038 1.051m-1.904-.846c.115.204.231.379.231.613-.115.205-.375.117-.549.233-.288-.147-.462-.555-.693-.758.174-.497.723-.118 1.011-.088m-1.126.7c.057.262.346.379.346.642-.318.176-.577-.117-.808-.291-.087-.088-.23-.291-.087-.379.202-.029.462.262.549.029m2.915 1.457c-.202.438-.606.233-.953.379-.346-.087-.432-.496-.692-.699.115-.176.375-.233.606-.263.375.117.721.35 1.038.584m-1.76.408v.7c-.491-.117-1.184-.147-1.443-.642.115-.147 0-.409.26-.468.491-.087.837.205 1.184.409m3.347.526c-.057.291-.519.438-.779.671-.462-.059-.953.146-1.184-.321.086-.029.173-.088.201-.176-.029-.116-.26-.204-.317-.204.346.175.722.117 1.097.029.087-.117.115-.321.057-.408.376 0 .78.058.924.408m-4.328.759c-.058.117-.144.117-.26.117l.029-.291c.087.029.173.116.231.175m2.54.466c.087.233-.144.437-.317.496-.318.088-.664.262-1.011.058-.26-.291-.519-.583-.635-.933.519-.233 1.068 0 1.587.262l.375.117z" fill="#fff"/>
  <path class="B D" d="M406.881 18.83c.289.321.866 0 1.068.554.577.7.346 1.78 1.011 2.392 0 .146.115.291 0 .408-.202-.117-.405-.408-.636-.554-.231-.555-.78-.642-1.154-1.108.057-.671-.346-1.138-.549-1.692l.202.088.057-.088z"/>
  <g class="B" fill="#fff">
    <path d="M420.996 19.034l.029.058c.029 0-.375.088-.173.234.115.058.317.029.317.204-.057.175-.029.262-.029.467-.288.525-.693.029-1.154.146l-.289-.32c.058-.409.577-.088.577-.526.173-.058.288-.291.491-.205l-.029-.058.231-.176c.029.03-.058.176.029.176m-3.724 1.196c.057.117.288-.059.26.146-.144.35-.462.438-.75.555-.115-.117-.26-.233-.462-.205-.202-.233-.462-.496-.318-.846l.174-.146c.375.146.866.175 1.097.496m3.001.526l-.981.875c-.404-.117-.866-.291-1.097-.67.318-.321.722-.321 1.184-.408.231-.555.461.146.866-.03.144.058-.029.146.029.233m1.5-.439h.029v.088h-.029z"/>
    <path d="M418.253 21.835l.318-.117c.086.059.115.205.115.35-.318.233-.664.729-1.126.467-.548-.059-.519-.7-.894-.992.318-.496.779.175 1.241.029l.346.262zm2.396-.234c.491.175.115.788.173 1.166-.115.38-.519.03-.75.03l-.693-.525c.318-.467 1.039-.38 1.386-.817l-.115.146zm-4.33 1.022l.548.379c-.23.117-.721.379-1.096.175-.144-.116-.405 0-.491-.233-.087-.379.375-.232.317-.613.346-.32.577-.029.722.292m3.58.875c-.144.35-.577.379-.866.554-.375-.175-.924-.058-1.155-.495.289-.263.606-.233.953-.409.375-.058.808.029 1.068.35m.548 1.254c-.115.291.087.642-.231.758-.404-.175-.924-.262-1.125-.7.173-.117.432-.146.635-.233l.404-.67c.376.088.174.584.318.846m-2.8-.497l.548.35c-.231.146-.375.408-.663.467-.635-.263-1.559-.233-1.79-1.051.432-.088 1.01-.146 1.356.321l.549-.088zm-1.703.963l.03.233c-.462-.176-1.011.496-1.415-.029-.231-.147-.289-.408-.202-.671.115-.088.144-.32.346-.32.549 0 .837.525 1.241.787m3.319.787c-.087.205-.231.379-.375.496-.519.088-.837.175-1.356-.058-.087-.292-.693-.292-.375-.671.635-.146 1.328-.205 1.904-.088l.202.321zm-2.165.875c-.375.233-.953.321-1.385.088-.202-.205-.722-.35-.636-.7.376-.292.953-.059 1.386-.176.029.35.491.467.635.788m2.973.642c0 .554-.462.233-.78.35-.317-.059-.548-.379-.692-.613.201-.088.432.058.635-.088.26-.146.375-.438.693-.438.201.262-.115.555.144.788m-4.964-.203c.029.088.26.205.087.291-.375.233-.924.467-1.356.233-.202-.233-.722-.204-.607-.613.577-.233 1.329 0 1.877.088m3.058.613a.92.92 0 0 1-.78.787c-.432-.146-1.01-.233-1.241-.699.174-.117.462-.233.636-.059.115.233.375.146.548.088.231-.176.318-.496.635-.467.087.117 0 .321.202.35m-4.676.876c0 .233.231.379.087.613-.664.029-1.472.321-1.934-.408-.029-.263.318-.321.519-.35.174.087.346.146.549.117.115-.35.75-.379.779.029m1.963-.177v.029c.202-.058.606-.029.693.233-.145.496-.808.438-1.241.584-.174-.379-.664-.437-.837-.817.432-.349 1.038.467 1.385-.029m4.186.38c.087.321-.202.613-.404.787-.346.117-.866.205-1.212-.087-.115-.088-.52-.35-.174-.555.52-.029 1.039-.525 1.587-.408l.202.262zm-25.545.262l3.464 4.901c-.202.205-.232.671-.606.613l-3.81-5.454c.144-.088.173-.38.346-.176l.057.029c-.115-.35.405-.204.549.088m17.578.699c-.144.292-.404.467-.635.729-.491-.058-1.184.059-1.443-.496.057-.058.029-.175.057-.262l1.068.262c.173-.204.722-.904.953-.233m5.802.409c-.058.088-.029.205-.029.292-.693.232-1.53.379-2.049-.321-.058-.03-.029-.117-.029-.176.26-.087.548-.437.808-.117.462.088.895-.554 1.27-.088l.029.409z"/>
    <path d="M414.415 30.236v.292c-.433.175-.924.349-1.27.67-.26-.233-.663-.35-.722-.7.26-.088.693-.204 1.068 0 .202-.35.606-.496.924-.262m5.109.7c-.058.584-.779.32-1.125.525-.318.059-.722-.029-.953-.205.144-.349.663-.291.953-.554.374.233 1.125-.67 1.067.233h.058zm-10.882.321c0 .117-.029.205-.115.262-.231-.029-.519-.088-.606-.32-.029-.262.288-.059.405-.176.115.03.346.03.317.233m7.417.672c-.231.467-.75.292-1.125.409-.288-.321-.75-.38-1.068-.7.26-.525.953-.117 1.386-.38.26.321 1.183-.116.808.671m-3.724-.204c.057.35-.404.146-.404.496-.462-.233-1.068-.233-1.473-.584.26-.205.78-.262 1.155-.233.231-.087.866-.204.722.321m8.11.145c.029.117-.087.321.115.35-.174.291-.346.67-.663.875-.462-.088-1.098-.029-1.212-.671.23-.554 1.097.088 1.212-.554.115-.291.461-.262.548 0m-2.568.467c.318.117.174.554.346.787-.577.263-1.299.03-1.79-.35.029-.262.029-.67.375-.67.433.059.577.613 1.068.233m-3.377.496c-.318.117-.78.496-1.212.35l-.75-.525c.231-.176.577-.205.808-.379.318.291.75.437 1.155.554m1.933.729c-.087.584-.75.205-1.039.467-.23-.029-.635-.029-.779-.379.202 0 .346-.292.432-.438.202.117.549.146.723-.029l.663.379zm4.561.613a.53.53 0 0 1-.664.525c-.346-.029-.722-.204-.866-.554.231-.526.953.029 1.011-.642.346.058.346.437.519.67m-2.223-.378c-.26.291.289.758-.201.904a.8.8 0 0 1-.837-.087l-.52-.584c.231-.088.577-.117.808-.117.231-.088.519-.088.75-.117m-14.461.467c.087.205.318.408.202.642l-.924.584c-.606-.058-1.385-.262-1.529-.904.115-.233.317.029.519-.059.577.117 1.068-.379 1.616-.262l.346-.204c.058.146-.231.058-.231.204m-3.751-.117c.174.496-.404.291-.577.467-.231-.117-.577.058-.722-.205-.057-.204.029-.291.231-.32l1.068.058zm16.568 1.05c-.231.291-.635.438-.981.262-.115-.175-.606-.291-.432-.613.23-.176.577-.117.866-.176l.548.526zm-10.189 0c.058.291-.115.584-.375.642-.606.059-1.299.146-1.818-.204l.404-.35c.144.087.405 0 .577-.147.288-.262.693-.204 1.038-.117l.174.176zm15.211.292c-.057.233.115.438-.029.613-.405-.291-1.328.205-1.299-.642.115-.175.26.058.375-.059.289-.408.663-.058.953.088m-23.292-.03c.057.233-.03.35-.231.438-.26-.117-.722-.117-.722-.497.289-.175.779-.116.953.059"/>
    <path d="M418.745 35.428a.64.64 0 0 1-.491.554c-.174.233-.462.059-.693 0l-.058-.058c.174-.642.78-.233 1.242-.496m-16.857.35c-.288.117-.462.496-.808.642-.492.058-.867-.408-1.386-.408v-.35c.693.554 1.212-.409 1.847-.088l.346.205zm17.578-.204l.058-.029.201.088-.26-.059z"/>
    <path d="M420.303 36.099l.144.205c-.432.408-.953.087-1.414.146.201-.176.26-.642.577-.526l.318-.32c.288.088.057.496.375.496m-11.689.612c.087.088.231.029.346-.059-.606.555-1.674.526-2.396.321l-.26-.291c.432-.321 1.328.058 1.559-.613.26.175.866.146.75.642m-3.954-.204c.058.613-.635.467-.953.729-.346-.35-.953-.408-1.269-.758.288-.35.548.088.866.058.375-.175 1.01-.496 1.356-.029m-6.408.524c-.26.029-.144.233-.202.35-.346.146-.692-.029-.808-.35l-.058-.32c.289.029.779.117 1.068.32m24.968.701l-.115.117c-.173-.176-.491-.205-.722-.35-.26-.029-.491-.088-.664-.291 0-.176.202-.176.346-.176.318.059.404-.437.693-.204.346.175.462.554.462.904m-4.302-.438c-.26.146-.26.496-.663.291-.26-.117-.78-.262-.693-.612.317-.059.664-.205.953-.147.231.117.144.438.404.467m-17.866.059c-.433.146-.981.613-1.443.291-.202-.204-.404-.525-.606-.758.693.321 1.328.438 2.049.467m19.944.146c.144.146.433.35.433.555-.346.232-.751 0-1.098-.059-.144-.175-.432-.262-.461-.525.201-.292.663.087.923-.176.202-.087.144.117.202.205m-13.94.38c-.087.35-.577.175-.78.467-.461.349-.923-.205-1.299-.409-.26-.262-.057-.496.231-.583.693-.146 1.155.525 1.848.525m2.973-.059c.115.175.173.379.317.554-.144.496-.663.321-.981.438-.491-.059-.924-.233-1.356-.467-.087-.087-.087-.204-.144-.32.202-.088.606.204.779-.117.606.408.75-.788 1.242-.088h.144zm-6.379.263c.173.029.26-.088.461-.029l-.057.408c-.519.117-1.068.146-1.559-.029-.288-.117-.491-.321-.808-.408 0-.263.288-.233.432-.38.433.292 1.039.233 1.53.438m20.61.175c0 .175.087.35.202.437 0 .147-.174.117-.261.176l-.086-.088c-.346.088-.722-.088-1.039-.32l-.057-.059c.288-.291.923-.613 1.241-.146m-4.157.437c-.202.262-.549.176-.895.205-.317-.029-.346-.321-.491-.525.145-.379.549-.088.837-.088l.549.408z"/>
    <path d="M410.46 38.345l.231-.088-.115.088h-.115zm-14.027.175c.057.175-.115.262-.202.408-.231-.058-.635-.087-.606-.379.174-.32.519.03.808-.029m2.511.35c-.086.205-.173.408-.433.438-.374-.176-.808-.176-1.125-.526l.202-.262c.404.205.923.147 1.356.35"/>
  </g>
  <path class="B D" d="M382.058 38.695l10.217.642c.202.263.577.233.808.176 6.783.875 13.249 2.479 19.628 4.288 3.434.963 6.696 2.305 9.871 3.851.26.232.231.583.318.875l-3.608 19.457c-.52 2.829-1.443 5.747-1.731 8.401-.087-.03-.058.32-.26.233l.086.087c-1.212 5.659-3.088 11.085-6.927 15.607-.289.029-.145.379-.375.496-5.716 6.68-13.48 11.289-22.196 12.135-5.311-4.055-8.976-9.918-11.429-15.751-1.905-5.164-2.771-10.794-2.108-16.511.693-7.088 2.483-13.913 3.81-20.798.375-.379.115-.992.346-1.43.866-3.967 1.934-7.847 2.8-11.813.346-.088.808-.059 1.184-.03l-.433.088z"/>
  <path class="B" d="M408.123 39.279c.173.146.433.146.606.291-.202.234-.606.117-.895.234-.375-.205-.779-.38-.894-.846.087 0 .26-.38.491-.205.144.262.462.466.693.525m-6.236-.32c.289.058 0 .32.202.437-.52.35-1.097.233-1.674.088.087-.205-.289-.146-.115-.35-.144-.087-.318-.175-.289-.379.636.059 1.212.321 1.877.205m21.358.32c-.404.438-1.039.058-1.559.058l-.173-.291c.404-.262.837-.087 1.241-.291.201.087.519.233.491.525m-17.318-.001c.519-.175.26.613.722.7.057.408-.462.205-.606.32-.635-.262-1.356-.408-1.674-1.079.087-.204.433-.408.635-.175.318.175.606.205.924.233m5.483.992l-.115.262c-.722-.058-1.559-.029-1.934-.729.405-.525 1.068.176 1.501-.35.173.233.519.438.548.817m9.958-.145c-.231-.088-.404.029-.606.233-.288-.146-.808.058-.866-.35.115-.496.693-.205 1.068-.379l.404.496zm3.435.379c-.231.438-.779.205-1.125.205-.144-.117-.404 0-.462-.233.115-.409.635-.088.837-.379.087 0 .231.146.318 0 0-.059-.087-.117-.115-.146.317-.555.374.291.663.146l-.115.408zm-12.989-.525c-.029.029-.087.146-.202.117-.057-.088.144-.176.202-.117m-23.928.35l8.688.992c-.75 4.201-1.761 8.256-2.742 12.427-.173-.029-.231.205-.288.262-4.502-.787-9.005-1.137-13.508-1.604.115-.205-.115-.233-.086-.408.692-3.909 1.529-7.526 2.366-11.319.202-.175.144-.467.202-.7 1.731.263 3.637.176 5.368.35m34.839.846a1.29 1.29 0 0 1-1.472.059c-.087-.059-.029-.147-.058-.233.405-.321 1.443-.671 1.53.175m-10.276.436c.058.146-.144.262.029.35.058-.058.174 0 .231-.029-.086.058-.173.291-.26.117-.549.846-1.386-.088-2.078-.146a.51.51 0 0 0 .173-.467c.664.205 1.184-.35 1.818-.059l.087.233zm12.874.438c-.058.029-.029.117-.029.175-.202-.058-.174.233-.346.205-.491.088-.432-.437-.894-.408.144-.233.49-.176.722-.321.201.029.49.088.548.35m-2.108.028c.201.233.404.758.837.729-.289.029-.549.117-.866.029-.231-.204-.924-.087-.723-.583.145-.379.463 0 .751-.176m-20.031 2.685l.26 1.167c-.231.845-.693 1.779-1.53 2.158l-.144.233-1.241 8.809c1.847.7 3.724 1.342 5.34 2.596-.057.555-.318 1.401-.318 1.897l-4.733-1.633-8.111-1.255c-.866 0-1.5.321-2.28 0 .144-.67.087-1.429.289-2.1 1.991-.35 4.243-.379 6.321-.088.404-.525.375-1.254.606-1.867l1.962-7.059c.058-.525-.606-.437-.462-.992-.432-.291-.029-.846-.201-1.196.144-.962 1.212-1.516 2.049-1.808.923-.117 1.731.466 2.193 1.137m18.098 3.793c-.346 1.051-.173 2.129-.433 3.18l-1.269 9.364c-.318.204-.606-.233-.924-.263l-4.676-1.488-.115-.117-9.12-2.391c.058-.117-.087-.176-.174-.233.549-.671.405-1.604.664-2.392.78-3.5 1.53-7.088 2.511-10.414 4.792.846 9.092 2.975 13.537 4.755m11.572 2.479l-.058.321c-.288.117-.461-.176-.635-.379-.057-.147.058-.176.174-.205.201-.059.491 0 .519.262m.867 1.955c-.144.35-.144.758-.577.817-.26 0-.548-.176-.722-.467 0-.321.52-.35.318-.729.202.35.75-.029.981.379m.693 2.246c-.375.35.057.817-.433 1.021-.404-.116-.866-.146-1.211-.379.115-.613.836-.554 1.183-.904.202-.029.375.117.462.262m.951 1.925c.202.584-.346.729-.318 1.254-.548-.058-1.097-.088-1.559-.408.087-.584.837-.35 1.155-.7.202-.117.491-.467.722-.146m-1.299 2.421c-.087.496-.606.408-.866.729-.115-.088-.346-.175-.346-.379.288-.205-.057-.846.288-1.021.405.117.577.554.924.67m1.789.847c.174.438-.231.671-.577.758-.404-.117-.866-.146-1.097-.554.519-.263 1.27-1.372 1.674-.205m-37.753.526c.057.088-.174.117-.029.205.144-.38.491.058.722.175.346.321.663.758 1.154.905l.202.262-.346 1.283-4.705 20.157c-1.039 4.58-2.339 9.043-3.579 13.506.115.35-.26.467-.23.758l-.145.525c-.693 1.108-1.385 2.305-2.338 3.238-.722-1.43-1.068-3.122-1.068-4.785 1.501-8.692 3.493-17.443 5.195-25.902l2.078-9.743c.433-.146.75-.525 1.242-.496l.173.291-1.472 8.285-3.608 18.26c-.115 1.138-.606 2.218-.577 3.326h.058l7.215-30.25h.058zm37.176 1.022c.115.088.057.262 0 .379-.318.321-.693.146-1.039.35-.346 0-1.01-.029-.837-.555 0-.146.087-.233.231-.233.433.321.693-.437 1.126-.029l.519.088zm1.27 1.254c0 .233-.115.496-.317.584-.606.205-1.068-.029-1.617-.146l-.144-.205c.606.029 1.039-.584 1.616-.7.174.176.375.233.462.467m-2.944.262c.115.204.057.496.318.584-.318.146-.636 0-.895-.146-.115-.118-.086-.321-.057-.467.202-.263.404.087.635.029m-42.575 1.517l-3.493 16.977-1.01 4.376-1.646 7.73-.837 5.426-.115.117c-6.118-7.526-9.293-16.715-8.283-26.75.144-3.121.75-6.155 1.472-9.16 1.646-.437 3.521.059 5.368.088 2.829.292 5.744.817 8.544 1.196m44.855-.204c-.375.613-1.097.554-1.732.496-.173-.233-.288-.379-.346-.642.317-.642.866.146 1.328.146h.75zm1.067 1.079c.144.409-.289.642-.635.642-.462 0-.808-.146-1.27-.262.491-.233 1.039-.554 1.472-.963.318.029.318.38.433.584m-3.059.233l.577.117c.029.262.029.729-.375.7-.577.029-1.299-.029-1.559-.584-.087-.233.087-.467.346-.467.346.059.75-.146 1.01.233m2.339 1.401c-.433.291-.664 1.313-1.386.7-.173-.205-.577 0-.779-.262.318-.088.692-.35 1.068-.496.23-.088.75 0 1.097.058m-3.175.321c-.029.205-.231.205-.346.379-.231 0-.461-.117-.519-.35.115-.496.663-.35.866-.029m-22.544 1.75l6.408 2.305.058.117h-.058c-.519.875-.174 1.662-.462 2.625a77.22 77.22 0 0 1-3.002 10.647c-3.233 6.126-8.688 11.464-14.806 14.556-1.501.934-3.233 1.517-4.878 2.217.115-.525.173-1.078.23-1.633h-.057l-.288 1.108 4.791-20.011c1.212-4.434 2.194-9.159 3.29-13.71.318-.175.577.176.837.03 2.714.408 5.282 1.166 7.938 1.75m27.016-1.139c.058.408-.317.554-.692.584-.261-.176-.52.029-.751-.205.261-.262.318-.671.664-.787.346-.03.606.204.779.408" fill="#fff"/>
  <path class="B C" d="M437.246 68.799c-.029.029-.231.058-.174-.059l.174.059z"/>
  <path class="B" d="M433.552 69.179c.404.058.837-.438 1.154.029-.201.379-.577.496-.894.846-.491-.233-1.241-.321-1.212-1.05.231-.526.606.058.953.175m2.971.845c-.029.262.404.7-.115.788-.375.087-.462.437-.924.349-.201-.408-.722-.496-1.067-.583.201-.73.779-.059 1.154-.467.26-.176.75-.7.953-.088m-4.013.381c0 .176.087.321.231.438-.231.175-.462.729-.837.291-.173 0-.317.291-.491.029-.115-.146.029-.291-.173-.408 0-.205 0-.409.23-.496.261.175.693.291 1.039.146m5.283 1.079c.029.321 0 .758-.318.934-.23-.029-.404-.262-.692-.233l-.433-.496c.346-.205.808-.584 1.27-.555l.173.35zm-2.799.496c-.087.438-.635.408-.837.758-.346-.088-.635-.291-1.01-.32l-.433-.438c.144-.146.202-.438.491-.438.52.613 1.443-.496 1.79.438m-2.888.963c.318-.205.549.233.78.35l-.867.525c-.462-.117-1.068-.35-1.212-.875.058-.088-.029-.321.174-.292.375.088.663.584 1.125.292m4.618.175c-.491.205-.606.846-1.212.787-.288-.379-.837-.379-1.068-.816.174-.059.433.117.577-.146.346.058.75.116 1.011-.176.201.146.432.321.692.35m1.53.584c.115.438-.087.729-.26 1.108-.549.029-1.125.146-1.646-.146-.057-.788.924-.729 1.415-1.108.173 0 .375 0 .491.146m-3.406.787c-.288.262-.606.642-1.039.7-.404-.233-1.241-.176-1.125-.905.462-.204 1.125-.204 1.616-.146l.549.35zm-3.348.351c.115.117.318.35.087.496l.057.029c-.432.292-.981-.058-1.443-.205-.115-.175-.432-.204-.375-.496.519-.496 1.039.379 1.674.176m4.85.846c.029.117.144.205.26.205-.548.175-.606.846-1.27.729l-.115.117-.867-.7c.346-.438.953-.555 1.443-.496.145.205.318.117.549.146m-2.743 1.049c-.577-.176-.894.7-1.443.321-.289-.292-.779-.409-.837-.817.52-.787 1.155.029 1.818-.029.202.117.346.32.462.525m-3.146-.175c.231.117.144.35.029.496-.462-.029-1.038-.029-1.269-.525-.058-.146.029-.292.173-.292.346.117.635.379 1.068.321m7.417.291c-.375.233-.26.788-.635.992-.491.088-.866-.204-1.241-.438.461-.408 1.183-1.108 1.876-.554m-8.486 1.226c-.202.117-.462.029-.693.059-.115-.088-.26-.205-.144-.351.144-.232.924-.204.837.292m4.705-.117c.404.176 1.155-.262 1.212.379.144.059 0 .262.087.35-.289.117-.606.408-.924.146l-.057.059c-.52-.059-1.126-.176-1.299-.729-.03-.146.144-.117.201-.176-.057-.087-.057-.408.174-.379.26-.029.432.176.606.35m-2.338-.175c.635-.117.231.613.606.846-.404-.029-.808.729-1.154.088-.116-.526-1.039-.438-.607-1.079.375.262.693.117 1.155.146m-1.212 1.924c-.346-.117-.866-.058-.981-.555 0-.117.087-.233.231-.262.173.467 1.356.059.75.817m-1.934-.058c.029.554-.404-.059-.663.088-.174-.088-.087-.321.057-.409.231 0 .548.03.606.321m4.878.029c.288 0 .808-.233.808.205l-.03.146c-.519 0-1.01.613-1.5.146-.115-.175-.375-.408-.144-.613.202-.175.432-.088.635-.059l.231.176zm-3.493.846c-.231.467-.693.088-1.068.088-.115-.146-.375-.379-.057-.526.375.147.866.088 1.125.438m2.079.233c.058.146.058.321-.144.35-.462.058-.78-.262-1.212-.35-.144-.117-.029-.379.144-.379.606-.205.722.35 1.212.379m-3.81.817c0 .205-.346.117-.519.205-.174 0-.318-.03-.404-.176 0-.146.115-.292.23-.35.231.088.606.058.693.321m3.03.729l-.174.088c2.454 3.296 4.503 6.563 6.812 9.918-.577-.059-1.328.146-1.847-.176l-6.754-9.276c.029-.232-.202-.583.173-.642.462.059.866-.204 1.356-.175.144.088.202.35.433.262" fill="#fff"/>
  <path class="C B" d="M117.741 124.486v-6.711l30.189-.032v6.759l-9.368.926-21.023 29.906 22.786 34.59c2.895 4.336 4.966 5.941 8.277 5.941l2.01.02-.489 6.768H111.44l.478-6.768 8.822-.734-15.223-23.533-13.703 19.961c-2.061 2.981-1.761 3.863 1.35 3.878l8.737.416-.449 6.779-32.506.021.677-6.758 9.479-.75 21.956-30.895-22.202-34.788c-2.352-3.7-5.121-5.004-10.038-5.014l.026-6.709h39.44v6.753l-9.181.926 13.841 22.969 12.943-19.493c1.617-2.484 1.304-3.64-1.129-3.88l-7.016-.55zm131.623-.012c12.695.01 20.152 4.858 20.155 15.467.001 12.498-8.59 16.997-20.454 17.042-.207.001-.318.008-.318.008v-32.515l.618-.002m35.813 53.524c-2.07-9.632-8.66-15.654-17.9-17.771-.056-.013.031-.143.298-.205 10.011-2.368 21.37-10.012 21.413-21.044.065-16.192-15.126-21.232-39.146-21.224l-29.382-.01.026 6.715c.127.001.253.005.377.01 6.04.063 9.116 4.235 9.154 12.308l.009 58.357-8.459.747-.489 6.776 38.266.024.532-6.8c-.236 0-.599 0-.826-.001-9.556-.032-10.347-.241-10.347-8.134V164.24a1.62 1.62 0 0 0 .494.057c9.904-.055 14.827 3.301 16.826 11.839.891 3.802 1.201 7.055 2.115 11.666 2.297 11.605 6.312 15.113 19.312 15.113 1.256 0 2.158-.076 3.044-.081 1.174-.006 2.705-.173 2.705-.173l.517-6.706c-4.753.023-5.901-1.335-6.83-7.758-.84-5.816-.933-6.582-1.711-10.199m-133.348-53.513c6.857-.001 9.91 3.983 9.892 12.147l-.025 58.528-7.807.712-.464 6.809 41-.017.53-6.774-2.344-.026c-11.4.051-12.165-.853-12.157-9.42l-.002-20.277s.145.166.541.256c20.465 4.657 39.546-5.111 39.539-25.388-.006-17.931-15.458-23.308-39.183-23.3l-29.547-.008.026 6.756zm28.938-.013c12.541.042 21.065 5.001 21.065 17.632 0 12.445-8.581 18.388-20.781 17.302-.409-.037-.632-.102-.632-.102v-34.833l.348.001M40.357 163.566c4.574.034 6.48.955 8.441 3.549 1.275 1.689 2.014 2.888 2.348 3.466l.216.392h4.779v-23.651l-5.713.01c.002.165-.015.363-.055.585-1.141 5.34-3.046 6.941-11.027 6.934l-9.421-.063.004-29.514 19.399.025c2.328.03 3.136.28 3.411 1.139.535 1.666.888 2.798 2.185 6.016 1.18 2.925 2.217 4.651 3.101 5.721l6.28-.046-2.401-20.37L0 117.746l.025 6.737.304.002c7.279.032 10.87 2.664 10.873 12.725l.02 57.935-9.253.765-.469 6.743 63.478.021 2.495-23.976c-1.398-.382-2.801-.513-4.125-.513-1.546 0-2.796.689-3.311 1.988l-3.01 7.41c-2.471 5.864-5.783 7.435-14.907 7.435H31.617c-1.421 0-1.69-.699-1.69-1.923V163.57l10.429-.005zm329.315 12.499c3.271.005 4.649.962 5.407 4.29 2.291 10.06 7.52 16.828 16.913 16.821 8.385-.006 13.908-5.042 13.918-12.927.008-6.5-3.433-10.621-16.643-15.942-14.195-5.718-21.579-14.343-21.632-27.435-.063-15.357 11.242-25.101 28.436-25.138 5.526-.012 10.284 1.458 14.151 4.508 0 0 .093-.084.275-.214.98-.696 2.057-1.344 3.567-1.829 2.505-.804 4.016-.456 4.016-.456s-.333 2.949.501 11.743c.704 7.429 1.68 11.757 1.68 11.757l-7.106-.002c-4.585-12.735-9.817-18.248-18.532-18.254-7.534-.006-12.662 4.503-12.662 11.817 0 7.2 4.376 11.47 15.814 15.752 15.47 5.793 23.259 13.97 23.25 27.125-.013 15.42-11.556 26.718-28.516 26.862-7.931.068-12.698-1.638-17.786-5.052 0 0-.096.064-.25.216-.704.688-2.114 1.543-3.62 2.02-3.308 1.047-5.733.926-5.733.926l2.665-26.609 1.887.02m-34.896-12.51c4.574.034 6.48.988 8.441 3.583 1.275 1.689 2.013 2.888 2.346 3.466l.217.392h4.779v-23.651l-5.713.01a3.04 3.04 0 0 1-.056.585c-1.141 5.34-3.044 6.941-11.026 6.934l-9.421-.063.004-29.514 19.766.025c2.328.03 2.842.504 3.117 1.361.536 1.666.815 2.576 2.113 5.794 1.18 2.925 2.217 4.618 3.101 5.688l6.28-.013-2.402-20.404-61.903.021.025 6.703.303.002c7.279-.043 10.871 2.696 10.873 12.758l.021 57.935-8.593.765-.502 6.743 62.85-.012 2.496-23.942c-1.398-.382-2.801-.513-4.127-.513-1.545 0-2.795.689-3.311 1.988l-3.009 7.41c-2.471 5.864-5.785 7.435-14.907 7.435h-10.503c-1.419 0-1.688-.699-1.688-1.923v-29.525l10.429-.038zm94.794 12.476c3.271.005 4.649.962 5.407 4.29 2.291 10.06 7.519 16.828 16.913 16.821 8.385-.006 13.907-5.042 13.918-12.927.007-6.5-3.433-10.621-16.643-15.942-14.195-5.718-21.579-14.343-21.632-27.435-.063-15.357 11.242-24.953 28.436-24.99 5.526-.012 10.284 1.31 14.149 4.359 0 0 .094-.084.275-.214.981-.696 2.059-1.344 3.568-1.829 2.505-.804 4.016-.456 4.016-.456s-.333 2.949.501 11.743c.704 7.429 1.68 11.757 1.68 11.757l-7.106-.002c-4.585-12.735-9.817-18.1-18.532-18.106-7.534-.006-12.663 4.355-12.663 11.67 0 7.199 4.377 11.469 15.814 15.751 15.471 5.793 23.26 13.97 23.25 27.125-.012 15.42-11.555 26.718-28.515 26.862-7.932.068-12.698-1.638-17.786-5.052 0 0-.096.064-.25.216-.704.688-2.114 1.543-3.62 2.02-3.309 1.047-5.733.926-5.733.926l2.665-26.609 1.887.02"/>
</svg>