<?xml version="1.0" encoding="utf-8"?>
<svg xmlns="http://www.w3.org/2000/svg" fill="none" height="134" width="181">
  <g clip-path="url(#a)">
    <path d="m12.468 100.935 16.616 3.417-.737 6.432-17.688-3.283 1.81-6.566ZM8.448 114.804l19.765 3.417-1.34 8.174-21.105-3.149 2.68-8.442Z" fill="#265BF6"/>
    <mask height="58" id="b" maskUnits="userSpaceOnUse" style="mask-type:alpha" width="29" x="93" y="76">
      <path d="m95.48 76.882 15.611 2.814 10.251 53.466H93.068l2.412-56.28Z" fill="#fff"/>
    </mask>
    <defs>
      <pattern height="6" id="c" patternUnits="userSpaceOnUse" width="10" x="0" y="0">
        <circle cx="1" cy="1" fill="#110176" r="1"/>
        <circle cx="3.5" cy="4" fill="#110176" r="1"/>
        <circle cx="6" cy="1" fill="#110176" r="1"/>
        <circle cx="8.5" cy="4" fill="#110176" r="1"/>
      </pattern>
    </defs>
    <g mask="url(#b)">
      <path d="M0 0h1000v1000H0z" fill="url(#c)"/>
    </g>
    <path d="M143.518 97.183c0-1.675 1.34-2.01 1.675-2.01 1.34 0 2.345.67 2.345 2.345 0 1.675-1.675 2.345-2.345 2.345-.67 0-1.675-1.005-1.675-2.68ZM148.878 96.848c0-1.675 1.34-2.01 1.675-2.01 1.34 0 2.345.67 2.345 2.345 0 1.675-1.675 2.345-2.345 2.345-.67 0-1.675-1.005-1.675-2.68ZM154.238 96.848c0-1.675 1.34-2.01 1.675-2.01 1.34 0 2.345.67 2.345 2.345 0 1.675-1.675 2.345-2.345 2.345-.67 0-1.675-1.005-1.675-2.68ZM160.938 96.848c0-1.675 1.339-2.01 1.674-2.01 1.34 0 2.345.67 2.345 2.345 0 1.675-1.675 2.345-2.345 2.345-.67 0-1.674-1.005-1.674-2.68Z" fill="#265BF6"/>
    <path d="M68.346 119.896h-1.14c-1.473-.134-2.947-.134-4.354-.201-.804-.067-1.608.134-2.412 0-2.211-.268-4.422-.067-6.633-.134-.134 0-.335-.067-.47-.067-.468-.134-.803.067-.803.536 0 .469-.067.871-.268 1.34-.067.067-.067.201-.067.335-.067 1.005-.067 2.077-.201 3.082-.134 1.072-.134 2.211-.402 3.283-.134.603-.134 1.273-.201 1.876-.067.536.134 1.139-.134 1.675-.067.134.067.268.134.469.201.536 0 1.005-.603 1.273l-.067.067c-.402-.134-.804-.201-1.139-.402-.268-.134-.268-.402-.268-.67.067-1.206.134-2.345.402-3.551.067-.201.067-.402.067-.603 0-.603.067-1.206 0-1.742-.067-.603.335-1.206 0-1.809-.067-.067 0-.201.067-.268.268-.402.268-.804.268-1.206a7.32 7.32 0 0 1 .402-2.948c0-.067.067-.067.067-.134-.268-1.139.201-2.211.201-3.35 0-.67.134-1.34.134-1.943 0-.067 0-.201.067-.201.402-.536.268-1.139.268-1.675.067-1.005.134-2.077.335-3.082.134-.536 0-.938-.134-1.34-.067-.268-.067-.402.134-.536.268-.268.603-.402 1.005-.536.737-.201 1.474-.134 2.21-.134.269 0 .537.067.805.134s.536.067.737-.201c.268-.268.2-.536.067-.804-.134-.268-.335-.603-.47-.938-.066-.201-.2-.402-.267-.603-.201-.536-.268-1.139-.737-1.608-.201-.134-.201-.536-.268-.804-.134-.603-.47-1.206-.335-1.876 0-.134-.201-.536-.335-.536-.402-.067-.268-.268-.335-.536-.268-1.005-.134-2.077-.67-3.015 0-.938-.536-1.675-.67-2.546 0-.268-.067-.469-.067-.737.067-.938-.134-1.809-.335-2.68-.134-.67-.469-.804-1.139-.804h-2.211c-.201 0-.268-.067-.335-.268-.067-.603-.201-1.206-.603-1.742-.134-.2-.335-.536-.067-.87.067-.068 0-.336-.067-.47-.536-1.072-.536-2.345-.871-3.484-.067-.268-.134-.536-.268-.737-.335-.67-.67-1.407-.536-2.21 0-.135 0-.202-.067-.336-.134-.2-.134-.536-.536-.536s-.335.402-.335.536c-.067 1.072-.67 1.943-.871 2.948-.201 1.005-.536 1.943-.871 2.948-.067.268-.067.536-.134.804-.134.536-.268 1.005-.469 1.474-.536 1.34-.804 2.747-1.072 4.154-.134.804-.67 1.206-1.206 1.541-.335.201-.737.134-1.139-.067-.67-.335-1.34-.402-2.077-.335-.268 0-.402.067-.603.335-.67 1.072-1.474 2.077-2.144 3.082-.536.804-1.206 1.541-1.675 2.412-.2.47-.469.871-.67 1.34-.134.335-.2.67-.536.938-.067.067-.067.134-.134.201-.067.737-.402 1.407-.737 2.077-.402.737-.469 1.474-.536 2.278a777.437 777.437 0 0 1-.2 3.149c0 .268-.068.603-.202.871-.2.402-.2.871-.067 1.273.201.67-.067 1.206-.2 1.742-.068.268-.202.469 0 .737.066.134.066.335.066.469-.067.804-.2 1.608-.268 2.412v.268c-.067.737-.067 1.541-.2 2.278-.068.804-.202 1.608-.336 2.412-.067.737-.067 1.541-.2 2.278-.068.737-.202 1.407-.269 2.077-.067.469-.134.871-.2 1.34-.068.871-.135 1.809-.135 2.68-.067.871-.804 1.34-1.54.938-.135-.067-.336-.335-.336-.469-.067-.335 0-.737 0-1.139 0-.469.067-.938.134-1.407 0-.268-.134-.402-.335-.469a14.819 14.819 0 0 0-1.675-.335 36.408 36.408 0 0 1-3.752-.603c-.2-.067-.402 0-.536 0-.402-.067-.804-.134-1.273-.201-.536-.067-1.005-.201-1.54-.268-1.207-.201-2.413-.335-3.619-.469-.938-.134-1.876-.335-2.814-.469-.469-.067-.87-.134-1.34-.201-.67-.067-1.34-.201-2.01-.335-.67-.067-.804 0-1.072.67-.067.201-.134.402-.268.469-.469.268-.268.737-.2 1.072.2.536.133 1.072-.068 1.608-.134.335-.335.67-.335 1.139s-.938.938-1.34.67c-.134-.067-.268-.335-.2-.469.2-.67-.202-1.407.066-2.077.268-.67.402-1.34.603-2.01.134-.402.134-.804.268-1.139.402-.737.536-1.541.737-2.278.268-.938.47-1.943.737-2.881.402-1.474.804-3.015 1.34-4.489.268-.804.47-1.675.67-2.479.067-.268.201-.603.335-.871.402-.938.603-1.876.804-2.881.067-.402.268-.871.402-1.273 0-.067.067-.134.067-.201 0-.938.47-1.675.804-2.546.134-.469.201-.938.335-1.34.067-.268.067-.603.201-.871.201-.67.402-.804 1.14-.871.535-.067 1.071-.134 1.54-.134.335 0 .737-.067 1.072.134.067.067.335-.067.402-.134.201-.134 0-.268 0-.402-.268-1.005-.804-1.876-.938-2.88-.067-.67-.134-1.34-.469-1.944-.067-.134 0-.402 0-.603 0-.737.067-1.407-.2-2.144-.135-.335 0-.737 0-1.072 0-.67-.135-1.407.133-2.077.067-.2-.067-.402-.067-.603-.067-.469-.268-.87-.067-1.407.134-.402-.134-.67-.67-.804-1.407-.335-2.814-.536-4.154-1.072-.335-.134-.804-.134-1.139-.268-.268-.067-.536-.2-.804-.335-.067-.067-.2-.134-.2-.2-.135-.47-.336-1.006-.336-1.542-.067-.469 0-.938.134-1.407.201-.67.402-1.273.536-1.943.201-.87.47-1.742.603-2.68.134-.87.536-1.675.871-2.546.134-.335.268-.67.201-1.005-.067-.536.134-1.005.402-1.407.201-.335.268-.603.268-1.005 0-.402.134-.87.335-1.273.201-.468.268-.87.335-1.34.067-.803.134-1.54.402-2.345.268-.736.47-1.54.737-2.277.067-.202.067-.336.134-.537.067-.267.067-.535.201-.736.335-.603.536-1.206.47-1.876-.068-.871.334-1.541.602-2.278.268-.603.47-1.206.536-1.876v-.134c.335-.603.402-1.273.737-1.876.134-.335.201-.603.201-.871 0-.737.201-1.407.536-2.01.134-.268.268-.603.268-.871 0-.536.134-1.005.335-1.474.201-.402.335-.804.134-1.273-.134-.402 0-.871.402-1.206.335-.268.402-.67.268-1.072-.268-.603-.067-1.273.268-1.675.402-.47 1.072-.603 1.742-.402.536.134 1.005.335 1.474.469 1.005.268 1.943.737 3.015.938.536.067 1.072.402 1.608.536s1.14.2 1.675.402c.268.134.536.2.804.268.737.268 1.407.536 2.144.804l1.206.402c.067 0 .134.134.201.067.67-.067 1.273.134 1.943.335.603.134 1.14.335 1.742.469.603.134 1.14.402 1.742.536.47.067.938.402 1.474.603.134.067.335.335.536.067.201-.201.067-.402 0-.67-.134-.335-.134-.737-.2-1.072-.202-.67-.47-1.34-.67-2.01 0-.067-.135-.201-.135-.268 0-.938-.469-1.742-.804-2.613-.268-.67-.536-1.407-.469-2.144 0-.201-.067-.47-.134-.67-.134-.603-.268-1.206-.335-1.876-.067-.402.335-.871.804-.938l2.211-.201c.134 0 .268.067.402.067s.268.067.402.067c.737-.067 1.474-.201 2.211-.335.603-.067 1.206-.335 1.809-.268.469 0 .871 0 1.273-.067.804-.134 1.608-.067 2.345-.536.134-.067.335-.067.469-.067.67-.134 1.34-.268 2.01-.47.469-.133.938-.2 1.474-.334.469-.134.938-.201 1.474-.335.402-.067.804-.268 1.206-.268.938-.134 1.809-.47 2.68-.804.402-.134.804-.201 1.206-.335.536-.201 1.005-.402 1.54-.603.805-.402 1.676-.737 2.48-1.14a6.73 6.73 0 0 0 2.01-1.138c.67-.536 1.407-.804 2.144-1.273.335-.201.67-.335 1.005-.536.87-.536 1.675-1.14 2.68-1.474.536-.134.938-.67 1.34-1.072.402-.402.87-.536 1.34-.47.134 0 .268 0 .335.068.335.268.67.402 1.072.469.335.067.536.268.67.603.2.737.536 1.407.536 2.21 0 .202.067.336.134.537.335.804.603 1.54.67 2.412.067.469.2.87.335 1.273.2.603.268 1.273.536 1.876.335.87.335 1.742.737 2.546.2.469.335.938.335 1.474 0 .804.469 1.474.536 2.21.067.604.268 1.207.402 1.81s.2 1.206.402 1.742c.2.67.335 1.34.67 2.01.268.536.268 1.206.402 1.809.067.2.067.469.134.67.2.804.402 1.675.67 2.479.134.402.2.804.335 1.206.2.536.268 1.072.335 1.608.067.469.268.938.469 1.407.067.2.134.469.134.67 0 .335.134.603.2.938.135.804.202 1.54.604 2.278-.067.737.268 1.34.469 2.01.2 1.072.67 2.077.804 3.215.134.939.536 1.743.67 2.68.134.67.335 1.407.469 2.077.134.47.2.938.335 1.34a6.77 6.77 0 0 1 .469 2.01c0 .134.134.268.2.402.135.201.336.402.403.603.067.737.2 1.541.134 2.278 0 .335-.268.67-.603.938-.603.536-1.34.871-1.81 1.541a.807.807 0 0 1-.334.335c-.47.268-.938.603-1.474.871-.402.201-.737.402-1.273.47-.737.066-1.34.602-1.675 1.205-.268.402-.536.536-.938.536h-.335c-.47.067-.603.47-.335.871.335.47.469 1.005.603 1.541.134.335-.067.67-.335.938-.67.536-1.005 1.273-1.14 2.077-.066.47-.401.938-.535 1.407-.402 1.206-.737 2.412-1.14 3.685-.2.603-.468 1.206-.67 1.81-.066.066-.066.2-.133.267-.134.737-.201 1.474-.335 2.211 0 .201-.067.335-.201.536-.201.402-.268.804-.335 1.273-.067.603-.201 1.139-.268 1.675l-.201 1.407c0 .134 0 .268-.067.402-.268.335-.201.737-.268 1.139-.067.536-.268 1.072-.402 1.608-.067.201-.134.402-.067.536.268.603.268 1.273.402 1.876.067.268.335.536.335.871.067.268-.134.603-.134.938 0 .335.268.603 0 1.005-.067.067.067.268.134.402.2.402.2.737.067 1.139-.067.201-.134.402-.067.536.2.871.134 1.876.402 2.747 0 .067.067.134.067.201.067 1.005.067 2.01.2 3.015l.202 1.809c.067.469.134.938 0 1.407-.134.402-.134.804.067 1.139.134.201.067.402.067.603 0 .737.067 1.407.2 2.144.135.737.336 1.541-.267 2.211-.067.067 0 .268 0 .335.134.268.335.469.469.737.2.335-.201.603 0 1.005.2.335-.268.536-.402.804-.268.536-.737.335-1.14.335-.401 0-.736-.335-.803-.737-.134-.938-.536-1.943-.335-2.881.134-.67 0-1.407.134-2.077.067-.603 0-1.206-.134-1.809-.201-.804-.335-1.675-.268-2.479v-.804c0-.402-.134-.469-.536-.536-.67-.67-1.273-.67-1.943-.67Zm-29.48-80.868h-1.675c-.536 0-.67.2-.536.737.201.87.47 1.742.67 2.68.067.402.134.737.268 1.139.134.469.201.938.335 1.474.134.402.201.87.402 1.273.335.67.402 1.407.536 2.144.067.469.201.938.402 1.407.268.536.67.87 1.273 1.005.737.134 1.541.402 2.278.603.402.134.737.335 1.206.2.134-.066.335.068.536.135.67.2 1.273.536 1.943.67.938.268 1.876.469 2.747.938.067.067.134.067.201.067.67-.067 1.206.268 1.742.603.804.402 1.072.67.938 1.474-.134.804-.335 1.54-.536 2.278-.402 1.273-.871 2.546-1.206 3.886-.134.67-.268 1.34-.603 1.943-.402.737-.737 1.54-.737 2.412 0 .133-.067.267-.134.401-.201.67-.536 1.273-.67 1.944-.134.67-.469 1.34-.335 2.076a.508.508 0 0 1-.134.268c-.335.47-.469 1.005-.603 1.608-.201.871-.402 1.742-.737 2.546-.134.335-.335.737-.201 1.005.268.536.402 1.14.603 1.675.201.603.603 1.206.536 1.876 0 .268.134.603.268.871.469.938.603 1.943.871 2.948.335 1.206.603 2.345 1.005 3.551.134.536.469.737 1.005.737.603 0 1.273-.067 1.876-.134 1.206-.134 2.412 0 3.55-.2.604-.135 1.274-.068 1.877-.202.938-.2 1.809-.536 2.814-.469.067 0 .2-.067.268-.067.335-.067.603-.2.938-.2 1.005-.068 2.01-.403 2.948-.67.402-.135.737-.269 1.139-.269s.804-.2 1.206-.335c.268-.067.536-.536.469-.804-.134-.469-.201-1.072-.536-1.474-.603-.67-.536-1.54-.737-2.278-.201-.87-.201-1.809-.335-2.747 0-.2-.134-.469-.134-.67 0-.335.067-.67.134-1.005.134-.737.335-1.474.469-2.21 0-.068.067-.135.067-.135.469-.603.938-1.139 1.407-1.742.134-.2.402-.268.536-.402s.268-.134.402 0c.603.536 1.407.871 1.608 1.742 0 .067.067.134.134.201.536.402.737 1.005 1.072 1.541.2.335.402.67.67.938.335.335.737.67.804 1.206.067.335.2.67.335.938.134.335.268.67.603.804.335.134.469.402.603.67.268.536.536 1.14.87 1.675.269.536.537.536.805.067.134-.268.335-.268.536-.402.67-.268 1.407-.469 1.876-1.072.2-.2.402-.402.737-.402.134 0 .268-.2.469-.268.134-.067.268-.268.335-.268.536.067.737-.402 1.072-.67l1.206-1.005c.402-.268.737-.536 1.206-.737.536-.2.67-.67.469-1.273-.201-.536-.402-1.005-.536-1.54-.268-.872-.603-1.676-.47-2.614 0-.133 0-.335-.066-.469-.536-1.004-.871-2.144-1.14-3.282-.2-.737-.535-1.475-.602-2.278a6.86 6.86 0 0 0-.536-2.01c-.268-.67-.402-1.408-.536-2.144-.134-1.072-.47-2.144-.804-3.15-.268-.803-.603-1.54-.603-2.344 0-.67-.536-1.273-.335-2.01l-.067-.134c-.335-.067-.268-.402-.335-.603-.201-.938-.402-1.876-.804-2.747-.067-.134 0-.268-.067-.402-.201-.603-.268-1.273-.536-1.876a7.067 7.067 0 0 1-.402-1.608c-.067-.536-.201-.938-.335-1.474-.201-.737-.47-1.474-.603-2.211-.201-.737-.335-1.541-.536-2.278-.067-.201-.268-.47-.268-.67.067-.67-.201-1.14-.402-1.742-.201-.47-.201-1.072-.47-1.474-.401-.737-.468-1.474-.468-2.211 0-.134.067-.335 0-.47-.402-.535-.402-1.205-.603-1.875-.067-.134-.134-.268-.134-.47l-.201-.401c-.134-.804-.201-1.541-.335-2.345-.067-.536-.268-.67-.737-.402-.335.2-.67.402-.938.67a15.804 15.804 0 0 1-3.82 2.345c-.2.067-.401.2-.602.335-.67.268-1.273.804-2.01 1.072-1.407.603-2.68 1.407-4.154 1.876-.335.134-.67.268-1.005.469-1.206.603-2.48.87-3.685 1.273-.804.268-1.608.402-2.412.603-.67.2-1.34.268-1.943.536-.804.335-1.675.268-2.412.603-.67.268-1.474.402-2.211.536-1.005.134-2.01.268-3.082.335-1.54.268-2.88.335-4.22.335Zm-20.636 6.9c-.603 0-.603 0-.67.537 0 .268 0 .536-.067.804-.603 1.876-.87 3.886-1.474 5.762v.067c-.268 1.072-.469 2.077-.737 3.149-.335 1.273-.804 2.546-1.206 3.819-.067.2-.134.335-.134.536 0 .938-.536 1.809-.536 2.814-.536.737-.335 1.742-.737 2.546-.2.334-.268.803-.335 1.206l-.804 3.416c-.402 1.541-.87 3.082-1.273 4.623-.2.67-.335 1.34-.536 1.943-.268.871-.536 1.742-.737 2.613-.067.201-.134.335-.134.536 0 1.206-.469 2.278-.804 3.35-.134.402-.067.603.268.737a5.66 5.66 0 0 0 1.14.335c1.071.268 2.21.536 3.282.804.201.067.402.201.67.268.47.134.804-.2.737-.67 0-.134-.067-.335 0-.469.335-.938.335-1.876.335-2.814 0-.268 0-.536.067-.804.402-.938.47-1.943.737-2.88.134-.336.134-.738.268-1.073.201-.335.47-.603.402-1.072-.067-.268.201-.603.335-.938.067-.268.268-.536.268-.804 0-.536.134-.938.47-1.34a.707.707 0 0 0 .133-.335c0-.603.402-.87.737-1.273l.603-.603c.47-.401 1.005-.469 1.608-.335.201.068.47.269.67.201.737-.267 1.273.201 1.81.603.401.335.736.47 1.272.268.603-.2 1.206.067 1.608.603l.402.402c.134.134.268.201.402 0 .134-.134.268-.2.335-.335.335-.402.737-.469 1.273-.536.67-.067 1.206.201 1.81.47.334.133.602.267.736.602.201.47.536.603 1.005.536.268-.067.603-.067.871-.2.67-.336 1.273-.135 1.81.267.468.402 1.138.737 1.004 1.541 0 .067 0 .201.067.268.134.268.201.603.067.737-.268.335-.2.603.067.938.134.201.268.47.268.737 0 .67.067 1.34-.268 2.01-.134.335-.134.67-.067 1.072 0 .47-.134 1.005-.134 1.474.067.938-.2 1.81-.402 2.613-.268.871-.2 1.742-.335 2.68-.134.536-.134 1.14-.335 1.675-.2.67-.067 1.072.536 1.407.402.201.804.536 1.273.47.201 0 .402.066.603.2.938.536 2.01.536 3.015.737.134.067.402.067.47 0 .2-.134.334-.268.401-.469.268-.87.536-1.742.603-2.613a3.354 3.354 0 0 1 .603-1.608c.268-.335.335-.737.268-1.139-.067-.335-.067-.737.201-1.072.402-.603.47-1.206.47-1.876-.068-.737.133-1.474.602-2.01.536-.67.469-1.474.871-2.21.067-.135 0-.336 0-.47-.201-.603 0-1.206.268-1.742.067-.134.201-.268.201-.402 0-.737.335-1.34.536-1.943.268-.804.67-1.54.603-2.412 0-.402.201-.87.469-1.206.335-.469.536-.938.469-1.54 0-.269-.067-.604.067-.805.402-.468.402-1.206.938-1.608.067-.066.134-.267.067-.468-.134-.805.335-1.609 0-2.413-.067-.133.067-.267.134-.468.067-.268.201-.47.268-.737.134-.604.268-1.206.603-1.742.067-.067.067-.134.067-.201.268-1.005.335-2.077 1.005-2.948.067-.067.067-.268.134-.402.067-.268.067-.536.201-.737.268-.938 0-1.407-1.005-1.675a3.874 3.874 0 0 1-.938-.335c-.871-.335-1.675-.737-2.546-.938-1.005-.201-1.943-.536-2.881-.804-.737-.201-1.407-.47-2.077-.737-.268-.067-.536-.268-.804-.335-1.072-.335-2.21-.536-3.216-.871-1.407-.47-2.747-.938-4.22-1.273-.403-.134-.939-.067-1.274-.268-.87-.47-1.809-.737-2.814-1.005-.469-.134-.938-.335-1.407-.402-.402-.067-.804-.201-1.206-.335-.804-.268-1.608-.603-2.479-.804-1.474-.335-3.015-.402-4.422-1.14-.335.269-.469.269-.469.269ZM75.247 84.99c-.067-.335-.067-.737-.201-1.005-.402-.737-.737-1.54-1.34-2.21-.536-.604-1.005-1.207-1.206-2.01-.067-.336-.268-.67-.47-1.006-.401-.469-.602-.938-.803-1.54-.134-.336-.201-.738-.536-.939-.47-.335-.67-.804-.871-1.273-.134-.402-.402-.67-.67-.938-.335-.335-.67-.335-.938.067-.201.268-.335.603-.47.938-.267 1.14-.334 2.278-.334 3.417.067.804.469 1.474.536 2.278 0 .067.067.067.067.134.536 1.541 1.139 3.015 1.675 4.556.134.402 0 .67-.201.804-.67.47-1.34.938-2.211 1.005-.47.067-.938.268-1.34.402-.47.134-.938.335-1.407.402-1.072.134-2.144.402-3.15.603-.87.201-1.741.402-2.612.536-1.206.134-2.345.201-3.551.335-.268 0-.603.134-.871.134-.335.067-.402.201-.47.536-.066 1.34.068 2.68.336 4.02.067.201.134.47.134.67 0 .47.067.871.2 1.34.135.335.202.67.269 1.005.268 1.206.804 2.345 1.005 3.618.2.871.603 1.742.938 2.546.134.268.402.469.402.737.067.804.469 1.541.67 2.345.134.737.67 1.005 1.34 1.005l4.22.201c.269 0 .537 0 .805.067.737.067 1.474.201 2.21.268.805.067 1.609-.134 2.346.134.2.067.402 0 .67 0 .469 0 .536-.201.536-.67 0-.536.134-1.072.268-1.608.067-.268.134-.536.067-.871-.067-.469-.134-.938.067-1.34.134-.335.2-.603.2-.871 0-.335 0-.737.135-1.072a5.58 5.58 0 0 0 .2-1.474c0-.87.202-1.742.537-2.479l.2-.402c.068-.737.202-1.474.47-2.01.2-.335.402-.67.335-1.139 0-.2 0-.469.134-.603.469-.737.402-1.54.737-2.278.2-.469.067-.938.2-1.407.135-.469.537-.87.67-1.34.336-.804.604-1.675.872-2.546.067-.402.067-.737.2-1.072Zm-59.563 4.69h-.067c.067 1.14.134 2.345.201 3.484.067.871.134 1.675.134 2.546v.134c.134.804.268 1.608.47 2.412.133.536.2 1.14.468 1.675.134.268.201.536.335.804.201.469.47.804 1.072.938 1.206.201 2.345.536 3.551.804.603.134 1.273.335 1.876.469.536.134 1.005.268 1.541.335.804.134 1.675.201 2.48.402.267.067.401 0 .535-.134l1.005-1.407c0-.067.067-.067.067-.134 0-.67.335-1.206.536-1.809.268-.87.402-1.809 1.206-2.412.067-.067.067-.134.134-.2.335-.67.67-1.408 1.072-2.078.067-.134.201-.2.268-.268.536-.2.871-.603.938-1.206 0-.067.067-.134.134-.2.268-.336.47-.67.737-1.006.134-.268.134-.536-.067-.603-.469-.134-1.005-.335-1.54-.335-.403 0-.738-.2-1.006-.335-.402-.2-.536-.536-.469-1.005.201-.804.201-1.608.335-2.412l.402-3.015.067-.067c.134-.87.335-1.675.335-2.613 0-.87.335-1.675.335-2.546 0-.067.067-.134.067-.2.067-.336.134-.738.201-1.073 0-.2.067-.402.067-.603 0-.335.134-.737.067-1.005-.134-.603-.134-1.206-.134-1.809v-.268c-.067-.268-.268-.402-.536-.268a1.459 1.459 0 0 0-.536.335c-.402.67-1.005 1.273-.737 2.211.067.134 0 .335-.067.47-.134.535-.335 1.071-.402 1.607-.134.737-.134 1.541-.2 2.278 0 .134-.068.201-.068.335-.335.67-.402 1.34-.402 2.077 0 .268 0 .603-.067.871-.134.603-.268 1.206-.268 1.81 0 .468-.134 1.004-.2 1.473-.135.47-.202.938-.269 1.474s-.335 1.005-.536 1.474c-.134.201-.335.268-.67.201-.469-.067-.737-.335-.87-.67-.202-.469-.47-1.005-.403-1.54.134-1.073.47-2.078.402-3.217 0-.2 0-.402.067-.536.201-.469.268-.938.268-1.474 0-.134 0-.268.067-.402.201-.603 0-1.34.402-1.876.134-1.005.268-2.01.335-3.082.067-.804.268-1.54.536-2.278.067-.134.134-.402.067-.536-.2-.469-.067-.938-.134-1.407 0-.2-.067-.469-.2-.67-.135-.268-.403-.335-.604-.067-.134.201-.268.402-.335.603-.134.603-.268 1.206-.335 1.876 0 .536-.067 1.005-.268 1.474-.067.134-.134.402-.067.536.268.47.134.871.067 1.273-.067.67-.134 1.273-.268 1.943-.134.536-.335 1.072-.134 1.608.067.067 0 .201 0 .335-.268.804-.335 1.675-.536 2.546-.2 1.206-.402 2.412-.402 3.618 0 .737-.268 1.407-.402 2.077-.067.402-.469.603-.938.47a3.267 3.267 0 0 1-.737-.269c-.402-.134-.402-.268-.268-.67.067-.268.268-.536.201-.737-.134-.87-.067-1.608.134-2.479.134-.67.201-1.34.536-1.876.201-.335.268-.603-.067-.938-.067-.067-.134-.268-.134-.469.067-1.005.134-1.943.134-2.948v-.067c.201-.603.134-1.206 0-1.809-.067-.335-.067-.737.067-1.005.201-.402.201-.87.268-1.34l.201-1.608c.134-.67.201-1.273-.134-1.943-.402-.737-.603-.804-1.206-.134-.067.067-.2.201-.2.335-.135.67-.336 1.407-.336 2.077.067 2.077-.2 4.154-.2 6.231v.268c-.202 1.14-.336 2.278-.336 3.484 0 1.005 0 2.01-.134 3.015-.067.47-.402.67-.804.47-.2-.068-.402-.202-.536-.269-.603-.335-.67-.469-.469-1.072.134-.402.134-.804 0-1.273-.067-.134-.067-.268-.067-.402-.067-.67.268-1.34 0-2.01v-.067c.201-1.139.201-2.278.335-3.417 0-.268-.067-.536-.067-.804.067-.87.201-1.809-.067-2.68 0-.067-.067-.2 0-.268.268-.402.067-.804.134-1.273 0-.2.067-.469.134-.67 0-.87.067-1.742.067-2.613 0-.268-.268-.402-.536-.335l-.402.201c-1.139.871-1.675 2.144-2.077 3.484-.067.268-.134.603-.2.938-.604 1.273-.67 2.68-1.073 4.02a9.01 9.01 0 0 0-.335 2.345c-.067.871-.335 1.675-.402 2.546-.134 1.206-.134 2.412-.2 3.685.066-.335.066-.067.066.134Zm11.055 30.619c0-1.139-.134-1.206-1.005-1.34-.67-.067-1.34-.268-2.01-.402-.938-.201-1.809-.402-2.747-.603-.67-.134-1.407-.201-2.077-.335-1.608-.335-3.149-.737-4.757-.938-1.34-.201-2.747-.536-4.087-.804-.536-.134-.938.134-1.139.737-.134.536-.335 1.005-.469 1.541 0 .067-.067.134-.067.134-.804.201-.67.804-.67 1.407v.335c-.134.67-.134 1.34-.536 1.943-.067.134-.134.268-.134.335-.067.402.067.603.47.67.602.067 1.138.067 1.741.268a10.2 10.2 0 0 0 2.814.402c.268 0 .47 0 .737.067.67.268 1.34.268 2.01.268.335 0 .737.067 1.072.134.402.067.804.134 1.14.201.602.067 1.205 0 1.741.201 1.206.536 2.546.201 3.752.67h.067c.536-.335 1.005.067 1.474.201.201.067.402.134.603.134.402 0 .871-.067 1.273-.067.201 0 .335 0 .402-.134.067-.201.201-.402.201-.603 0-.536-.067-1.072 0-1.541.201-1.005-.067-2.077.201-2.881Zm.804-8.04c0-.737-.067-.804-.67-1.005-.134-.067-.268-.134-.335-.134-1.005-.201-2.077-.335-3.082-.469-.737-.134-1.474-.201-2.144-.335-1.273-.268-2.479-.536-3.752-.737-1.072-.201-2.21-.402-3.35-.603-.603-.134-1.206-.268-1.742-.335s-.87.067-1.005.536c-.268.804-.536 1.608-.804 2.345-.134.335-.2.737-.335 1.005-.2.335-.335.67-.469 1.005-.067.335-.335.737-.2.938.133.201.602.268.937.335a8.316 8.316 0 0 0 1.81.201c.2 0 .401-.067.602.067.134.067.268.134.47.134.602.134 1.205.268 1.741.402.201.067.402.134.603.268.268.268.603.201.871.134.201-.067.47-.134.603-.067.804.402 1.608.335 2.48.469.736.067 1.473.201 2.277.335.871.201 1.81.335 2.613.737h.134c.603.201 1.206 0 1.81 0 .535 0 .736-.201.803-.737.067-.603 0-1.206.201-1.809-.067-1.072-.469-2.01-.067-2.68Zm-15.745-5.762c0 .804.067.871.804.871.47 0 .938.268 1.474 0 .067-.067.268 0 .402.067.402.067.737.201 1.14.268.401.067.803 0 1.205.067.536.067 1.005.134 1.541.268l2.211.603h.201c.268-.201.47 0 .67.067.335.134.737.335 1.005.268.47-.067.804 0 1.206.201.737.335 1.608.402 2.412.536.402.067.804-.067 1.206.067.067 0 .268-.067.335-.201.201-.737.536-1.474.201-2.278-.2-.536-.335-1.072.201-1.541.201-.201.201-.469 0-.67-.2-.201-.469-.402-.737-.402-.67 0-1.273-.201-1.876-.335-.737-.134-1.474-.134-2.144-.402-1.139-.335-2.278-.335-3.35-.737-.134-.067-.268 0-.402 0-.268-.067-.536-.067-.804-.134a8.925 8.925 0 0 0-1.273-.335c-.804-.134-1.54-.268-2.345-.402-.603-.134-1.206-.201-1.742-.536-.268-.134-.469 0-.737.201-.2.201.067.335.067.469 0 .201.134.402.134.603.067.469-.134.804-.335 1.206-.2.469-.268.938-.536 1.407 0 .268-.2.536-.134.804Zm55.878 10.05c-.067.402-.134.737-.201 1.072 0 .134.067.402.2.469.202.134.47.201.738.201.402.067.87 0 1.273 0 .134 0 .335.268.469.067.134-.134.268-.335.335-.536.268-.67.2-1.407.067-2.077-.067-.469-.201-.938-.201-1.407 0-.469-.134-.871-.067-1.407.134-.938-.067-1.876-.335-2.814-.067-.134-.201-.335-.335-.335-.47-.067-1.005-.134-1.474-.201-.47 0-.536.067-.603.536-.067.67 0 1.34 0 2.01 0 .335.067.67-.201.938-.067.067 0 .201 0 .335.134.402.335.804.067 1.273-.067.134-.067.402 0 .603.067.536.2.871.268 1.273Zm-6.231 1.742h.335c.67 0 .87-.201.87-.871 0-.536.135-1.139-.133-1.675-.067-.067 0-.201 0-.335.2-.871.2-2.546 0-3.417-.067-.201-.067-.402 0-.536.2-.402.067-.871.134-1.273.067-.268.067-.603.134-.871.134-.335 0-.536-.402-.536-.335 0-.603 0-.938-.067-.536-.067-.938.268-.938.737 0 .268.067.536-.067.737-.335.603-.201 1.139 0 1.742 0 .067.067.134.067.201-.201.536-.402 1.139-.134 1.742-.335.536 0 1.139-.402 1.675-.134.134 0 .469.067.67 0 .201.067.469.067.67-.134.804.134 1.206.938 1.206.067.201.2.201.402.201Zm-4.757-2.881v1.608c0 1.206-.067 1.139 1.206 1.139.469 0 .67-.268.737-.737v-.335c-.201-.67-.067-1.34 0-2.01.134-1.541 0-3.082.2-4.623.068-.469-.133-1.005.269-1.407a.215.215 0 0 0-.201-.335c-.335-.067-.737-.134-1.072-.134-.938-.067-1.273.335-1.072 1.273.067.201.134.402.067.536-.268.402-.067.737-.067 1.072v1.407c0 .201-.067.469-.067.67v1.876Zm8.174 2.881h.268c.737 0 .87-.201.87-.938 0-.536 0-1.139-.133-1.675-.067-.402.067-.804.067-1.206v-.67c0-.134-.067-.335-.067-.469-.067-.67.2-1.34 0-2.01 0-.067.067-.201.067-.335 0-.067.067-.201 0-.268-.134-.268-.067-.469 0-.737.2-.67 0-.871-.67-.871h-.47c-.401.067-.535.268-.468.737.067.201.134.536 0 .737-.201.402-.134.804-.134 1.273 0 1.139-.067 2.211-.335 3.283-.201.938.134 1.876.067 2.881 0 .067.2.268.402.335.134 0 .335-.067.536-.067Zm-9.782-8.442v-.871c-.067-.402-.335-.603-.871-.603-.47 0-.536.067-.536.67 0 1.407-.201 2.747-.335 4.087 0 .268.067.603 0 .871 0 .335-.134.67-.134 1.005-.134.871-.201 1.742-.268 2.68 0 .335.134.469.469.469h.87c.47 0 .738-.268.738-.737-.067-2.546-.268-5.092.067-7.571ZM163.619 100.6a2.937 2.937 0 0 0-1.273-.469c-.335-.067-.737-.335-1.072-.469-.603-.268-1.005-.804-1.206-1.407-.067-.2-.134-.469-.134-.67-.067-.469-.201-.938-.134-1.34.067-.402.469-.67.67-1.072.268-.469.469-.87.871-1.206.268-.2.268-.469.402-.737.201-.402-.134-.536-.201-.737-.067-.2-.134-.469-.201-.67-.067-.536.134-1.139 0-1.675 0-.134.067-.402.201-.469.335-.268.268-.536.268-.87.067-.872.201-1.743.335-2.614 0-.134.067-.335.201-.402.469-.536.536-1.206.469-1.876 0-.2.067-.469.134-.67.201-.536.536-.938.469-1.54 0-.135.067-.269.134-.336.268-.268.469-.603.536-1.005.067-.335.268-.67.469-1.005.603-.737.938-1.675 1.273-2.479a9.042 9.042 0 0 1 1.005-1.742c.201-.268.134-.402-.201-.402-.134 0-.335.067-.469.134-.268.067-.536.134-.737.201-.536.134-1.072.335-1.34-.402 0-.067-.134-.134-.201-.067-.469.134-.804-.2-1.206-.335-.402-.134-.536-.402-.536-.804.067-.335.067-.67.134-1.005 0-.067 0-.2-.067-.268-.134-.536-.335-1.072-.469-1.608 0-.134-.067-.2-.067-.335.067-.804-.268-1.608-.469-2.412-.134-.536-.134-1.072-.201-1.54l-.402-2.412a92.804 92.804 0 0 0-.201-1.541c-.134-.604-.201-1.206-.335-1.877-.134-.468-.402-.602-.871-.67-.268-.066-.402.068-.536.202-.402.535-.536 1.206-.402 1.875 0 .134.134.268.134.402.067.938.134 1.877.134 2.881.067 1.474.134 2.948.201 4.355.067 1.273.268 2.546.335 3.886 0 .871.201 1.742.268 2.68 0 .201 0 .402-.134.603-.201.402-.469.47-.804.201-.201-.134-.402-.2-.603-.335-.201-.134-.402-.335-.335-.67.201-.87 0-1.608-.335-2.412-.134-.268-.134-.536-.134-.87 0-.738 0-1.475-.402-2.145-.201-.268-.201-.737-.201-1.072 0-1.139-.268-2.278-.469-3.35v-.402c0-.267-.067-.535-.268-.803-.335-.47-.469-1.072-.402-1.675.067-.805 0-1.609-.469-2.279a1.461 1.461 0 0 0-.268-.334c-.335-.201-.67-.268-1.005-.067-.335.267-.603.67-.469 1.138.335 1.541.402 3.083.737 4.556.201.804.201 1.608.335 2.412.335 1.407.268 2.881.737 4.288.067.201.067.47.067.737.067.47.067 1.005.201 1.474.134.67.402 1.273.335 1.943 0 .134.134.268.201.402.268.536.067.938-.536 1.005h-.469c-.804.134-.804.134-1.072-.536-.201-.536-.469-1.139-.603-1.675-.201-.87-.536-1.608-.804-2.412-.067-.134-.067-.268-.067-.402-.067-.402-.201-.737-.335-1.139s-.335-.804-.402-1.206c-.134-.804-.536-1.474-.804-2.21-.134-.403-.268-.738-.268-1.14a11.668 11.668 0 0 0-.335-1.474c-.201-.603-.469-1.206-.67-1.808 0-.068-.067-.135-.067-.202-.201-.937-.402-1.205-1.407-1.406-.201-.068-.402.066-.469.133-.335.738-.938 1.407-.737 2.279.134.535.268 1.139.402 1.674.201.871.469 1.742.67 2.68.067.268.067.603.134.871.134.603.335 1.14.469 1.742.134.737.268 1.474.469 2.211.067.335.201.67.335.938.201.335.268.67.268 1.072s.201.804.268 1.206c.134.536-.134 1.072-.67 1.14-.268.066-.469 0-.603-.269-.335-.737-.737-1.474-.871-2.278-.067-.536-.201-1.005-.402-1.54-.402-1.274-.804-2.547-1.005-3.887-.134-.737-.201-1.474-.469-2.144v-.067c.067-.87-.134-1.608-.469-2.344-.201-.403-.268-.805-.402-1.207-.201-.468-.268-.468-.737-.468-.402.066-.737.267-.804.67 0 .401-.067.87.067 1.272.402 1.608.871 3.216 1.273 4.824.134.536.134 1.072.268 1.541.134.536.268 1.072.335 1.608.134 1.005.268 1.943.603 2.948.067.201 0 .402 0 .536.067.201.067.402.201.536.268.268.268.536.201.871-.067.268-.067.603-.067.938.067.47.201.871.268 1.273.067.201.067.536 0 .737-.268.536-.134 1.072 0 1.541.268.871.067 1.742.134 2.613.067.603.134 1.273.268 1.876 0 .201.134.47.067.603-.201.402-.067.871-.134 1.273-.067.804-.201 1.541-.268 2.345 0 .47 0 .938-.201 1.407-.067.067.067.335.201.402.469.402.938.737 1.474 1.072.067.067.268 0 .335-.067l.603-.603c.268-.268.536-.402.871-.603.67-.402 1.273-.134 1.742.201.469.268.871.67 1.273 1.072.871.804.938.804 1.675-.2.201-.269.335-.604.67-.872.335-.2.67-.335 1.005-.268 1.206.268 2.345.737 2.814 2.01.201.47.335 1.005.402 1.474.067.201-.067.402-.134.603a3.296 3.296 0 0 1-3.149 2.278c-.67 0-1.139-.402-1.608-.737-.201-.134-.402-.335-.603-.469-.402-.335-.469-.335-.804 0-.067.067-.201.134-.201.201-.134.335-.469.47-.737.603-.603.335-1.273.402-1.943.402-.603 0-1.072-.268-1.474-.603-.134-.134-.335-.268-.469-.402-.268-.2-.536-.2-.737.067-.268.268-.67.536-.938.804-.134.134-.268.268-.268.335.067.469-.201.737-.603.871v.268c0 .603.067 1.273.067 1.876 0 .268.067.536.134.804 0 .201.134.469 0 .603-.469.871 0 1.742-.134 2.613-.067.402 0 .804-.134 1.273-.067.268-.134.603-.067 1.005.201.67-.067 1.407-.201 2.144-.067.603-.268 1.206-.268 1.809 0 1.005-.134 2.01-.268 3.015.268.603-.067 1.206-.067 1.742.067.938-.134 1.876-.268 2.814-.134 1.206-.469 2.345-.402 3.551.067.469-.067 1.005-.201 1.474-.201.871-.268 1.742.067 2.68.067.134 0 .335-.067.402-.335.469-.268.938-.268 1.474 0 .335 0 .603-.134.871-.201.469-1.206.67-1.608.469-.268-.134-.402-.469-.335-.804.134-.804.201-1.675.335-2.479.134-1.072.134-2.144.335-3.149s.134-2.01.134-3.015c0-.469.335-.804.402-1.273.067-.402-.268-.804-.201-1.206.067-.536.335-1.005.268-1.541v-.268c-.201-.402-.067-.804.201-1.139.268-.335.201-.804.134-1.139-.201-.871-.134-2.546 0-3.484.134-.871.201-1.809.335-2.68a5.424 5.424 0 0 0 0-1.474c-.067-.67.067-1.34.134-1.943.067-.67.201-1.34.335-2.01.067-.268 0-.536.201-.737.067-.067.134-.335.067-.469-.201-.335 0-.67.067-.938.067-.201.134-.402.134-.603 0-.402-.067-.871-.201-1.273-.067-.268-.335-.603-.536-.737-.871-.402-1.273-1.206-1.541-2.077-.201-.536-.268-1.005-.134-1.608.335-1.139 1.541-2.21 2.68-2.278.67-.067.67-.067.67-.67.067-.67.134-1.34.201-1.943 0-.335-.134-.67 0-1.005.201-.536.134-1.072.134-1.608 0-.938 0-1.943-.201-2.88-.134-.67-.067-1.274-.134-1.877-.067-.536-.134-1.072-.134-1.675 0-.469.134-.87.134-1.34 0-.938-.134-1.005-1.005-.603-.268.134-.536.201-.804.268-1.407.402-2.814.804-4.221 1.14-1.675.468-3.35.803-4.958 1.406-.871 0-1.608.335-2.479.536-.067 0-.134 0-.268.067-.268.067-.536.47-.804.201-.201-.134-.268-.536-.335-.737-.335-.737-.603-1.407-.737-2.21 0-.135-.134-.269-.201-.403a3.5 3.5 0 0 1-.469-1.407c0-.2-.134-.469-.201-.67-.268-.87-.536-1.742-.938-2.613-.335-.737-.536-1.608-.67-2.412-.201-.87-.536-1.675-.804-2.546-.067-.268-.201-.603-.268-.87-.134-.336-.268-.604-.335-.939-.134-.335-.201-.67-.268-1.072 0-.268-.134-.469-.402-.603-.804-.402-1.608-.737-2.479-.938a4.467 4.467 0 0 1-1.407-.602c-.402-.269-.938-.47-1.407-.67-.536-.201-.737 0-.737.535 0 .135.067.269.067.335-.201.536-.469 1.005-.67 1.608-.134.536-.536 1.072-.871 1.474a5.674 5.674 0 0 0-1.005 2.01s0 .067-.067.067c-.603.603-.737 1.474-1.072 2.278-.134.402-.469.737-.67 1.072-.268.47-.67.871-.804 1.407 0 .134-.134.268-.201.335-.737.603-.938 1.541-1.407 2.278-.134.201-.134.47-.134.67-.067.804-.067 1.541-.134 2.345 0 .134 0 .335.067.47.402.67.469 1.473.603 2.143.067.335-.067.804.067 1.206.201.603.268 1.206.67 1.742.134.201.134.335 0 .603-.201.335-.134.67-.134 1.072 0 .804.402 1.407.737 2.144.201.402.335.938.268 1.34-.134.536.134.938.201 1.407.134.536.268 1.14.268 1.675.067.871.536 1.675.402 2.546v.067c.335.536.268 1.14.402 1.675.134.402.201.871.335 1.273.201.469.201.871.201 1.34 0 .134-.067.268 0 .402.536 1.139.536 2.412.871 3.551.067.335.134.737.067 1.139-.067.201 0 .469.067.737.268.871.603 1.809.871 2.68.134.469.134.938.201 1.407.067.402.134.804.134 1.273.067.402.067.871.201 1.273.134.603.335 1.139.469 1.742.067.134.067.335.067.469 0 .67.067 1.34.268 1.943.268 1.005.536 2.01.737 3.015.201.804.268 1.675.402 2.479.201.804.067 1.608.469 2.412.134.335.134.737.201 1.072.067.737 0 1.541.201 2.211.201.603.201 1.206.536 1.809.268.469.268 1.072.335 1.608 0 .067-.335.268-.335.201-.402-.268-.603 0-.871.268s-.536.268-.737-.134c-.067-.134-.067-.335-.134-.536l-.603-2.211c-.067-.268-.134-.536-.067-.804a2.412 2.412 0 0 0-.134-1.541c-.335-.603-.201-1.273-.469-1.876-.402-.938-.335-2.01-.737-2.948-.067-.134-.067-.335-.067-.469.268-.603 0-1.139-.268-1.608-.134-.268-.335-.536-.067-.871.067-.067.067-.335 0-.402-.469-.335-.268-.871-.402-1.34-.134-.603-.268-1.139-.402-1.742s-.134-1.206-.268-1.809a8.93 8.93 0 0 1-.201-1.876c0-.402-.134-.804-.134-1.273 0-.201.067-.402.201-.603.201-.268.134-.469-.134-.469-.603-.134-.67-.469-.737-1.005-.134-.67-.067-1.34-.402-2.01-.134-.335-.067-.871-.067-1.273 0-.201.067-.469-.067-.603-.268-.335-.335-.67-.134-1.072.067-.067 0-.134 0-.268-.134-.469-.134-.938-.402-1.273-.201-.335-.201-.603-.268-.938-.067-.402-.134-.804-.268-1.206a2.688 2.688 0 0 1-.201-1.005c-.067-.603-.201-1.139-.268-1.675-.201-1.139-.603-2.278-.67-3.484-.067-.603 0-1.206-.402-1.809-.335-.603-.536-1.34-.335-2.077v-.268c-.469-.737-.469-1.608-.67-2.412-.067-.335.067-.67 0-1.005-.067-.469-.067-.938-.134-1.407-.067-.469-.335-.87-.201-1.407.067-.134-.201-.402-.335-.603-.201-.2-.201-.469-.268-.737-.067-.67-.067-1.34-.402-1.943a.572.572 0 0 1 0-.469c.067-.2.201-.402.268-.603.268-.469.268-.402-.201-.67-.871-.469-1.742-.603-2.747-.67-1.005 0-2.01-.268-3.015-.469-1.273-.268-2.479-.67-3.819-.603-.536 0-1.139-.268-1.675-.335-.536-.134-1.005-.134-1.54-.268-.202-.067-.47-.134-.67-.2-.47-.202-.537-.135-.738.267a1.262 1.262 0 0 0-.134.536v.67c-.067 1.675 0 3.283-.2 4.958-.202 1.474-.068 2.948-.135 4.422 0 .335-.134.603-.134.938 0 .201 0 .47.067.67 0 .402.134.737.067 1.072a8.651 8.651 0 0 0 0 3.216c.067.47-.134.938-.2 1.407 0 .134-.068.268-.135.402-.067 1.273-.134 2.48-.134 3.752 0 .804.067 1.675-.134 2.479-.067.201-.067.402 0 .536.201.67.201 1.34 0 2.01-.067.134 0 .335 0 .469 0 1.072-.067 2.077-.335 3.149-.067.201 0 .335.067.536 0 .134.067.335 0 .402-.2.469-.067.871 0 1.34.067.201.134.469.067.603-.2.603-.067 1.139-.134 1.742-.067.871-.134 1.809-.335 2.68-.067.201 0 .402 0 .536v2.345c0 .871 0 1.742-.2 2.613-.135.536-.202.938.133 1.407.134.134 0 .536 0 .804l-.402 1.407c-.067.335-.067.67 0 .938.134.536.134 1.072 0 1.541 0 .067-.067.067-.067.134-.067 1.206-.134 2.412-.134 3.551 0 .134.067.335.134.469.402.536.134 1.139 0 1.675-.067.201-.335.268-.536.201-.536-.268-1.005-.536-1.273-1.139-.067-.134 0-.335 0-.469-.067-.804-.134-1.608.201-2.345.067-.134.067-.335.067-.469 0-1.273-.067-2.613-.067-3.886 0-.134.067-.268.067-.335.201-.67.201-1.34.134-1.943 0-.268-.134-.536-.134-.804v-1.206c0-.067.067-.134.067-.201.067-.938.134-1.876.201-2.881 0-.134.067-.268 0-.335-.268-.469-.134-.938.067-1.34.134-.268.134-.469 0-.737-.067-.201 0-.402 0-.603v-1.474c0-.134-.067-.335-.067-.469.067-.603.067-1.139.201-1.742.067-.268 0-.536 0-.804-.067-.469.134-.938.201-1.407v-.335c-.134-.536-.134-1.072.134-1.541.067-.067.067-.268.067-.335-.134-.871-.2-1.809.067-2.68.067-.201 0-.469 0-.737 0-1.072 0-2.144.268-3.216.134-.469.134-1.072 0-1.608-.268-.938-.067-1.876-.134-2.814 0-.067.067-.2.134-.268.201-.2.201-.402.201-.67v-1.876c0-.335-.134-.603-.134-.938.067-1.072.067-2.144.268-3.216.067-.2 0-.469 0-.737 0-.804-.134-1.675.067-2.479.134-.737.134-1.407.067-2.144 0-.469-.067-.87.067-1.34.067-.402.268-.804.335-1.206.067-.402.134-.804.134-1.273v-.938c0-.335-.067-.603-.134-.938-.067-.402.067-.804.268-1.139.201-.402.402-.87.402-1.34v-.268c.67-1.139.603-2.546 1.072-3.752.402-1.072.47-2.278.737-3.484.134-.67.335-1.34.47-2.01l.2-1.004c.134-.603.268-1.14.536-1.742.201-.403.134-.872.268-1.34.134-.737.335-1.541.47-2.279.066-.334.133-.602.133-.938 0-.602-.335-1.005-.938-1.005-.268 0-.402-.133-.67-.2-1.005-.403-1.943-1.005-3.015-1.273-.804-.201-1.54-.536-2.278-.871-.804-.402-1.675-.536-2.479-.938-.402-.201-.938-.134-1.34-.402-.067-.067-.2 0-.268.067-.268.2-.536.067-.67-.134-.2-.268-.402-.47-.134-.804.067-.134.134-.335.201-.47.804-1.004 1.34-2.076 1.742-3.282.201-.603.47-1.273.804-1.81.201-.334.268-.67.268-1.071 0-.268.067-.47.268-.737.402-.47.67-.938.737-1.608.067-.268.201-.603.402-.737.402-.402.603-.804.67-1.34.067-.402.134-.804.47-1.072.133-.134.2-.402.334-.603.47-.938.938-1.876 1.206-2.881.268-.804.536-1.608 1.14-2.278.334-.402.468-1.005.602-1.541.134-.402.268-.737.47-1.072.468-.804.803-1.675 1.205-2.546.335-.67.67-1.273 1.005-1.943.402-.871.871-1.742 1.474-2.48.201-.267.335-.67.469-.937l.201-.603c.402-.737.603-1.474.871-2.278.201-.67.469-1.407 1.005-1.943.268-.268.402-.536.402-.938 0-.268.134-.469.268-.737.335-.737.938-1.34 1.005-2.144 0-.067.067-.201.134-.268s.201-.134.201-.201c.268-.938.938-1.675 1.072-2.68.067-.536.268-.67.804-.67.335 0 .67.067.938.201 1.34.737 2.814 1.206 4.221 1.742.938.335 1.876.737 2.747 1.139.536.201 1.139.335 1.675.603 1.742.737 3.551 1.34 5.36 2.01.134.067.268.067.335.134.737.536 1.675.67 2.546 1.005.938.335 1.742.737 2.68 1.072.737.268 1.407.67 2.144.87.67.135 1.273.604 2.01.67.402 0 .804.336 1.206.537.268.134.536.268.871.402 1.407.536 2.881 1.005 4.221 1.608.268.134.603.2.871.268 1.005.268 1.809.87 2.814 1.139.469.134.938.469 1.407.67a36.57 36.57 0 0 0 2.881 1.072h.067c.871.335 1.005.67.469 1.474-.268.402-.469.67-.201 1.139.134.268.067.536-.134.804-.402.67-.603 1.474-1.072 2.077-.402.469-.469 1.139-.67 1.742-.268.804-.536 1.608-1.139 2.21a.508.508 0 0 0-.134.269 92.21 92.21 0 0 1-1.206 2.546c-.335.67-.737 1.34-1.139 1.943-.067.067-.201.2-.201.268 0 .67-.469 1.139-.804 1.675-.067.2-.201.402-.201.603.067.469-.201.87-.402 1.273-.268.603-.603 1.139-.938 1.742-.134.335-.067.536.268.536.201 0 .402 0 .536-.067.469-.268.938-.402 1.474-.47.871-.133 1.608-.535 2.412-.87 1.34-.536 2.747-.938 4.087-1.474 1.541-.603 3.216-1.005 4.824-1.407.67-.134 1.206-.536 1.809-.67.67-.134 1.206-.47 1.742-.804.335-.201.603-.402 1.072-.201.201.067.603-.067.871-.201.603-.268 1.139-.603 1.809-.603a.508.508 0 0 0 .268-.134c.603-.536 1.474-.603 2.211-.804a22.24 22.24 0 0 0 1.943-.67c.469-.201.871-.47 1.407-.47.268 0 .536-.267.804-.401.067-.067.201-.201.268-.201.603.067 1.005-.268 1.474-.47.335-.133.669-.334 1.004-.468.536-.268.871-.201 1.072.335.268.469.536 1.005.603 1.54.067.738.402 1.34.603 2.078.134.603.402 1.206.67 1.809.067.2.268.469.268.67 0 .402.201.737.335 1.139.134.268.134.603.201.938.335.67.67 1.407 1.072 2.01.335.536.469 1.072.536 1.608 0 .335.134.603.268.938.469 1.005.871 2.077 1.34 3.082.067.268.067.536.067.804 0 .469.134.87.402 1.273.335.536.536 1.072.737 1.608.134.2.201.401.067.67-.067.067 0 .2 0 .268.201.469.469.87.67 1.34.067.133.134.2.201.334.268.872.536 1.81.804 2.68.335 1.14.603 2.279 1.139 3.35.067.201.134.47.134.67 0 .402.134.804.268 1.14.402.87.737 1.808 1.005 2.68.134.401.067.736-.268.937-.469.201-.938.536-1.541.536-.335 0-.737.067-1.072.201-.737.335-1.474.47-2.278.536-.603.067-1.139.335-1.742.536-.804.201-1.541.402-2.345.603-.938.134-1.608.603-2.01 1.474a31.805 31.805 0 0 1-1.541 2.546c-.401.67-.87 1.34-1.205 2.077-.268.67-.737 1.273-1.005 1.943-.536 1.206-1.072 2.412-1.474 3.618-.268.737-.335 1.608-.536 2.345-.067.268-.134.603-.201.804-.201.402-.335.804-.134 1.273.067.201 0 .536 0 .804-.067.47-.201.938-.268 1.407v.067c.469.804.469 1.876 1.407 2.48a3.582 3.582 0 0 1 1.541 2.01c.201.67.134 1.272-.201 1.942-.536.804-1.407 1.407-2.01 2.211Zm-37.855-34.304c.201-.134.402-.2.603-.402.134-.134.201-.335.268-.469l1.005-2.01c.201-.401.402-.803.603-1.273.201-.402.335-.803.536-1.139.268-.535.603-1.072.871-1.608a67.687 67.687 0 0 1 2.412-4.957c.067-.134.134-.201.201-.335.335-1.14.871-2.278 1.608-3.216.067-.134.134-.201.201-.335.536-1.273 1.139-2.613 1.675-3.886.469-1.005.938-1.943 1.407-2.881a2.38 2.38 0 0 1 .268-.603c.268-.536.536-1.005.737-1.541.335-.938.938-1.742 1.273-2.68.402-1.072 1.005-2.077 1.541-3.15.469-.937.804-1.942 1.34-2.88s.871-1.943 1.541-2.814c.067-.067.201-.268.134-.335-.067-.402.201-.603.469-.871.268-.335.201-.47-.201-.603-.402-.134-.804-.201-1.206-.402-.67-.268-1.273-.603-1.943-.871-.335-.134-.737-.335-1.072-.47-.335-.133-.67-.401-1.072-.267-.201.067-.469-.067-.603-.201-.268-.268-.67-.335-.938-.536-.938-.536-1.943-.804-3.015-1.14-.804-.2-1.608-.334-2.278-.87-.134-.134-.335-.201-.469-.268-.469-.201-.804-.47-1.407-.47-.536 0-1.005-.401-1.608-.334-.067 0-.067-.067-.134-.067-.603-.335-1.273-.603-1.876-.938-.201-.134-.402-.201-.67-.268-.804-.134-1.474-.603-2.211-1.005a4.84 4.84 0 0 0-1.34-.603c-.603-.134-1.273-.469-1.876-.536-.871-.134-1.675-.335-2.345-.871-.335-.201-.603-.335-.938-.268-.268 0-.402-.067-.67-.268s-.603-.268-.938-.402l-.804-.603h-.067c-.871-.268-1.742-.469-2.613-.737-.201-.067-.402-.134-.536-.268-.67-.536-1.541-.536-2.345-.804-.335-.067-.67-.134-.938-.335-.469-.335-.737-.268-1.072.201-.402.536-.804 1.072-.938 1.675-.134.402-.335.804-.536 1.206-.268.536-.536 1.005-.804 1.541-.201.335-.268.737-.469 1.072-.402.603-.804 1.139-.938 1.876 0 .134-.134.268-.201.335-.603.603-.804 1.474-1.139 2.21-.268.805-.469 1.676-1.273 2.145-.067.067-.134.2-.201.335-.402.87-.87 1.742-.938 2.747 0 .268-.2.469-.335.67-.2.268-.469.536-.536.87-.335 1.073-.737 2.145-1.273 3.083-.335.67-.737 1.273-1.005 1.943-.268.804-.67 1.608-1.005 2.345-.067.2-.134.402-.268.536a12.021 12.021 0 0 0-1.34 2.613c-.134.402-.335.804-.469 1.139-.2.469-.469.938-.737 1.407-.402.737-.737 1.474-1.139 2.21-.2.47-.402.939-.603 1.408-.469 1.072-1.005 2.144-1.474 3.216-.067.067-.067.134-.134.2-.134.403 0 .537.402.738.804.335 1.541.67 2.345.938.603.2 1.206.737 1.876.67.134 0 .268.067.335.134.47.2.871.469 1.34.67.603.268 1.14.603 1.742.737.536.134 1.072.268 1.541.536.268.134.67-.067.804-.335.067-.201.201-.47.201-.67 0-1.005.402-1.876.536-2.881.268-1.273.737-2.546 1.005-3.886.201-.871.402-1.675.536-2.546.134-.737.335-1.474.536-2.211.201-.603.871-.804 1.407-.536.268.134.603.2.938.2.201 0 .469.068.603.202.737.67 1.541 1.206 2.01 2.077.067.2.268.335.268.536.201.603.134 1.273.469 1.809.067.067 0 .2 0 .335.067.335.134.603.134.938-.067.469.402.938.067 1.474-.067 1.005-.402 2.01-.335 3.082.067.536.067 1.072-.268 1.54-.067.135-.067.336-.067.537 0 .268.067.536-.067.737-.402.737-.067 1.54-.268 2.278-.067.133.134.401.268.535.268.201.67.47 1.005.47.804 0 1.407.468 2.077.736 1.407.537 2.747 1.14 4.154 1.608.335.134.67.335 1.072.536.201.068.402.202.603.202.804 0 1.474.401 2.144.67 1.139.469 2.211 1.005 3.35 1.34 1.005.335 2.01.67 3.015 1.206 0 .2.201.267.469.401Zm25.862-5.293c.067-.334.067-.803.201-1.206a.81.81 0 0 1 .469-.468c.402-.135.804-.135 1.139-.202 1.139-.067 2.412.804 2.68 1.944.067.335.134.602.201.938 0 .066.134.2.201.2a.508.508 0 0 0 .268-.134c.134-.268.201-.469.067-.803-.335-.737-.335-1.474.335-2.078l.201-.2c.268-.47.67-.67 1.206-.67.536 0 1.005-.067 1.407.401.201.201.402.268.603.268.804.067 1.34.67 1.34 1.474v.47c.134.736.335 1.407.469 2.144.201 1.206.335 2.478.469 3.684.067.536.201 1.072.335 1.608.134.47.335 1.005.268 1.474-.067 1.14.268 2.144.536 3.15.201.803.737 1.071 1.474.87.536-.134 1.005-.335 1.474-.469.469-.134.937-.469 1.339-.536 1.206-.335 2.412-.737 3.685-.87.402-.068.871-.068 1.206-.269.469-.268 1.005-.335 1.541-.536.402-.134.804-.268 1.206-.335.737-.2 1.474-.335 2.211-.469.469-.134.603-.402.402-.804-.268-.737-.603-1.54-.871-2.278-.201-.469-.335-.87-.536-1.34a149.54 149.54 0 0 0-1.005-2.947c-.67-1.944-1.407-3.887-2.077-5.83-.335-.937-.603-1.875-1.072-2.813-.067-.134-.134-.268-.134-.335 0-.536-.268-.938-.469-1.407-.201-.47-.335-1.005-.536-1.474-.067-.268-.201-.47-.268-.737-.268-.737-.536-1.407-.804-2.144-.469-1.407-1.005-2.814-1.474-4.221-.201-.67-.469-1.273-.67-1.876-.134-.402-.267-.804-.468-1.14-.134-.334-.335-.67-.335-1.004-.067-.335-.268-.67-.402-1.005-.201-.335-.335-.335-.67-.201-.804.268-1.675.536-2.479.938-1.139.469-2.345.804-3.484 1.206-.469.134-.938.402-1.407.536-1.072.402-2.211.804-3.283 1.206-.335.134-.67.2-1.005.268-.536.2-1.072.335-1.608.536-.603.2-1.206.402-1.742.67-.603.268-1.139.536-1.742.737-1.541.536-3.015 1.139-4.556 1.608a289.279 289.279 0 0 0-6.968 2.479c-.402.134-.871.469-1.34.134-.134-.067-.402.067-.67.268-.536.536-.536 1.206-.804 1.809-.603 1.139-1.072 2.345-1.675 3.417-.536.87-1.139 1.742-1.474 2.747a21.91 21.91 0 0 1-.938 2.21c-.402.805-.871 1.542-1.273 2.346-.134.267-.201.602-.335.87-.201.403-.335.805-.603 1.207-.536.938-1.206 1.875-1.407 2.947a1.597 1.597 0 0 1-.402.737c-.469.536-.469.603-.134 1.206.335.603.536 1.273.603 1.943.067.67.268 1.34.536 1.943.201.603.67 1.206.67 1.876 0 .201.134.335.201.536.469 1.072.871 2.211.871 3.417 0 .47.134 1.005.402 1.34.469.67.603 1.474.737 2.211.067.47.402.67.871.47.335-.135.603-.269.938-.47.201-.067.402-.2.603-.268a1.6 1.6 0 0 0 .938-.335c.201-.134.469-.134.737-.2.134-.068.335-.068.469-.068l1.407-.402c1.072-.2 2.077-.402 3.149-.737.536-.2 1.139-.2 1.675-.402l2.01-.603c.469-.134.402-.2.268-.737-.134-.67-.268-1.407-.402-2.077-.067-.469-.134-1.005-.335-1.474-.134-.335-.268-.603-.335-.938-.134-.67-.268-1.273-.335-1.943-.067-.402-.201-.87-.268-1.273-.067-.536-.067-1.072-.201-1.54-.201-.939-.536-1.877-.804-2.814-.067-.269-.067-.537-.067-.871 0-.201.067-.402.067-.603 0-.537.134-1.072.536-1.407.402-.335.938-.47 1.541-.268.804.267 1.072.066 1.474-.738.067-.066.067-.133.134-.2.536-.805 1.273-1.407 2.345-1.273.737.067 1.474.335 1.809 1.072.201.468.469.938.67 1.407.737 1.34 1.34 2.68 1.273 4.22 0 .402.134.67.402.938.067.067.134.067.201.067s.134-.134.134-.2l-.201-1.408c-.067-.267-.268-.468-.335-.67-.067-.268.067-.536.134-.87v-.135c-.067-.401 0-.803-.201-1.138-.201-.403 0-.805-.067-1.207.134-.67.067-1.34-.067-2.076Zm-45.091-11.456c0-.603 0-1.541-.268-2.546-.268-.938-.871-1.608-1.675-2.077-.067-.067-.201 0-.268 0-.134.134-.268.268-.335.469-.536 1.072-.804 2.21-.938 3.417-.134 1.206-.603 2.345-.871 3.484-.335 1.273-.804 2.546-.938 3.886-.067.402-.067.804-.201 1.139-.134.602-.402 1.206-.603 1.808l-.603 2.613c-.268 1.005-.603 2.01-.737 3.015-.268 1.609-.938 3.082-1.139 4.69-.134.804-.402 1.541-.603 2.345-.268 1.005-.469 2.077-.87 3.082-.135.402 0 .871 0 1.34.334.134.602.201.937.335h.134c.536.067 1.072 0 1.541.201 1.005.47 2.211.268 3.216.737.335.134.67.134 1.005.201.871.134 1.809.201 2.68.335.268.067.536.134.871.134.938 0 1.742.335 2.613.47.737.133 1.608-.269 1.876-.738.335-.603.67-1.206.938-1.809.268-.603.536-1.206.871-1.742.469-.804.938-1.608 1.34-2.412.402-.737.737-1.474 1.072-2.144.67-1.206 1.273-2.412 1.943-3.618.201-.335.402-.603.603-.938.268-.335.268-.335-.067-.67-.201-.2-.402-.335-.67-.335-.335 0-.603-.133-.938-.2-.335-.068-.603-.202-.871-.269-.871-.334-1.809-.602-2.613-1.072-.335-.2-.737-.267-1.139-.401-.134-.068-.268 0-.402-.068-1.072-.402-2.077-.87-3.082-1.34-.67-.334-1.34-.736-2.01-1.005-.402-.2-.603-.401-.536-.87.067-.804.134-1.608.134-2.48.067-1.071 0-2.21.201-3.282.335-1.005.402-2.144.402-3.685Zm37.319 47.904c-.201.67.201 1.206.536 1.742a.704.704 0 0 0 .603.335c.603 0 1.206.067 1.541-.67.067-.134.201-.2.335-.335.335-.335.536-1.474.268-1.809a4.925 4.925 0 0 0-1.273-1.072c-.402-.268-.938-.134-1.34.201-.469.402-.871.871-.67 1.608Zm5.226-.067.201.804c.335 1.34 1.139 1.407 2.144.804.603-.335.804-1.005 1.005-1.54.067-.269-.134-.67-.268-.939-.268-.469-.603-.87-1.139-1.072-.134-.067-.402-.134-.536-.067-.737.201-1.34 1.14-1.407 2.01Zm5.829-.134c-.134.536.067 1.072.335 1.541.134.268.402.402.737.402.603 0 .938-.335 1.34-.737.67-.67.871-1.608.335-2.479-.469-.737-1.273-.938-2.01-.402-.469.47-.871.938-.737 1.675Zm6.365-.2c.067.401.134.803.268 1.138.134.402.402.603.871.67.67.067 1.072-.335 1.541-.737.804-.67.871-1.474.268-2.412-.201-.268-.402-.469-.804-.402-.335.067-.603.134-.938.134-.536 0-.804.268-1.005.67-.067.268-.134.603-.201.938Z" fill="#110176"/>
    <path d="m88.981 88.272-.2 1.206c-.068.402-.336.871-.269 1.273.067.603.067 1.14-.2 1.675.133 1.005-.269 1.943-.335 2.948 0 .201-.135.335-.202.536-.2.47-.134.603.268.938.402.268.871.536 1.34.804.068.067.135.067.202.134.603.67 1.474 1.072 2.21 1.541.269.201.402.402.402.737 0 .268 0 .536.067.804.067.469-.067.737-.535.871l-2.614.402h-.267c-.269 0-.47-.067-.737-.067-.403 0-.537.335-.47.67.134.938.603 1.742.871 2.613.201.536.335 1.072.67 1.608.269.469.403 1.072.403 1.608 0 .603.2 1.139.469 1.675.267.536.2.804-.201 1.206-.268.268-.737.268-1.14 0-.334-.268-.67-.469-1.004-.804-.537-.536-1.207-.871-1.81-1.273-.469-.335-.87-.67-1.34-1.005-.334-.268-.602-.536-.938-.737-.401-.268-.803-.134-1.071.067-.603.536-1.34.938-1.742 1.675-.067.134-.201.201-.268.268-.67.603-1.273 1.206-1.81 1.943-.334.402-1.071.469-1.54.067-.268-.201-.201-.536-.134-.804.134-.469.335-.871.469-1.34.067-.134.2-.335.268-.469.402-.469.536-.871.804-1.541.268-.804.402-1.608.87-2.345.202-.335.336-.804.403-1.206.134-.469-.201-.804-.67-.603-.737.335-1.541.402-2.278.536-.871.134-1.675.469-2.546.402-.201 0-.47 0-.536-.268-.134-.268 0-.402.2-.536.336-.268.336-.603.403-.938.067-.469.2-.804.67-1.072.67-.402 1.206-1.005 1.876-1.474.335-.268.804-.402 1.139-.67.402-.268.804-.536 1.139-.87.268-.269.335-.67.067-1.14-.47-.804-.938-1.608-1.407-2.345-.335-.536-.737-1.072-1.005-1.675-.067-.134-.134-.2-.201-.335-.402-.536-.402-.603.134-1.005.268-.2.536-.335.804-.469.469-.2.938-.067 1.407.134.737.268 1.407.536 2.144.804.67.268 1.34.47 2.01.737.2.067.469.134.737.067.335-.067.603-.2.737-.603.535-1.273 1.272-2.412 1.742-3.685.2-.603.736-.938 1.138-1.407.067-.067.135-.067.201-.067.268-.067.536-.134.871-.134.403 0 .135.47.269.67.066-.134.066.134.066.268Zm-1.942 11.993v.134c.535-.067 1.138-.134 1.674-.268.135 0 .202-.2.269-.335 0-.067-.135-.2-.201-.268-.738-.402-1.475-.87-2.212-1.206-.335-.134-.603-.402-.603-.67 0-.536.068-1.206.269-1.675.267-.536.401-1.005.335-1.608 0-.268 0-.536.067-.804.133-.469.267-.938.335-1.34.067-.2-.201-.67-.335-.603a.686.686 0 0 0-.335.402c-.336.67-.805 1.273-.805 2.144 0 .536-1.138 1.81-1.674 2.144-.201.134-.335.134-.47 0-.133-.134-.267-.268-.133-.536.267-.536.133-.737-.47-.938-.736-.268-1.607-.402-2.277-.804-.201-.134-.402-.2-.67-.268a.508.508 0 0 0-.268.134c-.067.067 0 .201 0 .268.067.134.134.201.2.335.403.804 1.14 1.474 1.475 2.345.134.402.536.67.737 1.005.133.402.067.871.334 1.273.134.134.067.335-.133.47-.201.133-.268 0-.402-.068-.134-.067-.335-.2-.536-.134-.335.067-.67.201-.938.335-.402.268-.804.603-1.206.871-.268.201-.536.335-.737.603-.335.402-.268.603.268.737.2.067.335.067.469 0 .67-.201 1.34-.469 2.01-.67.603-.201 1.206.067 1.54.603.135.201.201.402 0 .603a3.724 3.724 0 0 0-.602 1.139c-.268.804-.402 1.541-.871 2.278-.134.201-.201.469-.268.737-.067.201.134.268.335.201.134-.067.268-.201.402-.268.335-.268.603-.603.938-.938.535-.536.803-.536 1.407 0 .134.134.335.268.469.268.401-.134.535.067.67.402.133.201.267.469.468.603.269.268.537.469.872.67.2.134.468.268.67.402.268.134.535 0 .401-.268-.2-.536-.067-1.139-.535-1.541a.724.724 0 0 1-.201-.469c-.269-.804-.537-1.608-.805-2.345-.133-.469-.334-.938-.535-1.407-.135-.335 0-.603.133-.603.47-.134.67-.469 1.006-.737.067-.268.268-.268.469-.335ZM38.866 112.526c-.938.268-1.943 0-2.881.268a1.912 1.912 0 0 1-.871 0c-.402 0-.47-.268-.335-.603.134-.335.402-.536.737-.67.268-.067.603-.201.938-.201.268-.067.603-.067.87 0 .805.134 1.542.134 2.212-.268.402-.201.469-.335.134-.603-.536-.402-.804-.938-1.14-1.474-.334-.536-.87-.871-1.272-1.34-.268-.268-.268-.469-.134-.804.268-.67.603-.804 1.273-.469.469.201.804.469 1.005.938.067.201.2.335.469.335.268-.067.335-.268.469-.469.335-.737 0-1.474-.067-2.144-.067-.536 0-1.005-.067-1.541-.067-.469.67-.737 1.072-.469.402.201.603.536.67 1.005.067 1.273.067 2.546.2 3.819 0 .469.135 1.005.202 1.474 0 .201.2.268.402.067l.2-.201 1.81-2.211c.268-.268.469-.536.804-.804.268-.268.737-.134 1.005.134.2.268.2.536-.067.871-.536.67-1.072 1.407-1.608 2.077-.335.402-.737.804-1.072 1.273-.201.268-.134.536.2.536h1.14c.268 0 .536-.067.737-.134.402-.134.87-.134 1.273-.067.469 0 .87 0 1.34-.067h.134c.335 0 .737.134.87.469.068.134 0 .469-.133.603-.268.268-.47.536-.938.335-.335-.134-.737-.134-1.072-.067-.804.201-1.675.134-2.48.134-.267 0-.67-.067-.67.201-.066.201.135.536.336.737.737.804 1.474 1.541 2.144 2.345.402.402.737.871 1.072 1.407.134.201.067.469 0 .67-.067.201-.603.335-.804.201a2.975 2.975 0 0 1-.737-.536c-.201-.268-.47-.469-.737-.737-.804-.737-1.608-1.474-2.211-2.345a.686.686 0 0 0-.402-.335c-.134-.067-.335.335-.335.603 0 .402.067.871.067 1.273.067.737.134 1.407.134 2.144 0 .134.067.335 0 .469-.134.201-.201.536-.603.335-.201-.134-.47-.134-.67-.201-.536-.201-.47-.201-.47-.737a5.1 5.1 0 0 0-.2-1.407c-.134-.469-.134-.804 0-1.206.067-.134-.067-.268-.067-.469-.134.067-.335.067-.47.134-.133.067-.267.268-.401.402a58.854 58.854 0 0 1-1.876 2.412c-.134.201-.335.335-.67.201s-.402-.335-.402-.603c0-.536.335-.871.67-1.206.469-.603 1.005-1.139 1.34-1.809.2-.402.536-.67.87-1.072.068-.134.202-.335.135-.402-.067-.134-.268-.201-.402-.201h-.67ZM136.551 107.233c-.469 0-.938 0-1.206-.469-.067-.134-.268-.201-.402-.201-.67-.067-1.206-.402-1.742-.804-.335-.268-.536-.134-.536.268 0 .938.201 1.876.536 2.747.134.268.268.536.335.871.134.268.201.603.268.871.201.536-.067.938-.67 1.005-1.005.067-1.541-.402-1.541-1.474 0-.536-.067-1.005-.268-1.474-.201-.536-.402-1.139-.402-1.742 0-.134-.067-.268-.134-.402-.067-.335-.134-.603-.201-.938-.067-.201-.067-.402-.134-.603-.335-.603-.603-.603-.938-.067a24.913 24.913 0 0 0-1.273 2.278c-.402.67-.804 1.34-1.273 2.01-.201.268-.737.402-1.072.268-.268-.134-.335-.335-.268-.536.067-.268.201-.536.402-.737.469-.469.804-1.005 1.072-1.541s.67-1.072.938-1.608c.067-.134.201-.268.201-.402s0-.335-.067-.402c-.067-.201-.201 0-.335 0-.603.134-1.206.335-1.809.536-.134.067-.268.201-.402.268-.402.335-.938.335-1.407.469-.268.067-.603-.067-.938-.201-.201-.067-.268-.335-.134-.536.067-.134.201-.201.268-.268.737-.268 1.34-.871 2.144-.871.067 0 .134 0 .134-.067.268-.201.737-.335.804-.536.067-.335-.402-.402-.67-.536-.536-.335-1.139-.603-1.675-.938-.134-.067-.268-.201-.335-.268-.134-.134-.335-.201-.201-.469.134-.201.268-.402.603-.335.469.134.938.134 1.34.402.268.134.536.268.871.402.469.201.871.402 1.34.67.335.134.67.335 1.005.469.469.201.737 0 .804-.469 0-.201.067-.402 0-.536-.268-.603 0-1.273-.469-1.809 0-.938-.469-1.742-.67-2.68-.134-.737-.335-1.474-.536-2.21-.067-.269.268-.537.536-.47.536.134.938.335 1.072.871.201.67.335 1.34.469 1.943.134.67.201 1.273.335 1.943.067.201.201.402.335.47.134 0 .402-.135.536-.269l.804-1.407c.268-.469.603-.737 1.139-.603.134 0 .402.067.469.201a.515.515 0 0 1-.067.67c-.268.268-.469.603-.67.871l-1.206 2.211c-.201.402-.067.603.402.536a5.562 5.562 0 0 0 1.407-.402c1.273-.469 2.546-.804 3.819-1.206.134-.067.335 0 .469 0 .134 0 .201.067.134.268-.134.603-.469.938-1.072 1.139-.536.201-1.072.268-1.541.469-1.072.402-2.144.737-3.216 1.139-.134.067-.335.201-.335.335s.134.335.268.402a15 15 0 0 0 2.68 1.474c.536.201 1.005.603 1.474.871.335.201.737.335 1.072.603.335.201.335.402-.067.536 0-.067-.335 0-.603 0ZM160.336 32.462c-.335-.067-.737-.067-1.072-.134-1.072-.201-1.608-1.072-2.077-1.943-.268-.603-.335-1.273-.469-1.876-.067-.335 0-.67.201-1.005.067-.067.134-.134.134-.201.067-.871.804-1.206 1.34-1.742.134-.134.268-.268.536-.067.335.268.804.134 1.139.536.268.402.268.536-.067.804s-.737.536-1.072.804c-.268.268-.536.536-.603.938-.067.335-.201.737-.134 1.072.134.402.469.67.737 1.005.134.134.335.268.603.134.335-.134.737-.134 1.072-.201.804-.134 1.273-.737 1.742-1.273.469-.536.737-1.206 1.005-1.876.335-.871.335-1.81-.134-2.68-.469-.737-.871-1.541-1.742-1.876-.335-.134-.67-.268-.938-.335-1.608-.335-3.149.067-4.489 1.005-.268.2-.469.402-.737.603-.469.335-.67.938-.938 1.407-.335.536-.67 1.139-.871 1.742-.134.469-.469.87-.201 1.407.067.134-.067.335-.134.536-.268.603-.134 1.139.134 1.742.536 1.005 1.072 2.01 1.809 2.88.402.47.938.805 1.407 1.207.268.268.469.469.335.603-.268.2-.268.737-.804.67-.536 0-.938-.335-1.34-.67-.67-.536-1.206-1.273-1.608-2.01-.268-.47-.469-.938-.804-1.34-.335-.402-.402-.938-.603-1.474-.134-.268-.201-.603-.268-.938-.067-.201-.067-.47-.067-.67 0-.335.134-.67.134-1.005-.067-1.943.67-3.551 2.01-4.891.134-.134.268-.335.402-.47.201-.334.402-.602.804-.67.268-.066.469-.401.67-.535.737-.603 1.608-.737 2.479-.871.402-.067.804-.201 1.206 0 .134.067.268 0 .402-.067.268-.201.536-.067.737.067.335.268.67.335 1.005.268a1.457 1.457 0 0 1 1.34.536c.335.335.67.737.938 1.072v.067c.804.268.871 1.072 1.206 1.608.201.335.402.737.469 1.072.134.536.268 1.072 0 1.675-.402.804-.603 1.742-.938 2.546-.201.603-.536 1.139-1.139 1.474-.201.134-.469.335-.603.536-.469.603-1.072.737-1.742.737 0 .067-.201.067-.402.067ZM29.017 27.437c-.067 1.005.067 1.876.603 2.68.335.469.737.938 1.273 1.34.335.2.804.335 1.206.335.2 0 .402-.268.603-.47.469-.468.536-1.071.67-1.674.067-.402-.067-.737-.335-1.005-.402-.47-.737-.871-1.072-1.34-.067-.134-.134-.134 0-.201.268-.067.469-.201.67-.335.335-.201.603-.201.87-.067.872.469 1.475 1.072 1.609 2.144.067.536.134 1.072.134 1.608 0 .2 0 .402-.067.536-.67 1.005-1.34 1.943-2.68 2.077-.47.067-.871.067-1.273-.134-.201-.134-.536 0-.804-.067-.402-.134-.871-.335-1.14-.737-.133-.134-.2-.402-.334-.402-.804-.268-1.005-1.072-1.407-1.608a1.6 1.6 0 0 1-.335-.938c.067-.536-.335-1.072.067-1.608-.201-.47 0-.938.067-1.34.067-.737.335-1.273.737-1.876.402-.603 1.005-.938 1.608-1.34 1.206-.737 2.546-.871 3.886-.871.804 0 1.608.134 2.412.335.469.067.87.268 1.273.603.804.67 1.675 1.273 2.144 2.278.402.737 1.005 1.34 1.474 2.077.2.335.402.67.536 1.005.2.469.067.67-.268.87-.67.47-1.407.135-1.675-.401-.268-.67-.67-1.34-1.005-2.01-.201-.335-.402-.67-.67-.938-.603-.67-1.14-1.34-1.742-1.943-.871-.737-1.876-1.14-3.082-.737-.268.067-.536.067-.804.067-.737.134-1.34.536-1.876.938a1.733 1.733 0 0 0-.737.938c-.402.67-.67 1.474-.536 2.21ZM80.405 27.638c.067-.335.201-.536.201-.804.134-.804-.2-1.608-.603-2.278-.401-.603-.803-1.14-1.34-1.675-.334-.335-.803-.603-1.272-.871-.403-.201-.604-.536-.604-.938 0-.335-.067-.603-.469-.737-.133-.067-.2-.201-.334-.335.134-.134.335-.335.469-.402.401-.134.803-.067 1.138-.201.604-.134 1.207-.268 1.743-.47 1.272-.602 2.21-1.674 2.88-2.88.268-.469.536-.938.804-1.34.201-.268.402-.268.536.067.067.268.134.603.067.938-.2.737-.536 1.474-1.072 2.077-.335.469-.603.938-1.072 1.34-.536.469-1.072.87-1.742.938a1.08 1.08 0 0 0-.603.2c-.535.202-.603.403-.133.872.133.134.335.268.535.335.402.268.737.67 1.005 1.072.402.67.804 1.34 1.273 2.01.268.469.402.469.804.134.804-.67 1.675-1.072 2.613-1.407.536-.201.536-.335.268-.804-.335-.47-.804-.871-.804-1.541a.508.508 0 0 0-.134-.268c-.469-.536-.536-1.14-.469-1.809 0-.268-.134-.536-.134-.737-.067-.871.067-1.608.47-2.345.066-.134.133-.268.267-.402.268-.268.67-.201.871.134.201.335.201.737.134 1.072 0 .134-.067.268-.134.402-.603.871-.2 1.809.067 2.68.201.804.871 1.407 1.273 2.144.268.402.67.603 1.14.603h.133c.67.2.737.938 1.14 1.34.133.134.133.469.133.67 0 .134-.134.335-.268.469-.134.2-.335.067-.469 0-.536-.067-1.072-.067-1.54-.268-.068 0-.135-.067-.202 0-.938.469-2.01.536-2.88.938-.604.268-1.274.67-1.609 1.34-.134.2-.134.469-.2.67-.135.536-.269 1.072-.47 1.54-.2.403-.603.403-.737 0-.469-.468-.536-1.004-.67-1.473ZM163.619 100.6c.603.067 1.072.469 1.139 1.072v.871c0 .335.067.67.201 1.005.134.469.335 1.005.268 1.541-.067 1.139.268 2.211.536 3.283 0 .067.067.067.067.134 0 .871.201 1.742.402 2.546.067.402.134.804.134 1.139.134.804.335 1.675.335 2.479 0 .67.201 1.34.335 2.01.134.871.402 1.809.469 2.747.067.804.268 1.541.402 2.345 0 .201.067.335.067.536.134.938.201 1.943.335 2.881.067.603.201 1.206.268 1.809.134 1.139.335 2.211.469 3.35.067.335.268.67.335 1.005.134.335-.067.737-.402.871-.067.067-.268.067-.335 0-.536-.469-.938-.938-.938-1.675 0-.201-.067-.469-.134-.67-.067-.268-.268-.469-.067-.737 0 0 .067-.134 0-.134-.134-.603-.335-1.206-.469-1.809-.067-.201-.067-.402-.134-.603l-.402-1.809c-.134-.536-.201-1.072 0-1.675a.941.941 0 0 0-.134-.938c-.335-.335-.402-.804-.402-1.34 0-.603-.201-1.206-.268-1.876-.067-.335 0-.67 0-1.072s0-.737-.268-1.072c-.201-.335-.268-.67-.268-1.072s-.067-.737 0-1.139-.201-.737-.268-1.139c-.067-.201 0-.402 0-.536-.067-.201-.067-.469-.201-.67-.335-.469-.469-1.072-.469-1.608 0-.67 0-1.407-.134-2.077-.067-.268-.201-.536 0-.804.067-.067.067-.201 0-.335-.335-.67-.268-1.407-.402-2.077 0-.134-.067-.268-.067-.402.134-.402 0-.737-.134-1.139-.201-.603-.335-1.206-.469-1.809-.067-.134 0-.402.067-.536.134-.268.335-.536.536-.871ZM128.704 28.099c-.138.841-.277 1.676-.409 2.517-.092.585-.184 1.17-.257 1.755-.059.506-.277.993-.072 1.532.052.132-.172.355-.238.552-.277.809-.461 1.637-.488 2.492 0 .15-.019.308-.059.46-.204.775-.389 1.545-.415 2.353-.02.592-.442.927-.844 1.249-.225.184-.64.066-.719-.224-.152-.578-.501-1.143-.251-1.794.093-.237.158-.486.211-.736.198-.908-.099-1.492-1.009-1.926-.507-.244-1.068-.388-1.563-.651-.468-.25-.804-.066-1.134.204-.402.328-.804.657-1.173 1.025-.192.19-.39.23-.64.23-.594 0-.871-.434-.547-.933.402-.625.87-1.216 1.325-1.808.237-.309.488-.605.739-.9.375-.441.857-.75 1.358-1.033.178-.098.409-.197.495-.355.408-.73 1.147-1.163 1.602-1.86.27-.42.692-.723.996-1.15.448-.631 1.035-1.17 1.562-1.749.053-.059.106-.125.172-.164.237-.138.475-.427.765-.256.303.184.62.414.56.867-.013.105 0 .21 0 .316h.033v-.013Zm-3.567 6.967c.376-.006.475-.138.527-.506.093-.657.178-1.32.33-1.965.066-.263.046-.42-.158-.579-.244-.184-.429-.098-.613.099-.409.434-.838.848-1.392 1.104-.092.04-.165.132-.231.21-.244.277-.217.514.112.743.396.29.792.572 1.201.842.079.052.197.052.23.06l-.006-.008ZM63.733 44.578c-.112-.414.158-.887 0-1.373-.132-.415-.204-.855-.363-1.256-.099-.243-.132-.414.013-.65.192-.323.284-.652.218-1.072-.072-.467 0-.993.152-1.453.171-.546.092-1.085.138-1.63.033-.408-.112-.835.132-1.236.046-.079-.033-.243-.06-.368-.078-.362.02-.598.264-.789.277-.217.561-.177.785.02.303.27.574.591.831.913.547.684 1.081 1.38 1.616 2.078.316.407.613.828.93 1.236.164.21.362.348.665.341.495-.013.785.316.844.763.132.992.673 1.716 1.352 2.406.37.381.607.887.91 1.334a.788.788 0 0 1 .053.822c-.257.513-.686.585-1.114.17-.356-.341-.666-.729-.97-1.117-.37-.466-.679-.98-1.24-1.268-.112-.06-.21-.237-.237-.375-.06-.322-.35-.355-.534-.342-.376.02-.745.21-1.128.224-.507.02-.857.46-1.398.407-.263-.026-.507.408-.415.73.112.414-.073.802-.033 1.203.04.368.099.736.02 1.124-.112.539-.402.999-.719.999-.343 0-.692-.526-.712-1.078-.007-.237 0-.473 0-.776v.013Zm3.191-4.917a8.53 8.53 0 0 1-.171-.263c-.336-.519-.66-1.038-1.009-1.544-.026-.033-.21-.027-.244.02-.25.341-.184.742-.184 1.13 0 .316.323.625.032.966-.013.014.225.316.277.296.356-.138.792-.02 1.088-.335.066-.072.132-.158.218-.263l-.007-.007Z" fill="#110176"/>
    <path d="m129.839 30.176 1.266.335c.152.04.297.092.442.138.231.072.508.158.633-.092.059-.118-.086-.348-.158-.52-.211-.492-.442-.979-.64-1.478-.092-.244.138-.697.356-.809.27-.138.831.053 1.022.375.132.223.211.473.343.69.125.217.363.21.462-.026.132-.329.27-.677.31-1.026.046-.427.277-.71.553-.992.198-.204.416-.217.647-.125.237.092.27.315.23.532-.092.5-.211 1-.316 1.5-.02.11-.059.23-.04.334.04.184.119.382.37.191.23-.184.461-.375.685-.565.139-.119.258-.323.416-.355.29-.06.666-.119.877.013.211.131.066.512-.106.697a27.867 27.867 0 0 1-1.727 1.702c-.165.145-.356.237-.304.48.053.243.244.283.469.329.652.131 1.299.289 1.945.466.343.092.6.474.541.724-.099.374-.324.565-.739.525-.382-.04-.752-.15-1.134-.23-.125-.026-.251-.072-.376-.065-.323.013-.448.217-.277.519.237.427.521.828.778 1.242.079.125.158.263.205.401.052.158.145.388.072.487a1.557 1.557 0 0 1-.587.486c-.184.086-.395 0-.554-.19-.316-.388-.646-.77-1.002-1.131-.27-.276-.574-.204-.798.138-.224.342-.442.697-.692 1.019-.112.144-.238.414-.488.282-.231-.118-.449-.315-.376-.624.066-.27.185-.532.264-.802.085-.27.118-.559.244-.808.125-.25-.053-.323-.172-.434-.191-.191-.264.046-.356.131-.428.42-1.035.447-1.55.657-.105.047-.389-.144-.474-.295-.086-.158-.053-.355.198-.5.375-.217.699-.532 1.028-.822.172-.15.396-.309.304-.585-.093-.276-.35-.236-.581-.289-.547-.125-1.081-.302-1.622-.467-.026-.006-.053-.013-.072-.032-.198-.165-.482-.323-.37-.625.099-.27.317-.48.666-.447h.159c0-.02.013-.04.013-.06h.013Z" fill="#265BF6"/>
    <path d="M161.023 42.508c.758-.283 1.358.348 2.024.71.429.236.706 1.393.541 1.886a5.547 5.547 0 0 1-.277.717c-.224.486-.198.605.304.776.501.17.962.394 1.299.815.145.177.296.374.362.591.132.44.231.894.284 1.348.02.177-.073.407-.191.552-.211.276-.35.552-.416.9-.046.23-.29.415-.428.625-.561.861-1.313 1.44-2.335 1.663-.264.06-.494.263-.738.408-.416.25-.838.19-1.049-.224-.376-.756-.732-1.518-.831-2.386-.066-.572-.283-1.144-.501-1.69a8.963 8.963 0 0 1-.606-2.451c-.06-.572-.304-1.137-.515-1.683-.303-.782-.31-.828.376-1.38.059-.047.132-.1.165-.165.461-.973 1.332-1.025 2.242-1.012h.29Zm1.662 5.285c-.673.197-1.392.381-2.097.624-.152.053-.343.336-.323.474.125.703.29 1.4.494 2.09.191.65.587.894 1.22.65.442-.17.923-.46 1.187-.834.396-.552.772-1.15.884-1.867.066-.434.039-.73-.323-.887-.304-.132-.647-.158-1.049-.25h.007Zm-.211-3.24c-.119-.139-.211-.323-.363-.389-.369-.164-.791-.42-1.147-.361-.587.098-1.22.223-1.688.677-.119.118-.145.217-.08.4.172.48.271.987.403 1.48.105.407.257.473.679.29.811-.356 1.371-.993 1.873-1.697.092-.125.191-.243.323-.4ZM31.052 60.17c-.198-1.011.204-1.938.653-2.891.56-1.197 1.569-1.802 2.657-2.334.435-.21.923-.316 1.391-.447a.914.914 0 0 1 .462 0c.468.138.936.29 1.391.46.455.171.64.611.811 1 .152.341-.323.795-.712.703-.5-.119-1.009-.244-1.477-.44-.916-.395-1.299-.369-1.945.295-.475.486-.923.993-1.398 1.473-.224.23-.277.48-.237.788.059.408.105.822-.113 1.223a.74.74 0 0 0-.033.532c.152.46.258.987.554 1.342.535.644 1.003 1.413 1.873 1.689.448.145.87.243 1.405.105.593-.151 1.14-.335 1.622-.677.277-.197.587-.23.897-.217.336.013.5.355.29.618-.159.197-.383.348-.594.486-.19.125-.448.165-.62.303-.725.585-1.569.802-2.479.776-.805-.02-1.602-.08-2.216-.724-.428-.447-.969-.769-1.338-1.308-.495-.73-.778-1.498-.838-2.366 0-.105-.02-.21-.033-.381l.027-.007Z" fill="#110176"/>
    <path d="M45.025 58.035c.046.341-.185.624-.567.71-.324.072-.653.15-.977.25-.455.144-.514.288-.395.768.033.125.086.283.04.382-.179.361-.047.723-.04 1.084 0 .132.026.263 0 .388-.08.454-.422.598-.791.335-.231-.164-.455-.315-.488-.664-.047-.46-.172-.913-.27-1.367-.1-.453-.43-.644-.858-.42-.389.197-.864.19-1.187.525-.033.04-.198.02-.237-.033-.258-.289-.495-.591-.732-.894-.159-.203.06-.736.369-.795.56-.112 1.029-.467 1.622-.506.488-.033.666-.493.495-.98-.172-.486-.231-.953.118-1.4.178-.23.37-.276.554-.059.112.138.198.302.277.46.119.257.224.52.337.776.343.756.474.809 1.24.552.533-.177 1.41.342 1.483.881l.007.007Z" fill="#265BF6"/>
  </g>
  <defs>
    <clipPath id="a">
      <path d="M0 0h181v134H0z" fill="#fff"/>
    </clipPath>
  </defs>
</svg>