<?xml version="1.0" encoding="utf-8"?>
<svg xmlns="http://www.w3.org/2000/svg" fill="none" height="160" width="160">
  <g clip-path="url(#a)">
    <path d="m96.559 38.607 1.818 1.41 1.902.913 2.474 2.154 1.326 2.488 1.153 3.151.497 1.576 1.818-.17 1.733.334.333-4.477-1.654-5.056-3.467-3.734-2.891-1.99-2.394-1.076-2.48 1.077-.412 1.91.244 1.49Z" fill="#110176"/>
    <path d="m63.69 96.388 3.055-12.106s3.88-5.639 3.964-5.968c.084-.329 4.297-3.066 4.297-3.066l5.037-1.491 3.715.334 3.14.663 1.897.913.333 3.15 1.818 2.155 3.219.498s1.733-.663 2.394-1.077c.66-.414 2.394-2.902 2.394-2.902l1.982-4.641 1.982-1.411 6.03-1.66 5.037.084 6.527 1.49 4.128.913-1.321 15.67-11.067.664 4.296 15.002 1.982 6.796.333 3.979-25.358 6.88L81.444 97.3l-2.976 5.719-14.783-6.631h.005Z" fill="#265BF6"/>
    <path d="M62.88 7.166c-.864.05-1.728.1-2.592.14-.462.02-.924.01-1.381-.01-.541-.025-1.078-.145-1.62-.21-.173-.02-.372-.055-.53 0-.448.16-.88.13-1.332.025-.134-.03-.293.065-.442.07-.984.045-1.967.09-2.956.12-.228.004-.462-.07-.69-.09-.219-.02-.452-.07-.651-.01-.526.16-1.063.05-1.585.12-.541.07-1.078-.05-1.614-.01-.273.02-.546-.055-.815.094-.094.055-.263-.035-.397-.04-.333-.015-.685-.094-.993-.015-.517.135-1.024.075-1.53.045a3.055 3.055 0 0 0-.428 0c-.367.03-.74-.025-1.112-.045-.075 0-.154-.05-.229-.035-.998.2-1.997.135-2.995.035-.293.19-.581-.005-.83-.08-.382-.11-.715-.09-1.087.02-.373.105-.775.12-1.158.195-.412.08-.804.04-1.217-.04-.372-.075-.78.02-1.172.04-.189.01-.383 0-.571 0H31.85c-.075 0-.164.06-.224.035-.496-.21-1.028-.145-1.525-.09-2.136.23-4.276.04-6.412.1-.587.015-.616-.05-.656-.633-.045-.668.223-1.242.566-1.76.452-.683.989-1.312 1.466-1.975.327-.458.625-.942.918-1.426.055-.09.03-.229.04-.349.04-.493.293-.748.785-.748.412 0 .82.065 1.232.075.596.015 1.192-.01 1.788.01.308.01.636-.095.93.1.029.02.079.015.118.005.855-.24 1.739-.01 2.593-.125C34.175.62 34.88.6 35.585.614c.825.02 1.66.01 2.474.135.81.12 1.585-.025 2.37-.13.099-.014.208-.034.297 0 .577.21 1.178.09 1.764.11.536.02 1.073.01 1.61 0 .193 0 .382-.065.576-.085.173-.02.357-.05.531-.02.86.145 2.315.15 3.11 0 .114-.02.238-.014.357-.01.785.05 1.58-.114 2.36.115a.12.12 0 0 0 .06 0c.839-.309 1.668.085 2.513.015.85-.07 1.709-.01 2.563-.02.134 0 .268-.04.402-.07.055-.01.124-.06.17-.04.362.145.72-.024 1.077-.01.358.015.715 0 1.073.02.492.02.988.06 1.48.075.239.005.507-.11.7-.025.184.08.284.354.428.534.397.498.854.962 1.018 1.615.02.08.114.135.169.205.393.518.87.952 1.157 1.565.224.469.696.823 1.059 1.222.094.104.218.184.283.304.05.09.064.254.014.324-.297.424-.645.778-1.231.748-.358-.015-.716 0-1.073 0v-.025h-.015ZM43.425 3.212c0-.359.005-.718 0-1.077-.005-.299-.194-.528-.427-.543-.274-.015-.596.21-.636.468-.05.33-.085.659-.13.993-.079.603-.153 1.201-.243 1.8-.044.289-.337.408-.586.234a.54.54 0 0 1-.248-.509c.054-.683.114-1.36.342-2.014.06-.165.105-.334.135-.509.03-.18-.05-.344-.229-.359-.293-.024-.6-.034-.89.02-.223.04-.411.165-.451.469-.04.324-.179.633-.288.947-.13.364-.422.663-.422 1.087 0 .075-.105.165-.18.23-.138.13-.506.17-.6.05-.114-.14-.114-.31-.035-.474.064-.14.124-.284.184-.429.179-.454.367-.902.526-1.361.12-.34 0-.549-.343-.544-.894.015-.82-.194-1.197.688-.054.125-.094.27-.178.37-.259.294-.348.648-.423 1.012-.034.17-.08.344-.149.503-.06.14-.149.28-.253.394-.144.16-.497.204-.656.085-.213-.16-.109-.334-.02-.524.269-.578.298-1.251.706-1.78.04-.05.015-.154.02-.234.005-.105.06-.244.01-.304a.6.6 0 0 0-.333-.205c-.194-.034-.398.005-.596-.015-.298-.03-.482.095-.631.34-.214.349-.497.658-.67 1.027-.19.398-.492.728-.577 1.206-.06.34-.348.648-.561.942-.124.17-.497.09-.542-.114-.05-.225-.099-.469.065-.683.566-.733.685-1.7 1.247-2.433.114-.155 0-.235-.105-.255-.193-.035-.397-.01-.59-.03-.487-.054-.85.055-.96.614-.024.124-.143.23-.213.344-.104.164-.223.324-.298.498-.268.629-.507 1.267-.785 1.885-.11.244-.278.469-.447.683-.064.08-.199.155-.298.15-.432-.025-.76-.494-.591-.888.243-.573.536-1.127.81-1.685.173-.35.377-.688.536-1.042.114-.25.025-.519-.179-.544-.268-.03-.551-.084-.76.19-.213.28-.521.513-.655.828-.383.882-1.113 1.56-1.371 2.507-.04.15-.15.275-.21.42-.084.199-.242.273-.431.219-.204-.06-.427-.135-.576-.27-.145-.134-.274-.339-.115-.578.17-.264.298-.548.467-.813.219-.344.477-.668.666-1.027.184-.344.343-.693.61-.987.2-.22.085-.474-.218-.494a8.915 8.915 0 0 0-.894 0c-.258.005-.437.145-.536.38-.085.194-.124.423-.249.588-.471.623-.978 1.221-1.46 1.84-.397.508-.78 1.027-1.162 1.545-.115.155-.025.284.188.31.348.04.7.129 1.044.104.367-.03.725.045 1.087.025 1.242-.065 2.489.1 3.73-.125.428-.075.865-.09 1.282-.184a.614.614 0 0 1 .442.035c.408.18.86.224 1.272.114.234-.065.402-.025.611.025.263.065.536.125.805.12.387-.005.78-.06 1.167-.115.209-.03.447-.065.601-.184.234-.185.452-.205.71-.12.254.085.512.105.775.105.17 0 .338.045.507.07.219.03.432.064.646.1.74.119 1.44-.1 2.156-.16.367-.03.755-.21 1.087-.13.467.115.895.025 1.342 0 .223-.015.457.085.68.065.224-.025.442-.135.66-.21.02-.004.04 0 .06 0 .418.205.875.175 1.312.27.213.045.328.045.452-.105.134-.16.258-.21.452-.065.213.165.506.2.735.11.293-.12.581-.08.874-.1.477-.03.954-.06 1.436-.085.11-.005.223.02.333.035.303.04.61.14.904.11.238-.025.447-.08.68.02.11.05.273.025.398-.01.352-.1.69-.105 1.038.015.124.045.278.05.407.03.442-.065.88-.17 1.321-.22.229-.024.467.02.7.04.115.01.23.065.343.06.338-.02.661-.085.994.105.139.08.378-.025.576-.035.333-.02.68-.1.994-.035.67.135 1.326.11 1.992.03.119-.015.228 0 .352-.085.12-.08.363-.09.482-.02.353.21.63.015.909-.12.189-.09.224-.269.085-.448-.17-.22-.368-.419-.497-.653-.527-.967-1.307-1.745-1.883-2.678-.084-.14-.268-.224-.422-.304-.065-.03-.199-.01-.248.045-.085.09-.204.254-.17.324.13.27.145.574.443.793.323.234.506.648.457 1.082-.02.15-.164.304-.293.409-.04.03-.229-.095-.318-.18-.095-.09-.164-.214-.234-.334-.313-.538-.616-1.087-.934-1.62-.178-.304-.417-.529-.814-.464a.833.833 0 0 1-.293-.02c-.09-.02-.164-.105-.204.06-.02.085-.13.165 0 .244.243.155.278.43.353.658.169.514.298 1.047.432 1.576.035.13.09.29.05.404a.936.936 0 0 1-.303.404c-.04.03-.224-.11-.318-.195a.625.625 0 0 1-.19-.289c-.257-.907-.76-1.705-1.077-2.583-.065-.174-.174-.254-.358-.249-.318 0-.635-.01-.953 0-.303.015-.413.175-.353.479.03.154.104.304.104.453 0 .3.114.524.303.743.333.394.318 1.032-.01 1.441-.104.13-.273.14-.337-.01-.234-.553-.502-1.107-.646-1.685-.114-.444-.253-.863-.487-1.246-.075-.12-.229-.28-.338-.27-.343.025-.685.1-1.013.2-.13.04-.238.164-.06.354.363.379.338.907.422 1.376.035.204-.139.484-.288.668-.183.23-.506.174-.626-.095a4.177 4.177 0 0 1-.248-.778c-.124-.508-.233-1.022-.472-1.5-.094-.19-.213-.255-.412-.265-.636-.03-.705.04-.626.708.015.14.03.28.04.42.035.518.104 1.041.03 1.56a.496.496 0 0 1-.428.424c-.273.025-.382-.11-.417-.38-.06-.443-.169-.882-.218-1.326-.035-.314 0-.638-.01-.957 0-.214-.12-.329-.333-.329-.318 0-.636-.01-.954 0-.273.01-.442.145-.492.414-.06.324-.094.658-.124.992-.02.22.02.444-.01.658-.024.19-.07.4-.178.544-.075.094-.284.144-.413.12-.09-.016-.223-.195-.218-.295.01-.309-.005-.668.144-.917.208-.34-.204-.613.015-.908.01-.015.024-.034.03-.05.099-.413-.07-.663-.487-.678-.318-.014-.636-.005-.954 0-.542.005-.66.125-.666.664 0 .638.005 1.276 0 1.914-.005.344-.094.419-.432.414-.298-.005-.387-.08-.397-.389-.01-.359 0-.718 0-1.077l-.015.005ZM24.13 17.96c.805-.219 1.734-.094 2.663-.114.248 0 .497.08.75.1.219.02.447.05.65 0 .508-.145.994-.13 1.506 0 .298.075.656.084.944 0 .278-.085.482-.08.715.06.065.04.164.1.214.074.338-.17.71-.044 1.043-.134.487-.13.963-.155 1.445-.005.055.015.124.04.17.02.59-.264 1.147.015 1.718.09.07.01.144-.02.213-.025.174-.01.363-.065.522-.02.447.124.884.144 1.326-.01.055-.02.13-.04.174-.015.562.294 1.118-.08 1.68-.01.267.035.546-.04.814.104.11.06.278.045.412.015.502-.124.998-.07 1.5.005.174.025.343.06.517.075.154.02.328.065.467.025.506-.154.993-.135 1.505 0 .278.07.596.055.889.01.333-.05.64 0 .954.085.114.03.243.075.347.04.532-.185 1.024.025 1.535.114.288.05.606.075.86-.114.263-.2.551-.165.814-.095.587.155 1.153.13 1.744.015.253-.05.556 0 .8.1.556.229 1.082.03 1.609-.075.204-.04.368-.085.556.04.244.16.487.154.775.04.66-.26 1.366-.12 2.052-.12.248 0 .501.095.75.1.745.01 1.48.11 2.215.234.154.025.318-.01.477.015.104.02.244.065.298.145.189.274.393.428.725.224 0 0 .09.085.08.115-.035.13-.065.269-.14.378-.118.175-.253.32-.158.564.03.075-.065.24-.144.3-.05.034-.194-.04-.283-.09-.259-.155-.497-.175-.82-.135-.68.084-1.376.005-2.066-.005-.229 0-.472-.055-.69-.005-.319.07-.617.114-.92-.02a.521.521 0 0 0-.233-.03c-.398 0-.8.19-1.197 0-.596.22-1.212.11-1.823.105-.448 0-.89-.105-1.332-.16-.193-.025-.407-.105-.576-.05-.666.21-1.336.05-2.002.1a.545.545 0 0 1-.283-.055c-.308-.18-.61-.274-.944-.07a.211.211 0 0 1-.174.005c-.352-.164-.66.015-.998.09-.377.08-.81.105-1.182.015-.497-.125-.984-.055-1.47-.1-.288-.025-.577-.075-.87-.11-.243-.03-.481-.054-.73-.015-.482.075-.988-.104-1.46.11-.452-.279-.924.125-1.421-.07-.397-.154-.904-.015-1.356-.04a34.024 34.024 0 0 1-1.878-.154c-.213-.025-.422.08-.655-.055-.164-.095-.428-.1-.656-.035-.313.085-.616.14-.964.03-.273-.085-.616.04-.924.07-.08.01-.159.035-.233.025-.631-.09-1.272.11-1.898-.105-.124-.045-.278-.01-.417-.01h-3.16c-.431 0-.863-.01-1.28-.174-.13-.05-.304-.03-.453 0-.188.03-.422.2-.546.134-.77-.409-1.55.075-2.315-.07-.228-.044-.457-.09-.69-.1a2.056 2.056 0 0 0-.522.05c-.283.06-.576-.06-.566-.318.015-.38-.199-.574-.412-.808-.194-.215-.19-.36-.02-.613.412-.634.84-1.257 1.237-1.9.109-.18.218-.26.417-.254.238.01.477-.02.715.01.363.04.492.314.298.628a16.71 16.71 0 0 1-.745 1.117c-.139.184-.263.349-.164.583.065.155.164.18.7.175l-.024-.045ZM61.699 13.204c-.865-.05-1.73-.11-2.593-.144-.19-.01-.383.05-.577.08-.074.01-.159.04-.228.024a5.4 5.4 0 0 0-2.33 0c-.054.015-.134.025-.174 0-.293-.194-.62-.11-.929-.1-1.048.036-2.096-.114-3.139.08-1.237-.2-2.489.01-3.725-.104-.572-.055-1.118.04-1.68.025-.556-.02-1.117.04-1.668-.01-2.534-.24-5.067-.075-7.6-.105-2.524-.03-5.047.03-7.566-.03-.745-.015-1.49-.09-2.24-.1-.1 0-.203.02-.298 0-.333-.075-.561.37-.884.2a1.79 1.79 0 0 0-.904-.2c-.417 0-.571-.154-.566-.578 0-.878-.115-.703.71-.738.586-.025 1.172-.08 1.763-.115.154-.01.343-.03.462.045.512.304 1.024.11 1.535.045.104-.015.214-.02.318-.015.457.02.92-.125 1.376.04.392-.194.815-.1 1.227-.115.666-.02 1.321.095 1.977.215.06.01.13.03.174.01.223-.12.422-.105.67-.035.209.055.467-.01.686-.075.467-.14.934.035 1.416-.085.486-.12 1.028-.03 1.544-.03.497 0 .999.05 1.49-.01.646-.08 1.277.05 1.913.02.363-.02.73.05 1.093.05.372 0 .745-.045 1.117-.055.378-.01.755-.015 1.133 0 .268.01.541.065.81.1.04 0 .08.02.119.01.978-.244 1.967-.06 2.95-.11.497-.025.994-.01 1.49 0 .334.005.656-.015.994.095.244.075.542-.015.815-.035.233-.015.492-.11.695-.035.333.12.66.09.994.095 1.252.005 2.503.01 3.755 0 .432 0 .86.05 1.291-.1.194-.07.453-.064.646 0 .547.18 1.093.095 1.64.07.258-.01.531.025.774-.05.298-.09.537.025.8.09.308.075.497.28.606.578.05.14.124.28.214.404.164.224.178.344-.06.464-.238.12-.511.194-.775.214-.412.035-.834.01-1.252.01v.03l-.01-.02ZM66.492 43.927c-.457 0-.929.075-1.366-.02-.69-.15-1.376-.075-2.062-.095-.208-.005-.422.07-.63.09-.239.02-.492.075-.71.01-.666-.2-1.337-.06-2.002-.1-.115-.005-.229.05-.343.065-.154.02-.323.08-.467.04-.84-.225-1.694-.06-2.538-.11-.527-.035-1.064.075-1.585-.11a.88.88 0 0 0-.532 0c-.521.175-1.058.085-1.584.11-.08 0-.174-.025-.239.005-.293.145-.55.09-.82-.08-.089-.055-.252-.075-.337-.03-.199.11-.348.06-.551.01-.204-.05-.462.045-.676.12-.348.125-.685.07-1.038.03-.502-.05-1.018-.005-1.525-.005-.407 0-.815-.01-1.222-.01-.586 0-1.177.005-1.763.015-.234 0-.492.105-.696.035-.313-.11-.62-.095-.934-.095-1.629 0-3.258-.01-4.888 0-.506 0-1.033.175-1.52.09-.81-.135-1.614-.06-2.419-.1-.362-.015-.72.05-1.087.01-.353-.04-.716-.015-1.073-.005-.174.005-.348.045-.522.07-.074.01-.164.055-.223.03-.403-.17-.795-.13-1.203 0-.198.065-.432 0-.65.02-.234.02-.462.055-.69.094-.2.035-.527-.094-.622-.254-.094-.164-.04-.379.154-.578.184-.19.398-.294.661-.36.626-.149 1.237-.229 1.823.115.278.165.537.16.83.016.293-.145.61-.32.924-.33.417-.01.869-.08 1.246.015.442.11.825.03 1.192-.094.433-.15.825-.05 1.237-.005.348.035.706.054 1.048 0 .288-.05.522-.1.76.13.18.174.403.159.641.06a1.43 1.43 0 0 1 .626-.12c.855.06 1.674-.115 2.504-.28.442-.09.909-.07 1.36-.08.085 0 .175.075.264.105.124.045.248.1.377.125.249.045.497.075.75.114.279.045.537-.09.845-.015.427.105.894 0 1.341.135.134.04.303-.035.457-.055.412-.06.825-.114 1.237-.17.08-.01.179.03.233-.01.492-.343 1.014-.149 1.525-.114.194.015.388-.025.552.15.064.07.238.114.323.08.253-.115.556.044.79-.18.06-.055.188-.055.283-.045.467.06.928.165 1.395.185.423.02.885.04 1.267-.105.442-.165.87-.105 1.192.065.66.344 1.287.184 1.918.064.536-.104 1.033-.174 1.545.075.094.045.253.065.327.015.418-.289.9-.249 1.322-.17.71.14 1.415.06 2.12.1.135.01.269.04.408.055.11.01.229.035.333.01a2.815 2.815 0 0 1 1.396.015c.258.07.536.11.81.105.133 0 .302-.105.382-.22.05-.07-.01-.259-.07-.363-.09-.15-.228-.27-.338-.414-.308-.419-.7-.783-.864-1.306-.03-.09-.08-.205-.154-.24-.452-.214-.432-.613-.417-1.012 0-.07.045-.194.084-.2.11-.02.278-.034.338.03.745.828 1.709 1.446 2.22 2.489.16.324.492.553.636.912.025.06.12.1.184.134.104.05.219.075.323.125.238.11.487.264.487.539 0 .269-.244.448-.492.528-.219.07-.457.11-.686.125-.377.02-.754.005-1.132.005v.015ZM64.788 47.282c-.14-.005-.293.02-.412-.03-.427-.18-.84-.229-1.272.005-.11.06-.273.015-.412.015-.994 0-1.987.01-2.98-.005-.388-.005-.776-.075-1.168-.114-.387-.035-.785.064-1.172-.1-.15-.065-.363-.04-.527.01-.407.124-.804.14-1.212 0-.104-.035-.233-.015-.348 0-.094.015-.188.1-.273.085-.541-.09-1.087.1-1.614-.01-.392-.085-.78-.08-1.167-.11-.303-.025-.601.085-.91.015-.302-.07-.64-.155-.923-.085-.557.14-1.118.12-1.65.055-1.147-.15-2.29-.07-3.432-.095-.209 0-.422.06-.636.085-.094.01-.188-.01-.283-.015-.561-.045-1.117-.105-1.679-.13-.293-.014-.586.045-.879.055-.278.01-.556 0-.834-.015-.234-.015-.462-.07-.696-.094-.094-.01-.209-.015-.288.024-.253.13-.482.1-.735-.01-.14-.054-.313-.024-.472-.024-.755 0-1.51-.015-2.265 0-.442.01-.874-.075-1.322-.02-.427.055-.874.02-1.31.01-.294-.005-.582.035-.875-.095-.164-.075-.403-.055-.586-.005a3.051 3.051 0 0 1-1.68 0c-.128-.04-.277-.01-.416-.01h-3.577a2.27 2.27 0 0 0-.576.085c-.244.07-.422.04-.507-.23-.054-.184-.129-.369-.169-.553-.07-.32.035-.484.338-.499.452-.024.9-.02 1.346-.104.264-.05.581.07.84.19.263.119.521.134.8.154.427.03.869-.12 1.286.1.03.014.084 0 .11-.016.332-.269.685-.154 1.052-.104.318.045.666.084.994-.08.129-.065.343-.075.467-.01.357.194.685.055 1.028-.015.735-.16 2.176-.16 2.93-.01.269.055.537.09.81.125.075.01.18.015.229-.03.323-.274.65-.16.988-.05.06.02.14.01.199-.015.402-.135.825-.11 1.237-.135.417-.024.834-.02 1.252 0 .328.015.655.09.988.11.15.01.308-.04.452-.085.497-.15.492-.15.954-.015.184.055.377.1.571.105.81.01 1.614.02 2.42-.105.238-.035.496.095.75.09a4.35 4.35 0 0 0 .983-.12c.194-.044.348-.14.556-.014.105.064.268.03.408.03.556 0 1.112-.016 1.669.004.605.02 1.216.075 1.822.12.075.005.15.04.22.075.247.12.49.27.764.06.452.194.86-.085 1.287-.13.313-.035.635 0 .953-.01.353-.01.7.02 1.053-.095a.906.906 0 0 1 .8.095c.169.115.358.165.561.09.035-.015.09-.06.095-.055.328.31.705.075 1.053.08.367 0 .755.104 1.108-.095.342.254.804-.07 1.157.25.08.074.343.034.472-.046.263-.16.492-.094.72.03.124.065.219.14.373.035.084-.06.233-.06.342-.04.303.055.596.06.904 0 .224-.04.423 0 .517.28.04.12.179.209.283.299.308.264.318.319.045.563-.263.24-.586.3-.924.3h-.005Z" fill="#110176"/>
    <path d="M25.218 39.335c.348.055.691.13 1.039.15.183.01.367-.105.561-.135.248-.04.531-.135.75-.06.432.154.9.175 1.282.065.56-.16 1.092-.23 1.649-.09.02 0 .045.005.06 0 .76-.379 1.55-.055 2.324-.11.532-.04 1.073 0 1.61-.01.173 0 .347-.04.511-.09.278-.084.537-.154.815.04.114.08.303.04.462.055.308.03.62.045.929.085.467.055.958.03 1.43 0 .303-.015.616-.065.93-.085.292-.015.58.035.873-.1.15-.07.353-.03.532-.014.253.025.506.084.76.1.258.02.517.024.775.004.273-.02.536-.104.81-.11.302 0 .6.08.884-.099a.343.343 0 0 1 .288-.015c.377.184.78.07 1.167.11.233.025.462.074.69.094.155.015.318.015.467-.005.393-.06.78-.14 1.173-.204.06-.01.129-.02.178 0 .338.18.696.095 1.049.11.218.01.471-.065.645.025.259.134.443.035.661-.045.179-.065.378-.095.571-.09.224 0 .417.17.68.07.175-.065.408.03.617.04a5.263 5.263 0 0 0 1.848-.25c.163-.05.283-.02.432.01.288.05.576.115.864.115.308 0 .621-.08.929-.08.308 0 .62.07.929.085.531.025 1.063.02 1.564-.2a.592.592 0 0 1 .229-.034c.283 0 .497.304.82.164.288-.124.57.01.859.055.546.08 1.093-.025 1.61-.224.402-.155.735.065.72.493-.01.25-.19.479-.04.758.07.13-.244.4-.482.414-.551.035-1.098.08-1.659-.055-.402-.094-.864-.269-1.257.105-.04.035-.129.08-.154.06-.288-.225-.566.025-.844.01-.626-.035-1.247-.12-1.868-.165a24.325 24.325 0 0 0-1.594-.05c-.229 0-.457.075-.69.1-.627.055-1.263-.11-1.879.11-.382-.22-.76-.045-1.137.01-.13.02-.268-.035-.407-.04-.328-.01-.656-.01-.984-.01-.228 0-.462.01-.69 0-.134-.005-.279-.09-.403-.06-.561.14-1.117-.025-1.679-.005-.983.035-1.967.1-2.955.11-.566.005-1.148-.17-1.699-.09-1.287.184-2.568.05-3.85.095-.188.005-.382-.06-.576-.08-.134-.015-.298-.07-.407-.015-.343.16-.7.08-1.053.105-.293.02-.581-.04-.874.1-.145.07-.353.034-.532.014-.233-.025-.457-.084-.69-.114-.224-.025-.433.084-.671.01-.154-.045-.343.05-.517.054-.308.01-.62 0-.928-.01-.075 0-.154-.06-.224-.05-.268.03-.537.1-.81.1-.248 0-.501-.104-.75-.1-.347.006-.715.16-1.043.095-.89-.18-1.778-.124-2.657-.08-.646.035-1.292.11-1.943.09a11.934 11.934 0 0 1-1.46-.13c-.144-.024-.308-.179-.393-.313-.094-.16.065-.285.174-.404.264-.294.631-.284.969-.334.214-.035.437-.005.656-.005 0-.015 0-.03.005-.045l.02-.005ZM25.66 30.819c0-.294.165-.509.522-.519.482-.015.914-.184 1.366-.299.055-.015.12-.07.16-.055.635.265 1.34-.06 1.976.22.035.015.08 0 .12 0 .655 0 1.31-.1 1.976-.015.398.05.82-.035 1.222-.115.527-.105 1.048 0 1.555.04.551.045 1.068-.065 1.604-.095.115-.005.244-.075.343-.05.76.22 1.535.065 2.3.115.353.02.71-.075 1.048.11a.232.232 0 0 0 .174.005c.676-.235 1.376-.085 2.061-.11.765-.03 1.535.01 2.3-.114.239-.04.507.04.745.11.482.144.96.174 1.446.03.13-.04.273-.04.412-.036.686.045 1.386-.12 2.062.11.417-.155.854-.11 1.286-.115.12 0 .264-.04.353.015.606.374 1.272.205 1.912.215.388.01.79.114 1.168-.095.015-.01.04-.005.06 0 .978.289 1.976.02 2.965.105.407.034.814-.02 1.232.1.283.079.62-.026.928-.056.06 0 .125-.055.17-.035.491.18.993-.15 1.485.045.104.04.253-.06.377-.05.547.05 1.088.115 1.63.17.124.01.258 0 .382-.01.377-.05.75.005 1.127-.025.269-.02.557.469.482.763-.05.184-.139.369-.258.508-.07.085-.238.12-.358.115-.233-.005-.462-.085-.69-.085-1.371-.01-2.742 0-4.113-.01-.368 0-.755.085-1.108-.104a.194.194 0 0 0-.119-.005c-.581.19-1.152-.07-1.733-.01-1.063.11-2.131-.025-3.194 0-.249.005-.502-.075-.75-.095-.22-.02-.462-.07-.646.005-.279.12-.542.09-.815.095-.795.01-1.59.01-2.384 0-.274 0-.557.075-.81-.105a.133.133 0 0 0-.114-.01c-.462.23-.92-.005-1.381-.005-.308 0-.576.155-.92.09-.546-.105-1.122-.07-1.688-.085-.417-.01-.834.01-1.252-.005-.233-.01-.462-.06-.69-.09-.06-.01-.124-.035-.174-.015-.556.225-1.137.05-1.704.11-.288.03-.576.105-.87.105-.287 0-.575-.07-.868-.11-.229-.03-.462-.07-.69-.1-.1-.01-.205-.03-.294-.01a4.94 4.94 0 0 1-2.275 0c-.04-.01-.08-.005-.12-.005-.297.01-.59.025-.888.025-.283 0-.582-.08-.85-.015-.824.195-1.654.07-2.478.105-.19.005-.383-.05-.577-.08-.06-.01-.124-.05-.168-.03-.641.255-1.277-.13-1.918 0-.502.1-.998-.024-1.495-.01-.378.01-.551-.184-.551-.538l-.005.005ZM59.553 68.218c-.472-.06-1.043.07-1.615-.095-.258-.075-.596 0-.854.11-.562.224-1.078.015-1.61-.07-.193-.03-.402-.1-.58-.055-.86.214-1.734.08-2.599.1-.407.01-.83.104-1.227-.1-.332.214-.71-.1-1.053.09-.094.05-.233.015-.352.025-.547.04-1.093-.04-1.65.094-.332.08-.73-.054-1.092-.14a3.216 3.216 0 0 0-1.396 0 2.576 2.576 0 0 1-.874 0c-.472-.084-.93-.124-1.396.02-.055.016-.13.05-.169.026-.502-.255-.998.07-1.5 0-.229-.03-.457-.08-.69-.115-.22-.035-.428-.23-.666-.025-.045.04-.18-.045-.273-.045a7.948 7.948 0 0 0-.69 0c-.254.01-.528.1-.756.04-.452-.125-.874-.095-1.326-.015-.413.075-.85.025-1.272.045-.213.01-.422.055-.636.085-.04.005-.084.04-.109.025-.576-.265-1.197.21-1.773-.1a.375.375 0 0 0-.293 0c-.472.24-.914.03-1.366-.075-.15-.035-.353-.1-.457-.035-.328.2-.616.045-.9-.05a.893.893 0 0 0-.77.05c-.253.125-.61.1-.913.05-.2-.03-.373-.005-.562-.005-.7-.005-1.42.234-2.106-.114a.35.35 0 0 0-.213-.025c-.73.209-1.44.02-2.151-.1-.457-.075-.601-.055-.87.344-.144.21-.188.124-.293-.04-.129-.204-.268-.374-.576-.409-.358-.04-.382-.2-.169-.528.03-.05.055-.105.09-.15.501-.603.998-1.207 1.505-1.81.074-.09.174-.16.273-.22.114-.064.229-.124.343.026.084.114.189.194.064.354-.228.289-.442.593-.665.892-.035.05-.1.08-.12.13-.064.154-.208.374-.153.453.094.14.308.215.486.28.08.03.204 0 .279-.05.57-.374 1.202-.31 1.842-.31.626 0 1.262.12 1.883-.094.134-.045.323-.01.457.055.492.244.974.145 1.49.1.77-.065 1.53-.325 2.33-.075.362.114.804.094 1.177 0 .293-.075.522-.04.79.015.169.035.363.174.546.02.631.134 1.237-.06 1.853-.125.383-.04.765.03 1.143.035.188 0 .362-.065.55-.045.508.055 1.014.02 1.526.1.507.08 1.063-.14 1.575-.075 1.241.16 2.488.07 3.73.105.114 0 .228.045.343.064.134.02.283.075.402.045.88-.234 1.783-.164 2.653-.08.869.085 1.733.07 2.598.08.784.005 1.57-.084 2.359-.104.383-.01.77.055 1.152.055.363 0 .72-.055 1.083-.055.413 0 .815.015 1.232.085.497.084 1.028-.06 1.54-.04.537.02 1.068 0 1.6.005.461 0 .899.164 1.306.418.303.19.447.33.387.579-.05.234-.263.379-.586.384-.397.005-.794 0-1.286 0l.02-.01ZM27.494 20.882c.407-.055.814-.114 1.221-.164.14-.015.294-.04.413 0 .626.22 1.267.04 1.897.105.298.03.606-.015.91-.015.317 0 .635.024.948.015 1.063-.035 2.126-.085 3.194-.115.248-.005.497.06.75.07.298.01.596.11.9-.055.138-.075.357-.05.526-.01.939.224 1.892.06 2.836.114.427.025.855-.03 1.292.09.273.075.6-.1.909-.14.203-.024.417-.01.626 0 .054 0 .109.04.168.046.606.044 1.212.084 1.823.124.467.03.944-.07 1.406.11.12.05.288.045.412 0 .641-.205 1.297-.095 1.943-.11.834-.02 1.669-.01 2.503 0 .248 0 .502.095.75.09.288 0 .591-.025.865-.115.258-.08.486.045.73.025.248-.02.501.065.755.07.65.01 1.301.035 1.947-.02.313-.025.606-.095.919.02.144.05.313.04.467.04h2.265c.194 0 .387.045.581.07.075.01.169.055.224.03.342-.155.68-.165 1.023 0 .581-.255 1.157.134 1.733.015.095-.02.2.01.299-.01.193-.035.263-.28.129-.434-.497-.584-1.004-1.162-1.496-1.745-.283-.34-.263-.778.07-1.067.075-.065.293-.085.363-.03.223.19.462.399.596.653.154.29.372.503.571.743.377.449.735.917 1.108 1.371.149.18.283.424.477.494.447.16.447.513.477.862.04.444-.214.658-.631.578a9.331 9.331 0 0 0-.75-.104c-.289-.03-.592.055-.875-.105a.404.404 0 0 0-.347 0c-.358.215-.686.045-1.019-.035-.054-.015-.114-.095-.154-.08-.938.285-1.872-.174-2.811-.02-.249.04-.502.07-.75.1-.02 0-.04.015-.055.01-.64-.184-1.286.155-1.912 0-.552-.14-1.098-.095-1.645-.1-.228 0-.462.065-.69.095-.12.015-.253.05-.353.01-.442-.19-.899-.1-1.346-.105-1.152-.015-2.305.02-3.457-.015-.685-.02-1.371-.13-2.056-.174-.204-.015-.413.06-.617.06-.556.01-1.112-.01-1.668.01-.289.01-.577 0-.875.075-.298.07-.645-.075-.968-.125-.115-.02-.249-.1-.338-.065-.586.22-1.157-.075-1.739-.02-.57.05-1.152.035-1.728 0-.303-.02-.601-.204-.9-.204-.278 0-.55.19-.834.204a21.37 21.37 0 0 1-1.788.005c-.214 0-.422-.055-.636-.095-.278-.054-.541.045-.805.07-.248.025-.511-.19-.775-.2-.303-.01-.616.09-.924.135-.248.035-.521.135-.75.08-.864-.204-1.733-.075-2.598-.1a9.901 9.901 0 0 1-1.798-.219c-.223-.05-.471 0-.705.015-.233.015-.462.075-.695.075-.244 0-.482-.105-.71.085-.09.074-.324-.075-.294-.185.065-.24.144-.479.259-.698.109-.214.342-.15.536-.154h.656v.05l.015.02ZM30.067 49.55c.516 0 1.033.016 1.55 0 .446-.02.893-.089 1.346-.109.208-.01.422.065.635.085.234.02.487.07.71.015.666-.165 1.322-.14 1.988-.04.541-.254 1.102.27 1.649-.05.03-.02.104.055.154.06.273.015.58.1.82.015.437-.16.859-.18 1.296-.09.362.08.72.04 1.078 0 .367-.04.735.01 1.112-.105.274-.084.591-.025.89-.02 1.808.04 3.616.085 5.424.115.248 0 .497-.07.75-.095.114-.01.253-.03.348.02.432.245.85.075 1.281.015.343-.05.706.005 1.058.02.174.005.383.095.522.03.616-.279 1.152-.04 1.704.18.104.045.228.08.337.07.423-.055.845-.16 1.267-.185.303-.02.616.04.919.085.11.015.189.055.318.01.546-.185 1.108-.235 1.669-.035.055.02.134.025.174 0 .253-.17.541-.085.81-.105.273-.02.556.07.81-.105.039-.03.123-.025.173-.01.735.235 1.495.065 2.24.115.115.01.249 0 .343.06.343.194.656.145.969-.06.034-.02.08-.055.104-.045.447.15.874-.14 1.311-.064.14.024.303.104.398.209.556.658.427 1.052-.403 1.286-.149.04-.308.05-.466.05-.617.005-1.232 0-1.848.005-.194 0-.383.06-.577.08-.134.015-.283.06-.407.02-.75-.225-1.505-.08-2.26-.06-.447.015-.894.16-1.341-.035-.12-.05-.273-.015-.412-.015-.676 0-1.352-.005-2.027 0-.194 0-.383.055-.576.08-.115.015-.244.06-.348.03-.86-.24-1.734-.055-2.598-.115-.214-.015-.422-.06-.636-.085-.074-.01-.179-.05-.228-.015-.279.185-.581.09-.87.095-.735.015-1.47.02-2.205 0-1.063-.025-2.126-.09-3.194-.11-1.073-.02-2.146.035-3.219-.02-.66-.034-1.306-.02-1.947.125-.104.025-.229-.05-.343-.05-.387-.005-.78-.01-1.167 0-.194 0-.412.105-.576.045-.373-.14-.74-.075-1.113-.1-2.374-.164-4.749-.08-7.128-.14-.64-.014-1.292-.079-1.942-.099a.48.48 0 0 1-.462-.449.468.468 0 0 1 .467-.498c.556-.015 1.112 0 1.669 0v-.01ZM62.767 62.953c-.303-.065-.507-.07-.676-.15a.777.777 0 0 0-.68-.02c-.06.025-.145.015-.214 0-.557-.115-1.108-.045-1.664.035-.283.04-.581-.035-.875-.06l-.526-.045c-.328-.03-.67.075-.988-.104-.06-.035-.164-.035-.234-.01-.462.18-.914.094-1.38.01-.234-.04-.498.11-.746.094-.666-.03-1.341.12-2.002-.09-.124-.04-.283.026-.422.05-.333.06-.656.085-.989-.03-.159-.054-.347-.04-.526-.04h-6.73c-.314 0-.617 0-.935-.094-.362-.11-.76 0-1.142 0-.442 0-.884-.04-1.326-.025-.457.015-.914 0-1.371 0-.457 0-.914.01-1.371-.005-.229-.01-.457-.105-.69-.105-.23 0-.458.09-.691.105-.398.02-.795.02-1.192 0-.522-.02-1.034-.1-1.56-.005-.184.035-.383-.04-.576-.065-.075-.01-.16-.05-.229-.03-.899.23-1.813.055-2.717.1a1.124 1.124 0 0 1-.507-.115c-.447-.204-.879.01-1.321.005-.422 0-.84-.045-1.267-.01-.432.035-.874.01-1.311.01-.437 0-.874.005-1.311 0-.174 0-.348-.045-.522-.07-.462-.074-.666-.523-1.053-.712-.035-.02-.04-.125-.04-.185a.29.29 0 0 1 .06-.165c.606-.767 1.013-1.68 1.733-2.358.085-.08.18-.16.279-.21.094-.044.263-.099.298-.059.08.09.168.26.134.359-.154.479-.303.972-.69 1.331-.204.19-.403.39-.587.593-.055.06-.094.185-.064.245.034.075.188.17.223.15.373-.235.676.02.989.139.228.085.417.08.665.02.472-.115.969-.11 1.46-.145.487-.035.984.065 1.466-.114a.534.534 0 0 1 .353 0c.362.164.74.09 1.107.11.373.02.736.02 1.113.09.417.079.87-.02 1.302-.046.114-.005.238-.065.347-.04.606.145 1.177-.015 1.773-.094.413-.06.85.08 1.272.13.293.03.586.099.874.064.532-.055 1.053-.19 1.605-.115.487.06.993 0 1.49.015.666.025 1.331.085 2.002.11.174.01.348-.035.521-.06.055-.01.13-.065.164-.045.388.24.765-.01 1.143 0 .407.01.815.1 1.227.105.894.02 1.788 0 2.682.01.229 0 .462.065.69.095.1.01.22.045.294.005.318-.18.66-.105.988-.1 1.028.01 2.057.06 3.085.055.402 0 .8-.095 1.202-.14.134-.015.278-.055.407-.03.313.06.616.16.93 0 .044-.025.118-.015.178 0 1.078.245 2.17.055 3.254.12.253.015.501.065.75.095.04.005.084.03.114.015.442-.215.88-.07 1.321 0 .17.025.348-.03.522-.05.174-.02.352-.065.521-.055.308.02.621.075.93.115.223.03.412.094.506.329.05.124.144.234.214.349.089.144.034.448-.11.493-.313.1-.636.175-.953.26-.08 0-.035.01 0 0v-.015Z" fill="#110176"/>
    <path d="M29.068 58.755c.894.05 1.62.12 2.345.124.546 0 1.098-.11 1.644-.1.7.01 1.4-.024 2.101-.014.189 0 .383-.055.576-.085.08-.01.17-.05.229-.025.487.234 1.013.045 1.515.16.243.054.526-.05.79-.09.114-.015.253-.105.337-.065.368.17.726-.03 1.083-.01.666.04 1.331.1 1.997.135.363.015.725 0 1.088-.02.353-.015.7-.055 1.053-.08.114-.01.248-.055.348-.02.467.16.909.08 1.386.015.6-.085 1.227-.045 1.838.005.154.01.278 0 .427-.015.352-.045.715-.01 1.073-.025.213-.01.427-.055.64-.07.11-.01.224.01.333.02.661.06 1.341.23 1.987.145.835-.11 1.654-.075 2.479-.08.467 0 .939.025 1.396.175a.722.722 0 0 0 .447-.016c.59-.209 1.167-.184 1.788-.08.91.15 1.853.265 2.767.125.596-.09 1.177-.064 1.763-.094.278-.015.557-.015.795.154.149.105.278.075.437.005.512-.21 1.038-.334 1.605-.289.159.015.258.06.303.214.06.205.163.404.173.614a.396.396 0 0 1-.273.399c-.487.164-.959.413-1.505.229-.124-.04-.278-.01-.417-.01h-4.948c-.213 0-.422.06-.635.085-.075.01-.17.04-.229.01-.695-.324-1.416-.035-2.126-.07-.278-.015-.561-.04-.85-.035-2.602.015-5.205.015-7.808 0-.725 0-1.46-.16-2.176-.09-.69.065-1.376.095-2.061.09-.248 0-.502-.065-.75-.095-.1-.01-.204-.03-.293 0-.601.18-1.197.155-1.798 0a.771.771 0 0 0-.413 0c-.824.274-1.629.025-2.439-.08-.074-.01-.169-.064-.223-.04-.457.21-.939.06-1.406.105-2.235.23-4.47.075-6.71.12-.08 0-.17-.02-.24.01-.605.284-.983-.175-1.42-.434-.104-.065-.124-.16-.07-.304.115-.304.343-.429.627-.464.526-.064 1.053-.104 1.415-.14h.005ZM64.59 71.144c-.448-.054-.89-.13-1.342-.164-.248-.02-.506.035-.76.06-.054.005-.114.055-.164.045-.76-.14-1.525.14-2.27-.005-.81-.16-1.614-.075-2.419-.105-.263-.01-.526.025-.79.02-.278 0-.556-.035-.83-.02-.252.01-.496.08-.75.1a2.098 2.098 0 0 1-.466-.025c-.154-.02-.318-.105-.457-.07-.621.15-1.237-.075-1.858-.01-.273.03-.546-.04-.815.1a.585.585 0 0 1-.466 0c-.348-.155-.7-.1-1.053-.1-2.544-.005-5.087 0-7.63-.005-.234 0-.462-.055-.696-.085-.06-.01-.119-.03-.174-.02-1.713.255-3.442.05-5.16.105-.309.01-.617-.09-.93-.11-.437-.025-.874.06-1.316.005-.452-.05-.914-.02-1.37-.01-.393.01-.78-.045-1.173.1-.189.07-.432.02-.64-.03-.433-.1-.845-.04-1.277-.005-.532.04-1.073.105-1.605.04-.422-.05-.66-.628-.447-1.017a.352.352 0 0 1 .233-.155c.135-.025.279-.01.418-.01.596.005 1.192-.07 1.798-.02.502.045 1.013-.055 1.52-.104.422-.04.84.064 1.267.015.432-.055.874-.01 1.31-.01h2.683c.437 0 .875.025 1.312-.005.342-.025.675.08 1.028.02.328-.055.675-.02 1.013-.01.174.005.348.054.522.07.149.01.303 0 .452-.016.054 0 .124-.064.164-.05.462.215.919-.114 1.38-.01.17.04.343.055.517.08.075.01.16.05.229.035 1.157-.254 2.33-.06 3.492-.11.387-.014.785-.064 1.167.1.12.05.283.04.412 0 .84-.239 1.704-.15 2.539-.074.67.06 1.336.035 2.002.09.58.044 1.147-.095 1.738-.02.586.08 1.192.024 1.788.01.249-.006.497-.08.75-.1.134-.01.269.034.403.044.313.02.645.105.938.03.299-.08.582-.08.875-.094.278-.015.546 0 .794.17.239.154.512.144.766.054.54-.184 1.082-.12 1.629-.045.174.025.352.065.521.055.298-.02.408-.274.219-.499-.318-.379-.666-.728-.974-1.111-.218-.275-.402-.574-.586-.873-.03-.045 0-.17.045-.21.045-.04.179-.064.214-.03.307.29.72.42.988.793.427.589.969 1.092 1.47 1.626.09.09.224.18.348.184.209.015.407.025.517.22.149.249.278.508.397.773.015.04-.045.154-.094.174-.18.07-.368.14-.557.16-.253.025-.516.005-.775.005 0 .014 0 .034-.005.05l-.01.004ZM63.705 24.856c-.05.19-.08.384-.154.563-.08.195-.258.275-.467.245a9.806 9.806 0 0 0-2.324-.025c-.512.05-1.029.164-1.525.085-1.222-.205-2.45-.055-3.671-.1-.209-.01-.422.055-.636.085-.06.01-.13.045-.174.02-.482-.255-.968.07-1.435-.01-.676-.12-1.371-.005-2.037-.215a.361.361 0 0 0-.179-.005c-.541.135-1.073-.045-1.614-.01-.537.035-1.073.01-1.61.01-.536 0-1.112.005-1.669 0-.193 0-.382-.054-.576-.084-.06-.01-.119-.035-.174-.02-.879.234-1.768.08-2.657.1-.586.014-1.177-.095-1.764-.1-.367-.005-.74.12-1.107.1-.462-.03-.924.04-1.386.01-.477-.03-.954-.095-1.43-.115-.478-.02-.955 0-1.431 0-.477 0-.954.015-1.43 0-.369-.015-.741-.11-1.109-.105-.526.005-1.053.085-1.584.105-.338.01-.69.015-1.018-.02-.82-.085-1.65-.01-2.46-.19-.054-.01-.119-.03-.173-.015-1.038.25-2.087.06-3.135.1-.367.015-.74-.06-1.102-.12a1.004 1.004 0 0 1-.422-.184c-.194-.145-.165-.524.054-.603.288-.1.571-.245.904-.11.174.07.412.11.571.045.333-.135.661-.095.994-.095h8.757c.293 0 .581-.035.875.095.163.075.412.07.586 0 .313-.13.62-.095.933-.1.954-.005 1.908 0 2.862 0 .248 0 .496-.055.74-.055.233 0 .472.02.7.06.363.06.715.095 1.078 0a.567.567 0 0 1 .353.01c.208.09.412.01.6.02.562.03 1.128-.12 1.67 0 .248.055.447-.01.665-.01.547 0 1.103-.11 1.65.06.139.045.313-.03.471-.045.413-.035.82-.105 1.227.055.125.05.274.04.413.03.78-.055 1.56.035 2.334 0 .194-.01.383-.07.577-.08.233-.015.481-.06.7 0 .179.05.328.115.497 0 .03-.02.084-.035.109-.025.531.254 1.068-.1 1.61.025.302.07.645-.04.968-.025.586.02 1.172.085 1.763.11.174.01.348-.045.522-.07.114-.015.243-.065.348-.04.824.214 1.659.13 2.488.105.502-.015.994.114 1.5.025.204-.035.443.11.666.174.179.055.253.17.233.36l.035-.02ZM35.103 52.203c.646-.045 1.292-.105 1.938-.135.189-.01.387.045.576.075.075.01.159.045.228.025.74-.23 1.505-.15 2.236-.075.65.065 1.296.08 1.942.08.387 0 .79-.15 1.162-.1 1.58.225 3.164.05 4.744.1.268.01.561-.144.805-.08.571.15 1.117 0 1.679-.01.477-.005.959.14 1.44.215.06.01.124.015.18 0 .978-.24 1.971-.08 2.955-.11.467-.01.934.095 1.405.1.348 0 .696-.09 1.048-.105.19-.01.383.055.577.08.094.01.188 0 .283-.01.074-.01.159-.085.218-.065.443.155.904-.065 1.357.09.203.07.466-.01.7-.03.213-.015.447-.11.636-.055.392.12.78.095 1.172.105.586.015.998.508.954 1.107-.01.154-.08.22-.219.204-.358-.035-.705.21-1.083.015-.144-.07-.362-.05-.526 0-.413.115-.79-.015-1.182-.085-.115-.02-.244-.065-.348-.035-.72.225-1.456.07-2.18.11-.2.01-.398.01-.597 0-1.003-.04-2.017-.02-3.01-.14-.73-.084-1.42.045-2.131.11-.318.03-.646-.105-.974-.134-.288-.025-.576-.01-.864-.015-.11 0-.223.015-.333 0-.074-.005-.154-.075-.223-.06-.611.134-1.222-.09-1.843.04-.422.09-.89-.035-1.336-.045-.736-.01-1.476.05-2.206-.015-1.878-.165-3.76-.045-5.638-.13-.665-.03-1.331-.105-2.002-.09-.407.006-.83.155-1.222.1-1.082-.16-2.17-.045-3.253-.124-.348-.025-.68.035-1.018.015-.547-.03-1.098-.11-1.645-.11-.526 0-1.068.154-1.58.09-.79-.095-1.574-.075-2.359-.11-.283-.01-.556-.22-.844-.01-.02.015-.114-.035-.144-.075-.194-.264-.398-.528-.566-.808-.115-.194-.075-.403.094-.573.372-.374.735-.758 1.122-1.112.19-.17.348-.344.447-.578.17-.399.428-.474.83-.314.512.2.676.488.253 1.037-.228.294-.447.588-.67.887-.08.11-.17.22-.214.344-.02.055.045.2.085.21.174.035.352.04.531.04 2.206 0 4.411-.01 6.617.01.665.005 1.33.084 2.006.134l-.01.015ZM66.93 15.921c-.07.075-.14.215-.225.225-.387.045-.715.329-1.172.164-.427-.154-.929-.15-1.396-.124-.228.01-.442.055-.66-.02-.383-.13-.77-.125-1.167-.12-.994 0-1.988-.025-2.98.015-.349.015-.696-.1-1.024 0-.373.11-.735.105-1.108.105-.358 0-.715.015-1.073 0a3.586 3.586 0 0 1-.685-.115c-.264-.06-.497-.19-.79-.025-.11.065-.338-.03-.492-.1-.189-.084-.338-.144-.546-.015-.279.175-.586.195-.93.155-.471-.055-.953-.005-1.43-.015-.352-.01-.705.055-1.053-.1a.697.697 0 0 0-.472-.005c-.6.195-1.217.13-1.823.095a17.127 17.127 0 0 0-1.679 0c-1.073.045-2.146.015-3.218.01-.194 0-.383-.055-.577-.075-.154-.015-.337-.07-.462-.015-.169.08-.283.01-.432 0-.328-.02-.656.06-.983.1-.174.025-.363.115-.522.075-.646-.15-1.301.015-1.932-.1-.989-.18-1.977-.12-2.956-.08-.665.025-1.331.105-2.002.095-.213 0-.422-.065-.63-.09-.135-.015-.289-.05-.413-.01a2.295 2.295 0 0 1-1.44 0c-.164-.05-.358-.025-.532-.01-.328.02-.665.04-.988.065-.288.02-.591-.01-.9.025-.332.04-.69-.075-1.028-.164-.397-.105-.765-.27-1.192-.07-.213.104-.81-.264-.904-.484-.06-.144-.06-.27.06-.379.11-.095.179-.259.392-.14.124.07.308.056.462.056.835 0 1.68.08 2.499-.02.81-.095 1.594.024 2.394.02.273 0 .546.04.815-.1.124-.065.317-.045.467-.01.6.154 1.197.18 1.798 0 .149-.045.318-.035.472-.01.938.134 1.872-.075 2.806 0 .253.02.502.065.75.104.422.07.84-.044 1.267 0 .427.04.86-.04 1.291-.06.13 0 .259.016.383.046.303.074.616.1.899.01.432-.14.84-.14 1.267-.01.163.05.352.014.531.03.214.02.422.07.636.08.149.01.313 0 .452-.046.571-.19 1.133-.17 1.729-.08.501.075 1.033-.1 1.55.035.392-.194.814-.104 1.226-.11a33.433 33.433 0 0 1 1.729 0c.268.006.536.096.81.096.248 0 .501-.1.75-.095 1.222.025 2.444.075 3.67.114.115 0 .229.055.343.065.234.02.507.115.696.025.636-.294 1.246-.11 1.867.005.09.015.19-.03.284-.05.447-.08.894-.094 1.34.015.204.05.438.05.637 0 .392-.1.764-.094 1.157 0 .263.06.566.09.82.02.933-.244 1.832-.074 2.722.17.293.08.526.389.78.603.034.03.034.11.06.2l.004.024ZM27.325 33.038c.496 0 1.008.075 1.485-.015.889-.165 1.773-.075 2.657-.1.289-.01.587.1.855.04.293-.065.536 0 .8.07.109.03.238.01.347-.025.427-.135.85-.12 1.277-.015.134.03.273.06.407.04.248-.03.482-.08.706.094.054.04.154.035.228.026.522-.075 1.038-.225 1.555-.215.561.015 1.122-.015 1.674.015.382.02.775.065 1.167.085.353.02.696-.01 1.053.09.258.074.576-.1.86-.075.263.025.511.09.794.06.66-.065 1.337-.055 2.002-.01.432.03.844.084 1.277-.03.258-.07.561-.07.824-.015.224.045.428.084.656.06.228-.025.467.03.705.04.646.03 1.292-.005 1.942.094.507.08 1.054-.07 1.58-.09.229-.01.462.055.696.075.094.01.208.035.278-.005.159-.09.283-.07.442 0 .119.055.283.07.402.035.715-.2 1.41-.03 2.111.09.259.045.542-.025.81-.045.174-.01.373-.08.522-.025.238.09.437.115.67-.005.07-.04.189.015.288.025.174.025.363.11.517.07.526-.14 1.038 0 1.56.015.273.005.556-.065.81.11.615-.095 1.236 0 1.847-.035.333-.02.636.08.959.084.208 0 .243.294.064.44-.174.139-.337.243-.452.483-.139.284-.566.339-.824.284-1.5-.3-3.01-.105-4.515-.175-.448-.02-.9.08-1.352-.09-.173-.064-.412.09-.62.09-1.928.01-3.855.085-5.778-.02-1.33-.074-2.667.005-3.993-.11-1.684-.149-3.368-.06-5.052-.104-.67-.015-1.346.045-2.012-.11-.104-.025-.223.06-.338.065-.293.01-.596.055-.874 0-.358-.075-.695-.005-1.038-.015-.537-.015-1.063-.065-1.6.015-.163.025-.342-.055-.516-.07-.273-.025-.547.04-.815-.1-.124-.064-.323-.044-.467-.01-.62.165-1.236.17-1.857 0a.959.959 0 0 0-.413 0c-.869.15-1.848.15-2.632 0-.135-.024-.279-.01-.418-.01-.715 0-1.43-.01-2.145 0-.249 0-.502.07-.75.1-.259.035-.527.035-.71-.179-.15-.175-.01-.543.262-.768a.952.952 0 0 1 .646-.24c.477.01.954 0 1.43 0l.006.01ZM63.998 56.646c-.64-.235-1.386-.05-2.09-.26a.88.88 0 0 0-.532 0c-.428.16-.86.08-1.287.11-.353.02-.71-.075-1.048.105a.273.273 0 0 1-.233 0c-.378-.234-.775-.11-1.173-.115-.308 0-.63.08-.934-.09-.089-.05-.243-.035-.342.01-.154.07-.284.11-.443.015-.074-.04-.203-.05-.273-.015a.73.73 0 0 1-.68.01c-.05-.025-.124-.054-.17-.035-.421.205-.834.055-1.26.005-.324-.04-.661.055-.99.08-.238.015-.471.025-.71.025-.635 0-1.276.055-1.902-.015-.472-.05-.939-.01-1.41-.085a4.712 4.712 0 0 0-1.426 0c-.666.095-1.342.18-2.002.095-1.5-.2-3.006-.055-4.506-.1-.228-.005-.462.065-.69.095-.12.015-.243.04-.353.015-.939-.23-1.892-.06-2.836-.12-.253-.014-.502-.07-.75-.1-.1-.01-.204-.03-.293 0-.601.18-1.192.066-1.798.016-.72-.06-1.45-.045-2.186.035-.581.064-1.187 0-1.783.005-.283 0-.552-.055-.855.015-.357.08-.75.064-1.122.024-.224-.025-.408-.074-.552.15-.02.035-.139.04-.183.015-.318-.19-.636-.379-.934-.593a.276.276 0 0 1 .074-.484c.348-.13.706-.19 1.093-.12s.79.06 1.187.07c.393.01.785.1 1.167-.065.05-.025.12-.04.174-.025.68.18 1.352-.064 2.032-.015.69.05 1.39.01 2.086.01s1.391.01 2.087 0c.307-.005.635.09.928-.1.04-.024.12-.014.174 0 1.098.24 2.206.046 3.309.11.337-.189.695.07 1.013-.02.353-.094.7-.11 1.048-.094.214.005.422.065.63.094.1.015.205.035.294.01a3.732 3.732 0 0 1 1.917 0c.209.05.437.015.656.015.556 0 1.113.01 1.669 0 .268-.01.537-.094.81-.094.248 0 .516.14.745.084.705-.169 1.416-.084 2.12-.1.289 0 .592-.084.875.096.06.04.184-.04.278-.045.413-.015.835-.085 1.232-.015.378.064.72.04 1.093 0a9.357 9.357 0 0 1 2.012 0c.531.06 1.043.134 1.564-.02a.725.725 0 0 1 .294-.01c.134.02.263.11.392.1.522-.045 1.058.11 1.56-.01.57-.135 1.137-.09 1.703-.09.368 0 .755.164 1.103.09.67-.145 1.336-.06 2.002-.1.378-.025.64.16.864.429.249.294.095.698-.283.762-.114.02-.238.01-.358.005-.397-.015-.78.015-1.152.175-.174.075-.382.065-.646.1v-.04ZM30.603 8.867c1.59 0 3.18-.02 4.769.01.442.01.869-.105 1.321-.03.427.07.87.015 1.306.02.457 0 .914.01 1.371 0 .274-.005.552.054.815-.1.084-.05.228 0 .343.025.114.02.233.09.338.07.8-.125 1.594.054 2.389.015.814-.04 1.63-.015 2.444-.005.174 0 .343.07.516.08.274.014.552.024.825.014.233-.01.462-.09.69-.09 1.411-.01 2.822 0 4.233-.01.432 0 .869.075 1.286-.11a.246.246 0 0 1 .179 0c.561.215 1.123-.064 1.679 0 2.017.24 4.038.056 6.055.11.338.01.656.14 1.023.025.328-.1.71-.03 1.068-.02.378.01.522.205.621.579.085.314-.114.409-.288.484-.397.154-.795.314-1.247.269-.283-.03-.59-.085-.874.085-.084.05-.229 0-.343-.01l-.626-.045c-.07-.005-.139 0-.198-.03-.239-.105-.467-.225-.716-.035-.521-.195-1.048.04-1.55-.01-.53-.06-1.033-.105-1.564.015-.253.055-.537-.07-.81-.07-.248 0-.502.055-.75.085-.233.03-.467.05-.69.104-.234.055-.423-.034-.611-.14-.298-.164-.572-.238-.944-.124-.417.13-.88.145-1.326.04-.403-.095-.805.01-1.207.01-.765.005-1.54.155-2.295.085-.69-.06-1.376-.095-2.062-.09-.248 0-.501.07-.75.1-.08.01-.164.03-.238.005-.715-.24-1.456-.055-2.18-.11-.08-.005-.17-.02-.24.01-.382.185-.754.105-1.142 0-.457-.13-.914-.23-1.41-.144-.313.05-.666.104-.989-.085-.189-.11-.358.1-.606.025-.308-.095-.7 0-1.028.11a1.079 1.079 0 0 1-.79-.02c-.268-.105-.536-.1-.84-.055-.442.06-.909.174-1.376.05-.203-.055-.437 0-.65-.015-.413-.02-.83.074-1.227-.11-.065-.03-.16-.02-.239-.005-.715.124-1.435-.07-2.15 0-.254.025-.502.07-.75.105-.08.01-.164.03-.234.005-.675-.23-1.376-.06-2.061-.11-.06 0-.135-.02-.18 0-.402.23-.789.234-1.196.01-.085-.045-.264.04-.378.1-.174.094-.352.1-.462-.045-.11-.145-.233-.31-.129-.539.134-.304.348-.464.67-.488.14-.01.279 0 .418 0h5.007-.02ZM35.377 75.637H29.54c-.392 0-.785-.06-1.172.1-.124.05-.303-.04-.457-.05-.273-.02-.567-.1-.82-.03-.492.13-.954.13-1.445 0-.239-.065-.512-.01-.77-.02-.244-.01-.393-.185-.403-.459-.01-.264.09-.364.413-.374.377-.01.755 0 1.132 0 .373-.01.735.02 1.113-.095.243-.075.541.025.815.045.273.02.57.105.814.025.298-.095.581-.09.874-.09 2.444 0 4.888.06 7.327-.025 1.64-.06 3.279-.08 4.918-.1.497-.004.993.08 1.495.02.487-.06.993-.02 1.485-.01.273.006.552-.06.815.1.074.045.204.035.293.01.8-.229 1.614-.064 2.42-.114.292-.02.59.055.873-.105.09-.05.239-.035.353-.005.66.18 1.311.13 1.977.01.338-.06.7.045 1.053.055.492.015.989.06 1.47 0 .85-.11 1.69-.085 2.534-.02.094.01.194.07.278.05.939-.23 1.902-.16 2.831-.07.949.09 1.893.055 2.837.075.466.01.938-.065 1.4-.12.1-.01.214-.105.269-.194.025-.04-.065-.175-.125-.24a17.239 17.239 0 0 0-.67-.678.39.39 0 0 1-.094-.483c.069-.15.387-.205.576-.115.104.05.218.105.293.184.432.46.86.928 1.281 1.391.134.15.269.26.497.275.407.025.541.194.537.548-.01.34-.19.504-.577.514-.357.01-.71-.04-1.063-.095-.288-.045-.61-.075-.884 0-.472.125-.924.16-1.38-.015a.196.196 0 0 0-.12-.01c-.725.26-1.465-.184-2.2.055-.184.06-.413-.045-.621-.055-.502-.025-.999.03-1.506 0-.536-.03-1.073-.005-1.609-.005s-1.033-.005-1.55 0c-.194 0-.382.065-.576.075-.293.01-.586 0-.88 0-.128 0-.258-.015-.382-.02-.407-.005-.814-.01-1.222-.01-.372 0-.755-.065-1.112 0-.398.075-.77.03-1.158.01-1.083-.05-2.175-.025-3.258-.02-.194 0-.388.085-.576.075-.726-.04-1.46.124-2.176-.1-.621.14-1.257.02-1.888.085-.924.09-1.863.025-2.796.025h-3.646ZM28.085 26.815c.397-.064.879.02 1.38-.08.433-.084.93.05 1.372.185.536.165 1.043.13 1.564-.005.184-.05.393-.124.571-.09.671.145 1.342.09 2.017.11.214.01.422.06.636.09.1.015.214.05.288.015.338-.175.7-.105 1.048-.1.343.01.676-.075 1.029-.02.347.055.72-.035 1.067.02 1.297.204 2.598.105 3.895.055.894-.035 1.803-.135 2.687-.035.79.085 1.575.07 2.36.085.248.005.501-.065.75-.1.06-.01.119-.02.178-.01 1.421.224 2.852.065 4.277.12.343.015.686.025 1.029 0 .357-.02.715-.015 1.073 0 .293.01.59-.06.874.1.09.05.238.034.352.01.84-.165 1.675.064 2.514.014.427-.024.854.09 1.287.095.288 0 .59-.14.864-.095.824.135 1.654.09 2.478.11.274.005.423.145.497.414.204.743.179.788-.576.778a13.198 13.198 0 0 1-1.406-.08c-.367-.04-.794-.155-1.182.05-.11.06-.273.035-.407.03-.497 0-.994-.02-1.486-.02-.452 0-.899.035-1.35.015-.487-.02-.974-.085-1.466-.11-.358-.02-.715.06-1.078.005-.353-.05-.715.01-1.073-.015a7.374 7.374 0 0 0-1.197 0c-.268.025-.546.045-.815-.095-.109-.06-.273-.03-.412-.015-.323.035-.616.175-.968.02-.194-.084-.487.09-.74.085-.348 0-.716-.145-1.039-.065a2.605 2.605 0 0 1-.993.06c-.805-.115-1.625-.01-2.414-.13-.815-.124-1.615-.04-2.42-.094-.253-.02-.496-.08-.75-.1-.134-.01-.268.035-.402.045-.273.02-.561.095-.82.04-.725-.15-1.43-.115-2.16-.01-.517.075-1.058-.03-1.59-.055-.1 0-.194-.035-.293-.035-1.917-.04-3.835-.085-5.757-.12-.81-.015-1.62.025-2.424-.114-.104-.02-.224.055-.338.064-.233.02-.487.085-.7.026a2.754 2.754 0 0 0-1.45-.02c-.18.044-.473-.105-.542-.26-.09-.214.05-.359.194-.448.278-.175.556-.36.919-.335.318.025.635 0 1.043 0l.005.015ZM63.998 65.106c-.536 0-1.078.04-1.61-.004-2.215-.205-4.435-.065-6.65-.115-.308-.005-.616-.08-.93-.115-.287-.03-.585.05-.873-.1a.585.585 0 0 0-.467 0c-.348.15-.7.1-1.053.1-.954.01-1.908.01-2.862 0-.293 0-.59.065-.874-.1-.074-.044-.209-.03-.288.005-.328.145-.646.15-.969.01-.05-.02-.124-.04-.168-.02-.457.2-.944.14-1.406.095-2.236-.214-4.476-.03-6.711-.124-.507-.02-1.018-.14-1.525-.09-.74.07-1.475-.04-2.21-.015-.775.025-1.55.005-2.325.005h-2.265c-.174 0-.348-.055-.522-.065-.189-.01-.392-.04-.571.015-.363.11-.7-.055-1.033-.03-.323.02-.666.14-.984.065a1.601 1.601 0 0 1-.884-.553c-.13-.155-.065-.275.07-.335.173-.08.367-.16.55-.16.408 0 .826-.084 1.233.096.114.054.273.02.412.01.785-.05 1.58.11 2.36-.09.481.164.963.13 1.44-.02a.33.33 0 0 1 .229.025c.308.16.62.14.948.09.1-.015.214-.035.293 0 .308.14.606.06.9-.01.422-.1.839.005 1.256.005 1.292 0 2.583-.005 3.875 0 .293 0 .586-.055.874.094.094.05.258-.04.392-.05.274-.02.567-.09.82-.03.571.135 1.118.16 1.684-.01.13-.04.278 0 .417-.014.467-.04.949.1 1.41-.09.438.194.9.04 1.347.095.502.06 1.003.14 1.505.199.174.02.363.06.527.025.76-.16 1.515-.184 2.275 0 .054.015.134.02.174-.005.273-.184.58-.085.869-.1.944-.05 1.892-.114 2.836-.11.522 0 1.038.145 1.555.23.184.03.343.145.546.015.1-.065.274-.015.413-.015h1.43c1.009-.01 2.017-.01 3.03-.095.954-.08 1.918.05 2.866.21.249.04.507.05.75.1.214.044.323.179.333.423.005.23-.08.399-.253.499-.11.064-.263.06-.397.064-.597.005-1.193 0-1.789 0v-.01ZM59.935 78.03c-1.351 0-2.702.005-4.053 0-.328 0-.67.09-.989-.1-.054-.03-.149.01-.228.02-.194.025-.383.075-.576.08-1.232.005-2.464.01-3.696 0-.392 0-.78.045-1.172-.1-.194-.07-.438-.045-.651-.005-1.058.19-2.111.12-3.174.035-.457-.035-.924.085-1.386.135-.134.015-.288.09-.402.05-.562-.195-1.138-.09-1.704-.105-.735-.02-1.47-.01-2.206 0-.213 0-.422.07-.636.084-.173.01-.347 0-.521-.02-.075-.004-.15-.07-.224-.06-.308.026-.636.145-.919.076-.328-.08-.6-.095-.909.024-.139.055-.313.015-.471.015h-4.53c-.264 0-.527.025-.79.01-.264-.015-.517-.07-.785-.015-1.277.255-2.564.1-3.845.11-.576 0-1.158-.14-1.734-.22-.164-.024-.332.175-.482-.01-.04-.05-.089-.154-.069-.179.169-.214.328-.439.666-.424.228.01.457-.064.69-.1.04-.004.085-.02.12-.004.441.18.869.1 1.32.01.438-.09.905-.07 1.357-.075.268 0 .531.055.8.055.332 0 .665.055.993-.1a.538.538 0 0 1 .402.02c.184.09.328.1.497-.015a.212.212 0 0 1 .174-.015c.561.195 1.113-.07 1.674-.015.571.055 1.152.015 1.728.01.135 0 .269-.035.403-.06.054-.01.129-.07.164-.05.501.28.998-.054 1.5-.01.367.035.735-.014 1.112.1.244.075.542-.025.815-.045.234-.015.482-.09.7-.035.547.14 1.078.17 1.62 0 .02-.005.04-.014.06-.01.6.205 1.206-.13 1.837.075.393.13.895.115 1.342-.06.154-.06.352-.025.531-.025h10.605c.437 0 .87-.054 1.307-.064.203 0 .412.064.616.06.352-.01.71.08 1.048-.105.064-.035.159-.02.233-.01.527.09 1.058.005 1.59.045.124.01.228.035.372 0 .239-.055.502-.015.755 0 .154.01.323.1.457.06.567-.17 1.153.104 1.714-.095.06-.025.15.035.224.04.168.005.342.025.506 0 .482-.09.934-.13 1.277.344.198.274.119.598-.219.678-.134.03-.278.01-.417.01h-4.411l-.01-.015Z" fill="#110176"/>
    <path d="M23.162 72.515c1.272 0 2.553.105 3.81-.01 1.962-.174 3.92-.03 5.876-.1.313-.01.621.026.934-.099.189-.075.447-.07.646-.005.71.22 1.41.065 2.116.025.229-.015.462.015.695.03.075.005.17.065.224.035.457-.21.939-.095 1.406-.1 2.245-.015 4.49-.015 6.735 0 .646 0 1.292.085 1.943.11.188.005.382-.06.576-.08.213-.02.447-.075.646-.02.293.085.566.17.844-.01.452.184.864-.02 1.291-.125.055-.015.13-.025.18 0 .496.285 1.037-.134 1.54.105.978-.23 1.966-.055 2.95-.105.134-.005.268.045.397.07.075.015.16.05.229.03.6-.18 1.197-.154 1.798 0a.604.604 0 0 0 .298 0c1.078-.244 2.17-.055 3.254-.105.238-.01.521.095.566.33.035.169-.105.413-.234.563-.119.14-.323.264-.496.279-.373.03-.75-.015-1.123-.03-.13 0-.258-.015-.383-.01-.114.005-.238.07-.342.05-.74-.15-1.476.06-2.21.015-.73-.045-1.471 0-2.206-.015-.273 0-.552.065-.815-.095-.08-.05-.228.005-.343.02-.253.025-.516.115-.755.065a2.924 2.924 0 0 0-.953-.06c-.308.035-.626-.05-.94-.04-.407.015-.814.085-1.226.11-.154.01-.308-.04-.462-.055-.11-.01-.224-.005-.333-.005h-.382c-.234 0-.462-.005-.69 0-.135.005-.274.075-.403.06-.7-.105-1.396.07-2.091 0-.368-.035-.736-.095-1.108-.11-.209-.01-.422.06-.636.08-.094.01-.189 0-.283-.015-.174-.02-.348-.04-.522-.075-.402-.09-.785.115-1.202.025-.397-.085-.83-.02-1.247-.025-.417 0-.834-.015-1.251 0-.368.02-.735.09-1.108.11-.189.01-.383-.045-.576-.075-.06-.01-.12-.045-.17-.035-.799.2-1.594-.104-2.393-.01a13.1 13.1 0 0 1-1.466.115c-.367 0-.735-.1-1.107-.105-.288 0-.587.13-.865.095-.62-.075-1.242.075-1.853 0-.491-.06-.998-.13-1.465-.08-1.585.165-3.164.055-4.744.095-.08 0-.159 0-.238.015-.462.085-.606-.085-.462-.553.015-.055 0-.12.005-.175.045-.045.09-.095.139-.14l-.015.035ZM62.37 37.345c-.354-.044-.776.09-1.178-.104-.09-.045-.229.015-.343.035-.094.015-.199.074-.278.054a3.885 3.885 0 0 0-1.972 0 .363.363 0 0 1-.179 0c-1.028-.214-2.066-.06-3.1-.11-.486-.024-.988.09-1.465-.114a.275.275 0 0 0-.179 0c-.482.16-.949.13-1.44.01-.264-.065-.562.03-.845.03-.273 0-.57-.095-.82-.03-.645.175-1.296.1-1.941.095-.686 0-1.372-.095-2.062-.105-.487 0-.974.08-1.465.105-.17.01-.348-.045-.517-.075-.06-.01-.124-.055-.169-.035-.646.294-1.306-.18-1.967.045-.214.075-.492-.045-.735-.045-1.967-.005-3.934 0-5.896-.01-.269 0-.542-.065-.81-.1-.06-.005-.124-.02-.174 0-.735.235-1.49.065-2.24.1-.248.01-.527-.154-.74-.085-.571.18-1.157.155-1.704.065-.695-.114-1.386-.114-2.061-.065-.507.04-1.014.105-1.525.09-.209-.005-.423-.065-.626-.124-.065-.02-.13-.125-.144-.205-.025-.115-.015-.224.154-.264.506-.12.983-.33 1.52-.384.472-.05.948-.155 1.405-.075.85.14 1.7.035 2.539.125.432.045.84-.01 1.256-.025.408-.015.815.045 1.232-.085.234-.075.542.025.8.105.412.13.795-.055 1.192-.06.333 0 .68-.115.994-.045.472.1.914.135 1.386 0 .238-.07.516-.055.77-.01.74.13 1.882.13 2.573 0a2.83 2.83 0 0 1 1.455.12c.288.105.517.08.785-.03.189-.08.442-.15.62-.09.373.13.74.09 1.114.095.536.01 1.072.01 1.609 0 .194 0 .382-.055.576-.08.134-.015.288-.065.407-.025.482.17.96.145 1.436.035.571-.13 1.108.065 1.664.115.075.005.159.065.214.04.382-.195.78-.095 1.177-.095.506 0 1.013-.085 1.525-.105.372-.015.735-.005 1.108.1a2.76 2.76 0 0 0 1.544-.005c.358-.11.651-.01.96.065.198.045.362.1.56.015.14-.06.308-.05.462-.05.477-.005.954-.01 1.43 0 .274 0 .537-.01.816.09.228.08.506.02.764 0 .314-.02.622-.09.93-.09.501 0 .933.384 1.018.882.01.055-.035.16-.08.175-.139.06-.293.114-.442.125-.278.02-.556.004-.884.004l-.015.005Z" fill="#110176"/>
    <path d="M23.162 72.516c-.045.044-.09.094-.139.14-.248-.04-.328.184-.472.303-.238.2-.417.225-.626.065-.328-.25-.387-.454-.243-.753.323-.673.79-1.201 1.386-1.66.427-.324.82-.718 1.073-1.241.268-.549 1.008-.713 1.535-.424.154.085.218.319.094.488-.298.41-.586.833-.924 1.207-.467.513-.979.987-1.46 1.486-.1.104-.15.259-.224.389ZM84.255 170.213l-.134-4.303c0-.115-.045-.23-.06-.344-.02-.155-.074-.319-.044-.464.238-1.122.129-2.263.08-3.38-.055-1.117-.22-2.234-.21-3.356 0-.314.005-.618.09-.937.08-.289-.02-.623-.03-.937-.01-.429-.015-.863-.015-1.292 0-.094.08-.199.055-.279-.219-.643-.075-1.301-.09-1.949-.01-.305.115-.609.17-.918.054-.294.213-.578.064-.892a.32.32 0 0 1 0-.235c.204-.498.084-1.022.11-1.53.034-.668.113-1.321.272-1.97.065-.264.134-.568.065-.817-.204-.703.03-1.356.104-2.035.05-.443.209-.822.373-1.221.11-.264.094-.583.139-.878.035-.229.05-.473.13-.688.148-.388.193-.787.243-1.201.074-.594.134-1.197.437-1.745.258-.469.377-.977.387-1.521.005-.239.12-.493.238-.708.174-.304.269-.613.224-.957-.055-.414.094-.763.263-1.127.259-.563.552-1.122.576-1.765 0-.055.015-.12.045-.169.398-.713.497-1.556.989-2.234.104-.145.124-.369.154-.559.074-.493.248-.937.566-1.331.13-.159.189-.374.273-.568.055-.125.06-.279.134-.384.303-.419.418-.927.547-1.401.099-.359.258-.663.462-.927.169-.225.283-.459.402-.703.457-.963.87-1.95 1.505-2.817.243-.334.204-.494-.045-.848-.248-.349-.472-.718-.705-1.077-.065-.1-.12-.199-.189-.294-.248-.344-.516-.663-.59-1.122-.055-.329-.309-.618-.453-.937-.218-.499-.377-1.022-.63-1.506-.567-1.092-1.203-2.144-1.76-3.241-.436-.862-.978-1.685-1.256-2.612-.124-.419-.308-.798-.502-1.182-.104-.209-.243-.399-.367-.593-.06-.1-.13-.195-.184-.299-.372-.773-.73-1.546-1.103-2.314-.452-.927-.904-1.855-1.37-2.777-.21-.414-.393-.838-.671-1.226-.224-.31-.358-.693-.477-1.062-.194-.629-.596-1.137-.91-1.69-.128-.23-.397-.21-.52.044a20.32 20.32 0 0 0-.612 1.391c-.228.579-.427 1.167-.65 1.75-.19.489-.462.953-.587 1.456-.144.559-.511 1.017-.615 1.571-.125.678-.423 1.291-.656 1.924-.17.454-.407.878-.596 1.326-.105.25-.154.519-.239.778-.054.165-.104.334-.174.494-.283.618-.606 1.216-.854 1.85-.248.628-.407 1.296-.646 1.929-.189.509-.432 1.002-.655 1.501-.125.284-.264.553-.328.872-.075.374-.263.728-.418 1.082-.293.658-.566 1.317-.76 2.015-.06.219-.208.418-.332.618-.115.179-.293.329-.378.518-.223.509-.636.848-.998 1.232-.432.459-.855.927-1.277 1.401-.387.434-.924.653-1.39.962a8.306 8.306 0 0 1-1.555.783c-.74.284-1.416.728-2.201.877-.288.055-.591.015-.884.04-.248.02-.502.065-.745.115-.264.055-.517.229-.78.01-.015-.01-.045-.015-.06 0-.343.204-.68.02-1.018-.005-.566-.045-1.142-.04-1.699-.135-.452-.079-.874-.314-1.326-.413-.835-.185-1.475-.763-2.27-1.038-.353-.124-.656-.413-.954-.668-.87-.743-1.704-1.515-2.434-2.408-.517-.628-.89-1.326-1.296-2.014-.264-.449-.393-.987-.82-1.336a.483.483 0 0 1-.159-.309c-.025-.688-.442-1.197-.75-1.755-.253-.459-.581-.888-.8-1.362-.323-.713-.85-1.306-1.137-2.029-.04-.104-.164-.169-.239-.264-.402-.479-.8-.967-1.207-1.446-.521-.613-1.093-1.192-1.57-1.84-.432-.583-1.023-1.022-1.38-1.68-.214-.389-.572-.698-.87-1.037-.68-.768-1.366-1.526-2.041-2.293-.154-.175-.249-.399-.402-.574-.289-.324-.552-.703-.91-.927-.938-.584-1.4-1.496-1.803-2.443-.243-.564-.362-1.192-.477-1.8-.05-.274.04-.578.08-.868.035-.249.084-.498.139-.748.04-.189.07-.388.144-.563.417-.922.939-1.765 1.823-2.318.278-.175.571-.324.844-.499.413-.26.905-.214 1.347-.354.486-.154.953-.015 1.395.165.249.1.303 0 .398-.18.218-.429.015-.847-.045-1.251-.08-.554-.114-1.092.005-1.64.025-.115.055-.24.04-.35-.16-.947-.105-1.9-.114-2.847v-1.555c0-.155.044-.31.05-.469.01-.25 0-.498 0-.748 0-.334-.09-.693 0-.992.094-.314.054-.558-.12-.768-.144-.174-.159-.344-.174-.543-.07-.838.144-1.596.596-2.294.095-.144.194-.344.338-.388.611-.21 1.128-.654 1.818-.678.75-.026 1.485-.205 2.25-.12.84.094 1.381.563 1.719 1.266a4.6 4.6 0 0 1 .417 1.446c.095.823.095 1.655.134 2.483.005.12.035.26-.01.354-.258.519-.208 1.072-.233 1.62-.015.285-.055.559 0 .843.055.284-.05.588.104.877.045.09-.084.255-.084.384-.01.619-.025 1.237 0 1.855.01.294.278.389.507.19.238-.205.447-.41.774-.504.641-.19 1.163.07 1.704.324.264.125.532.254.78.404.313.19.591.125.874-.06.229-.144.462-.299.71-.404.348-.14.73-.085 1.074 0 .71.185 1.43.37 2.011.863.269.224.512.184.775-.025.413-.324.86-.598 1.396-.688.214-.035 1.679.055 1.838.19.502.418 1.202.563 1.555 1.19.119.215.447.155.511-.084.293-1.147.746-2.243.974-3.415.139-.723.392-1.421.65-2.11.165-.438.329-.872.532-1.29.323-.664.631-1.322 1.083-1.93.397-.533.924-1.017 1.083-1.715.02-.085.114-.16.184-.23.58-.588 1.152-1.181 1.753-1.75.268-.254.542-.493.775-.777.209-.26.487-.439.79-.599.497-.264.939-.623 1.425-.907.448-.264.92-.499 1.386-.733a5.96 5.96 0 0 1 .8-.344c.512-.174 1.033-.324 1.55-.484.13-.04.268-.064.382-.124.279-.15.522-.28.87-.135.273.115.566-.08.834-.194.174-.07.323-.19.542-.05.104.07.318.025.457-.03.332-.135.68-.15 1.023-.22.367-.07.715-.054 1.073.026.323.07.656.084.983.13.115.014.224.054.333.094.09.035.184.13.263.115.765-.13 1.352.418 2.062.543.546.095 1.043.489 1.565.753.094.05.223.154.288.125.114-.055.243-.175.273-.295.11-.413.194-.837.253-1.261.04-.294-.119-.474-.407-.553-.13-.035-.258-.105-.392-.105-.512 0-.93-.25-1.376-.454-.641-.289-1.138-.748-1.655-1.197-.645-.558-1.003-1.29-1.291-2.069-.09-.239-.273-.448-.328-.688-.144-.633-.238-1.266-.045-1.92.1-.328.025-.692.13-1.046.283-.948.531-1.9.953-2.807.229-.489.323-1.037.492-1.556.234-.718.477-1.436.715-2.154.269-.822.507-.748-.337-1.196-.9-.479-1.287-1.292-1.66-2.12-.178-.393-.253-.877-.238-1.31.015-.394.204-.788.353-1.162a5.864 5.864 0 0 1 1.018-1.636c.164-.189.383-.344.606-.448.69-.324 1.44-.449 2.18-.608.497-.11.87.174 1.248.398.849.509 1.698 1.002 2.637 1.327.313.11.596.289.894.433.492.245.84.155.989-.428.139-.544.437-.998.61-1.516.403-1.197.885-2.363 1.267-3.57.15-.469.333-.907.507-1.361.258-.668.432-1.371.64-2.06.046-.149.08-.298.13-.448.14-.404.343-.768.372-1.221.02-.335.239-.654.373-.978.06-.144.154-.279.189-.428.044-.185 0-.39-.214-.43-.889-.154-1.172-.847-1.37-1.57-.1-.354-.105-.753-.06-1.117.124-.987.496-1.88 1.167-2.622.13-.145.303-.25.467-.354.755-.479 1.585-.693 2.464-.544.392.065.765.28 1.127.464.899.469 1.779.962 2.668 1.446.506.628 1.331.892 1.783 1.605.214.334.606.554.904.833 1.023.962 1.818 2.099 2.474 3.336.333.633.665 1.27.953 1.924.145.334.204.708.289 1.067.139.608.268 1.211.362 1.835.109.733.055 1.46.095 2.189 0 .04-.01.08 0 .12.233.852-.184 1.59-.413 2.358-.039.134-.049.214.045.309.502.503.889 1.091 1.217 1.715.412.788.73 1.625.566 2.538-.079.433-.079.862-.109 1.29-.01.17-.06.39-.174.484-.353.295-.467.733-.626 1.112-.298.703-.765 1.207-1.361 1.64a4.406 4.406 0 0 1-1.684.758c-.392.09-.755.215-1.167.11-.338-.085-.695.045-1.048-.11-.244-.11-.527.055-.581.354-.085.444-.408.803-.393 1.282.005.174-.114.384-.233.528-.348.42-.422.908-.472 1.421-.02.21-.119.41-.189.609-.199.568-.412 1.131-.606 1.7-.194.568-.348 1.151-.561 1.715-.258.693-.571 1.361-.835 2.054-.099.27-.134.568-.179.858-.009.064.035.17.085.199.055.03.169.02.223-.015.179-.12.353-.244.507-.399.437-.439.457-.444 1.172-.533.144-.02.293-.105.418-.195.477-.334.988-.553 1.584-.508.114.01.259.025.348-.03.646-.384 1.416-.384 2.091-.683.189-.085.412-.11.626-.115.517-.015 1.038.04 1.545-.015a7.514 7.514 0 0 1 1.674.025c.929.11 1.868.085 2.792.31.397.094.784.189 1.162.353.258.11.571.11.854.165.477.09.954.18 1.431.274.571.115 1.157.15 1.684.429.775-.05 1.495.254 2.24.374.879.144 1.749.339 2.628.508.78.15 1.564.29 2.339.444.437.09.865.22 1.302.309.531.11 1.068.24 1.604.274.596.035 1.138.23 1.704.364.636.155 1.252.429 1.937.374.204-.015.418.085.631.11 1.47.15 2.752.803 3.944 1.615.427.29.785.733 1.063 1.182.547.872.999 1.815 1.217 2.827a7.44 7.44 0 0 1 .129 2.373c-.064.658-.213 1.306-.362 1.95-.055.239-.273.433-.333.673-.154.613-.442 1.166-.73 1.715-.244.464-.586.882-.805 1.356-.353.758-.969 1.281-1.515 1.875-.358.388-.661.827-.989 1.241-.437.553-.869 1.107-1.311 1.65-.343.424-.68.848-1.137 1.177-.284.204-.497.563-.641.897-.273.634-.795 1.062-1.172 1.606-.254.369-.512.743-.924.972-.11.06-.169.21-.239.324-.184.314-.362.638-.546.953-.04.064-.075.154-.134.189-.572.329-.885.862-1.193 1.41-.084.15-.228.275-.362.395-.263.234-.278.493-.139.798a7.555 7.555 0 0 0 1.028 1.615c.159.194.328.389.472.598.174.255.323.514.576.713.139.11.239.324.278.504.095.424.408.673.711.912.164.13.263.225.337.434.1.284.274.583.502.783.571.508.904 1.186 1.351 1.775.139.179.244.379.432.518.09.065.144.18.199.284.159.29.348.569.447.878.114.369.07.788.258 1.147.015.03.015.089 0 .114-.253.344-.457.763-.784 1.007-.303.225-.701.374-1.158.21-.502-.185-.879.219-.75.743.159.663-.064 1.261-.656 1.54-.188.09-.462.035-.685 0-.383-.069-.765.075-.82.439-.104.693-.596 1.037-1.107 1.366-.244.155-.477.269-.467.614 0 .079-.075.179-.139.244-.428.414-.919.763-1.525.798-.586.034-1.133-.175-1.61-.534-.184-.14-.377-.299-.591-.364-.417-.125-.616-.429-.795-.783-.323-.633-.74-1.191-1.212-1.725-.372-.424-.68-.902-.998-1.371-.303-.449-.551-.932-.864-1.371-.194-.269-.452-.489-.701-.713-.054-.05-.194-.08-.243-.045-.065.045-.124.17-.109.249.109.614.233 1.222.352 1.835.045.23.109.464.105.693-.015.559.079 1.092.203 1.631.1.433.134.892.154 1.341.025.658 0 1.316.01 1.974.01.449-.02.898.094 1.356.08.324-.029.698-.059 1.052-.01.155-.075.329-.025.469.194.563.08 1.142.109 1.71.015.259 0 .519 0 .778.04 1.426.095 2.852.115 4.278.019 1.436-.055 2.872.024 4.303.05.917.1 1.834.095 2.752 0 .174-.045.349-.07.523-.01.075-.054.16-.04.23.254 1.341.005 2.697.135 4.038.064.673.01 1.351.119 2.004.159.973.035 1.94.104 2.907.03.404-.104.788-.025 1.207.08.404.02.832.02 1.251v1.257c0 .398 0 .792-.104 1.181-.03.105-.02.259.04.344.357.494.149 1.027.139 1.546 0 .134-.095.279-.065.399.07.289.065.563-.064.832-.025.05-.06.12-.045.165.218.578.049 1.182.099 1.77.01.134.02.294-.04.409-.094.184-.034.319.02.498.09.294.11.614.139.923.05.508.075 1.017.125 1.53.044.479-.1.933-.174 1.396-.015.11-.065.255-.02.329.164.27.228.529.074.823-.015.03-.005.08 0 .12.015.463.035.927.035 1.396 0 .458-.109.932-.01 1.361.095.404-.059.783.065 1.186.114.364.025.788.025 1.187 0 .419.01.838 0 1.257 0 .174-.05.344-.08.518-.01.06-.045.125-.03.17.219.578.09 1.181.105 1.77.01.573.119 1.126.208 1.685.075.463.04.952.025 1.431-.01.239-.328.513-.641.513-.67 0-1.336-.045-2.006-.075-.04 0-.08-.034-.11-.029-.521.139-1.018-.04-1.53-.105-.506-.065-1.033.005-1.545-.03-.367-.025-.725-.12-1.087-.185-.075-.015-.154-.039-.229-.039-.283 0-.442.214-.343.493.264.738.596 1.456 1.078 2.064a13.38 13.38 0 0 0 1.53 1.651 5.895 5.895 0 0 0 1.625 1.027c.536.224.894.648 1.231 1.077.353.438.631.937.949 1.401.164.244.273.508.328.797.099.514.368.988.293 1.546-.074.558-.293 1.017-.73 1.356a.927.927 0 0 1-.487.175c-.278.01-.536.114-.795.149-.387.05-.804-.01-1.142-.259-.407-.304-.795-.633-1.192-.947-.06-.05-.139-.125-.194-.115-.348.065-.527-.19-.775-.349-.377-.239-.79-.414-1.182-.623-.119-.065-.263-.12-.333-.225-.233-.354-.621-.423-.969-.468-.253-.03-.417-.14-.591-.28-.109-.084-.198-.254-.313-.269-.501-.065-.854-.359-1.182-.708-.045-.045-.169 0-.243-.03a12.816 12.816 0 0 1-.83-.413c-.889-.499-1.768-1.028-2.757-1.302-.268-.075-.347-.189-.357-.444-.03-.957-.07-1.914-.12-2.871-.014-.29-.079-.579-.119-.873-.039-.289-.104-.578-.104-.872 0-.494-.05-.973-.189-1.456-.064-.22.06-.494.035-.733-.025-.244-.238-.509-.184-.718.119-.469-.045-.878-.109-1.306-.015-.115-.06-.25-.03-.349.144-.444-.01-.883-.01-1.322 0-.513.005-1.017-.104-1.53-.179-.823-.194-1.676-.278-2.513-.085-.833-.06-1.66-.095-2.488 0-.1 0-.205-.03-.294-.293-.768-.322-1.571-.332-2.379 0-.249-.065-.498-.1-.752-.01-.06-.029-.135 0-.175.164-.249.035-.478.005-.728-.104-.997-.377-1.974-.263-2.991a4.69 4.69 0 0 0 0-.838c-.02-.249-.074-.498-.114-.748-.04-.249-.105-.498-.114-.748-.02-.478-.01-.957 0-1.436 0-.299.009-.588-.164-.857-.07-.105-.07-.264-.07-.399-.01-.399.015-.798-.005-1.197-.025-.468-.03-.952-.139-1.406a3.273 3.273 0 0 1-.089-.817c0-.788-.095-1.566-.229-2.344-.05-.289-.01-.598-.01-.897 0-.379.01-.758-.005-1.137 0-.1-.049-.264-.114-.289-.174-.065-.293.045-.353.219l-.641 1.875c-.044.13-.069.269-.139.384-.367.613-.457 1.316-.68 1.979-.189.564-.263 1.162-.576 1.701-.244.423-.348.942-.452 1.43-.164.783-.408 1.541-.512 2.339-.07.538-.243 1.062-.372 1.59-.19.778-.363 1.551-.457 2.349-.075.638-.244 1.261-.338 1.894-.105.698-.17 1.401-.254 2.099-.01.095-.03.195-.06.284a4.33 4.33 0 0 0-.188 1.337c0 .369-.08.738-.11 1.111-.03.349.045.708-.104 1.052-.06.135-.005.315-.014.474-.025.449.06.908-.105 1.351-.064.175-.05.404 0 .594.095.349.184.683 0 1.027-.025.054.02.149.045.224.104.334.005.648-.025.977-.03.314.124.648.07.987-.04.25-.154.529-.09.748.204.693.03 1.411.194 2.109.114.494.03 1.032.025 1.551 0 .633.1 1.246.223 1.865.075.384.085.777.14 1.166.114.813.128 1.636.332 2.438.075.299.05.639 0 .953-.035.219-.139.453-.412.518-.358.085-.65.359-1.048.339-.124-.005-.259.08-.378.14-.8.399-1.594.812-2.399 1.196-.472.225-.964.404-1.445.619-.497.219-.979.458-1.48.668-.766.324-1.55.618-2.31.962-.76.339-1.506.723-2.26 1.087-.055.025-.095.075-.15.095-.566.189-1.137.379-1.708.558-.13.04-.303.09-.403.035-.61-.344-1.396-.409-1.728-1.192-.174-.404-.522-.723-.641-1.171-.08-.304-.08-.574.054-.858.145-.299.264-.608.398-.912.09-.2.189-.374.422-.454.219-.075.412-.224.63-.299.205-.07.423-.11.632-.115.501-.02.884-.314 1.251-.578.284-.205.562-.419.865-.598.387-.235.755-.479 1.073-.818.179-.19.457-.284.665-.449.547-.439.855-1.067 1.257-1.62a.427.427 0 0 0 .065-.1c.258-.568.149-.748-.477-.748-.874 0-1.749-.01-2.618 0-.343.005-.685.01-1.023 0-.239 0-.402-.095-.586-.229-.636-.464-.914-1.127-.989-1.86-.1-.982-.119-1.974-.174-2.961h.055l-.02-.02ZM123.9 73.408v-.3c-.005-.498-.035-.543-.521-.697-.164-.05-.338-.08-.507-.11-.189-.035-.382-.055-.576-.095-.437-.085-.874-.18-1.312-.264l-1.823-.364a22.23 22.23 0 0 0-.566-.115c-.417-.08-.839-.154-1.257-.234-.417-.08-.834-.165-1.256-.24a.327.327 0 0 0-.229.036c-.238.16-.452.06-.665-.04-.09-.04-.179-.1-.269-.11-.586-.05-1.172-.085-1.758-.125-.313-.02-.616-.03-.934-.09-.452-.09-.939.04-1.401.05-.477.01-1.003-.194-1.455-.05-.646.21-1.316.14-1.957.325-.204.06-.418.08-.626.124-.571.115-1.148.2-1.704.36-.745.214-1.47.483-2.2.742-.239.085-.452.23-.686.324-.358.14-.73.25-1.088.394-.089.04-.159.165-.203.27a38.037 38.037 0 0 0-.691 1.61c-.109.27-.209.553-.238.838a4.09 4.09 0 0 1-.318 1.236c-.164.369-.338.758-.388 1.157-.05.418-.258.683-.546.937-.268.234-.566.424-.76.763-.522.892-1.366 1.44-2.25 1.92-.229.124-.522.224-.78.204-.865-.065-1.754.329-2.603-.1-.05-.025-.124.01-.174-.005-.551-.184-1.212-.12-1.57-.733-.054-.094-.188-.14-.268-.22-.367-.378-.795-.722-1.083-1.156-.372-.563-.616-1.212-.944-1.81a1.858 1.858 0 0 1-.144-1.53c.105-.325.005-.434-.352-.524a3.442 3.442 0 0 1-.383-.13c-.357-.144-.715-.294-1.078-.433a6.323 6.323 0 0 0-.66-.21c-.283-.07-.567-.17-.855-.17-.402 0-.77-.099-1.152-.179a11.06 11.06 0 0 0-.402-.07c-.616-.09-1.232.215-1.853 0-.065-.02-.154.02-.229.035-.174.025-.347.09-.516.075-.94-.07-1.813.235-2.688.484-.67.19-1.311.473-1.962.723-.288.11-.606.194-.854.369-1.123.802-2.42 1.35-3.378 2.388-.04.045-.1.065-.139.105-.134.134-.273.264-.392.408-.333.41-.611.883-1.004 1.222-.382.329-.655.753-1.023 1.087-.11.1-.154.27-.224.409-.05.1-.094.21-.149.309-.149.274-.308.538-.447.813-.104.209-.159.453-.293.633-.387.508-.556 1.121-.75 1.705-.268.813-.511 1.63-.87 2.408-.049.105-.093.214-.113.33a17.06 17.06 0 0 1-.467 1.864c-.249.797-.447 1.61-.641 2.423-.224.937-.66 1.825-1.028 2.727-.209.504-.204.663.203 1.037.115.105.244.205.383.264.228.1.482.145.71.245.73.319 1.456.653 2.18.977.388.174.76.389 1.163.504.452.13.89.259 1.307.483.253.14.531.245.8.354.63.254 1.276.469 1.887.763.63.304 1.252.623 1.932.808.144.04.278.134.418.204.312.155.61.364.943.444.388.095.725.274 1.078.429.124.054.239.144.363.189.492.18.765 0 .919-.499a30.64 30.64 0 0 1 .66-1.86c.18-.468.587-.837.572-1.39 0-.1.104-.205.164-.304.084-.15.213-.295.253-.46.139-.563.636-.652 1.063-.792.129-.04.377.1.482.224.223.265.412.569.576.878.363.688.695 1.391 1.043 2.09.407.817.815 1.629 1.222 2.447.015.035.015.075.03.115.084.239.144.483.253.708.179.369.403.713.586 1.077.194.384.333.792.552 1.161.472.783.85 1.611 1.242 2.434.119.244.213.503.337.742.313.604.641 1.197.949 1.805.388.768.765 1.541 1.148 2.314.208.418.422.832.63 1.246.08.16.18.309.229.474.209.738.636 1.371.919 2.074.154.379.397.718.581 1.082.1.189.149.404.243.593.259.524.517 1.047.795 1.561.13.239.303.448.462.673.134.189.318.219.527.169.978-.234 1.957-.468 2.935-.708.298-.074.601-.149.9-.219.188-.045.377-.085.566-.13.149-.035.308-.055.442-.124.735-.379 1.535-.554 2.329-.693.919-.16 1.794-.474 2.708-.644.491-.089.953-.319 1.435-.443.86-.22 1.754-.309 2.598-.609.442-.154.924-.094 1.351-.334.283-.159.606-.254.924-.334.224-.055.492.015.701-.069.864-.354 1.823-.374 2.677-.783.372-.18.829-.17 1.247-.269.695-.16 1.336-.569 2.091-.489.069.005.139-.065.214-.085.317-.09.635-.174.953-.264.268-.075.408-.229.408-.499 0-.169-.045-.344-.09-.513-.104-.394-.263-.778-.333-1.172-.149-.867-.581-1.645-.735-2.513-.104-.588-.407-1.146-.467-1.735-.054-.523-.258-.977-.402-1.461-.055-.184-.184-.354-.219-.538a24.813 24.813 0 0 0-.725-2.942c-.308-1.002-.675-1.979-.869-3.021-.139-.758-.417-1.49-.626-2.239-.084-.299-.129-.608-.214-.907-.203-.708-.437-1.411-.635-2.12-.115-.408-.224-.832-.264-1.256a3.5 3.5 0 0 0-.223-.902c-.214-.563-.482-1.122-.586-1.705-.1-.564-.293-1.082-.462-1.62-.144-.454-.075-.749.342-.938.224-.105.428-.28.606-.459.189-.19.353-.309.596-.114.174.14.373.17.552.045.283-.195.596-.16.909-.18.407-.025.829.095 1.227-.1.064-.03.179.05.273.06.452.055.919.195 1.356.14.691-.085 1.361-.31 2.062-.055.119.045.283-.045.432-.065.064-.01.159-.03.193 0 .264.23.542.16.835.075.412-.12.834-.21 1.272-.17.099.01.198 0 .298 0 .183-.01.288-.104.308-.294.039-.349.094-.698.119-1.052.035-.548.04-1.097.099-1.65.119-1.097.104-2.214.144-3.32.005-.18 0-.36.02-.534.07-.584.169-1.162.214-1.745.034-.454-.01-.918.01-1.376.024-.569.024-1.152.134-1.705.144-.718.074-1.451.218-2.164v-.025ZM93.102 173.822h3.393c.447 0 .58-.159.61-.603.05-.763-.322-1.516-.02-2.279.01-.024-.034-.064-.044-.104a1.802 1.802 0 0 1 .01-.987 1.79 1.79 0 0 0 .035-.778c-.164-.853-.124-1.72-.214-2.583-.035-.344.05-.708.065-1.047.014-.424.074-.823.159-1.231.099-.499.243-.998.02-1.506a.51.51 0 0 1 0-.354c.273-.733.223-1.491.223-2.249 0-.179-.01-.359.015-.538.064-.504.144-1.002.223-1.506.025-.154.065-.304.105-.454.04-.169.109-.339.129-.508.1-.788.174-1.576.278-2.363.055-.424.09-.858.224-1.257.159-.464.208-.952.347-1.411.17-.543.199-1.112.348-1.655.05-.185.085-.379.12-.569.084-.458.153-.922.253-1.381.034-.169.168-.314.213-.478.224-.823.442-1.651.651-2.478.179-.718.591-1.346.765-2.074.164-.668.497-1.297.735-1.95.417-1.151.78-2.328 1.366-3.41.109-.199.129-.449.184-.673.045-.17.054-.354.129-.509.139-.294.343-.528.725-.493.179.015.358.005.537 0 .422-.01.412.01.392.448-.01.27-.104.539-.104.813-.005.494 0 .977.094 1.471.099.514.045 1.052.119 1.585.095.718.015 1.456.13 2.184.089.579-.005 1.177.119 1.77.174.823.129 1.68.233 2.518.09.698-.005 1.421.139 2.124.11.524.005 1.052.1 1.581.134.757.178 1.53.139 2.303a7.67 7.67 0 0 0 0 .897c.02.27.074.539.119.808.035.229.094.459.109.693.02.339-.035.683.02 1.012.114.658.189 1.317.224 1.985.015.249.084.498.104.753.015.214.05.453-.02.648-.144.418-.099.802.025 1.211.074.259.104.539.124.808.02.379-.02.758.015 1.137.055.563.169 1.121.219 1.685.044.528.039 1.057.104 1.59.114.978.094 1.975.144 2.962.02.389.074.778.119 1.167.025.214.085.418.114.633.04.304.09.364.418.364.869 0 1.718.154 2.583.239.526.05 1.053.105 1.579.12.393.01.79-.16 1.173.109.109.075.307.015.466.015.457 0 .929-.069 1.366.025.418.095.82.065 1.232.095.428.035.855.075 1.287.12.233.025.462.08.69.094.378.02.755.035 1.128.005.119-.01.323-.164.328-.264.025-.454-.015-.907-.025-1.366-.01-.489-.015-.977-.015-1.466 0-.094.045-.189.04-.284-.025-.269-.085-.538-.095-.813-.015-.379 0-.757 0-1.136 0-.359.03-.718-.01-1.077-.039-.369.025-.728.005-1.092-.029-.469-.084-.938-.114-1.411-.04-.608.07-1.222-.109-1.83-.055-.189.05-.424.055-.638.009-.23.009-.464-.015-.693-.06-.549-.13-1.092.044-1.636.07-.214.229-.463-.054-.688-.075-.059-.03-.264-.045-.398-.03-.23-.075-.464-.094-.693-.015-.155 0-.315.01-.469.009-.16.054-.319.049-.479-.01-.229-.089-.464-.069-.693.064-.823-.174-1.635-.015-2.458.03-.164-.055-.344-.065-.518-.015-.334-.049-.673 0-.998.035-.199.075-.364 0-.563a1.054 1.054 0 0 1-.045-.523c.065-.384.035-.758.01-1.142-.019-.279-.089-.559-.029-.853a2.594 2.594 0 0 0 0-.892c-.045-.289-.134-.564.005-.848.019-.045 0-.119-.015-.174-.154-.484-.139-.963-.01-1.451.035-.13.059-.289.025-.409-.194-.643-.08-1.301-.11-1.95-.005-.119.03-.254-.02-.353-.233-.484.02-1.018-.168-1.501.099-.863.154-1.73-.04-2.588-.02-.095-.035-.214.005-.294.159-.299.119-.623.099-.932a14.978 14.978 0 0 1 0-1.895c.03-.489.035-.982-.094-1.471-.075-.284.005-.603.005-.907 0-.424-.02-.843-.015-1.267 0-.149.114-.329.059-.433-.163-.319-.089-.624-.074-.948.03-.558 0-1.117.015-1.675.01-.229.035-.484.134-.683.124-.249.124-.454-.02-.663-.358-.519-.273-1.112-.218-1.67.074-.763.084-1.302-.095-1.97-.059-.229-.154-.463-.059-.723.049-.139-.01-.314 0-.473.014-.404-.12-.808.029-1.212.035-.09.01-.209-.02-.309-.163-.603-.347-1.192-.134-1.835.075-.224.278-.508.035-.783-.035-.035-.005-.164.035-.219.149-.214.169-.409.015-.633-.06-.09-.045-.225-.065-.344-.045-.249-.064-.504-.139-.748-.025-.09-.159-.185-.253-.204-.149-.03-.338-.055-.467.009-.696.325-1.466.354-2.191.574-1.127.344-2.31.503-3.422.917-.09.035-.194.025-.288.04-.363.06-.735.095-1.093.18-.547.129-1.098.259-1.619.458-.532.2-1.093.24-1.635.404-.879.274-1.818.374-2.707.638-.407.125-.8.285-1.207.414-.238.075-.487.12-.735.175-.189.045-.393.05-.566.134-.393.185-.81.26-1.222.369-.616.16-1.277.17-1.828.549-.055.04-.16 0-.234.03-.81.254-1.694.229-2.459.663a1.463 1.463 0 0 1-.616.164c-.322.01-.606.125-.894.245-.124.049-.263.129-.382.114-.447-.06-.636.21-.805.549-.64 1.316-1.291 2.627-1.937 3.938-.199.399-.407.793-.576 1.207-.438 1.062-.85 2.129-1.277 3.196-.238.598-.521 1.182-.695 1.795-.184.633-.567 1.211-.542 1.899 0 .035-.04.07-.05.105-.317.853-.685 1.685-.839 2.603-.169 1.012-.571 1.974-.68 3.016-.08.748-.368 1.466-.532 2.204a32.273 32.273 0 0 0-.387 2.069c-.07.444-.08.897-.135 1.346a8.373 8.373 0 0 1-.153.923c-.174.782-.284 1.58-.314 2.383-.004.159.025.324-.01.478-.178.873-.233 1.75-.233 2.638 0 .568-.005 1.137-.09 1.71-.123.838-.148 1.695-.133 2.543.05 2.822-.135 5.644.094 8.466.06.718.14 1.466-.094 2.184a.458.458 0 0 0 0 .294c.168.339.094.703.104 1.052.045 1.625.08 3.25.12 4.876v.06c-.006.209.074.339.292.374.209.03.418.104.626.109.229 0 .487-.134.686-.069.73.229 1.5-.105 2.22.184.045.02.114-.01.174-.02.213-.03.422-.085.636-.085 1.053-.01 2.106 0 3.154 0v-.01ZM44.223 93.855c0 .458.005.917 0 1.376 0 .134-.024.274-.07.399-.123.324-.262.394-.59.344-.234-.04-.283-.115-.288-.494-.01-.713.03-1.42-.114-2.129-.04-.2-.095-.309-.303-.369-.686-.2-1.302-.06-1.873.324a6.84 6.84 0 0 0-.88.673c-.536.494-1.092.973-1.365 1.68-.13.34-.279.659-.13 1.058.11.284.085.618.145.922a.99.99 0 0 0 .168.359c.338.449.696.892.9 1.426.153.399.302.748.68 1.037.541.414.884 1.037 1.227 1.63.11.185.228.364.363.529.258.319.536.628.8.947.337.404.665.818 1.003 1.227.129.149.293.274.407.433.233.329.422.693.795.908.1.06.129.229.203.339.264.399.507.803.88 1.137.323.289.73.533.879.982.104.314.333.523.536.763.482.548 1.088.982 1.436 1.66.516 1.002 1.023 2.009 1.594 2.986.452.768.805 1.591 1.212 2.384.105.204.274.379.383.583.417.773.84 1.546 1.227 2.333.278.569.556 1.127 1.063 1.536.06.05.119.11.159.174.303.509.725.868 1.256 1.112.145.065.298.11.418.205.74.583 1.55 1.022 2.459 1.261.114.03.218.085.327.125.13.045.259.104.388.109.487.025.919.35 1.425.275.045-.005.1.055.154.084.353.185.72.16 1.088.07.095-.025.19-.065.283-.06.631 0 1.237-.144 1.853-.234 1.148-.164 2.216-.583 3.254-1.057.63-.289 1.202-.713 1.798-1.077.412-.249.75-.548.85-1.067.03-.159.173-.304.287-.434.184-.209.408-.383.582-.598.472-.568.973-1.132 1.152-1.875.094-.383.263-.727.422-1.086.144-.339.313-.693.333-1.047.01-.22.035-.389.14-.579a7.429 7.429 0 0 0 .675-1.6c.179-.633.422-1.252.63-1.875.06-.184.04-.449.165-.548.347-.285.417-.688.556-1.062.104-.29.174-.599.233-.903.11-.523.447-.952.587-1.451.248-.872.63-1.67 1.097-2.438.05-.084.16-.144.18-.234.108-.474.213-.952.282-1.431.03-.189-.06-.374-.268-.474-.581-.269-1.142-.618-1.748-.797-.467-.14-.93-.29-1.362-.499-.968-.454-1.912-.957-2.92-1.321-.8-.289-1.59-.588-2.36-.963-.432-.209-.894-.363-1.341-.548-.432-.174-.854-.384-1.296-.518-.73-.225-1.446-.46-2.017-1.008-.174-.164-.368-.114-.477.125-.14.3-.273.603-.358.922-.08.305-.178.579-.342.853-.16.264-.164.623-.239.942 0 .02-.015.035-.02.055-.04.19-.084.379-.119.569-.025.134-.015.279-.065.403a19.678 19.678 0 0 0-.79 2.493c-.119.484-.362.938-.586 1.391-.129.27-.258.534-.223.833.06.499-.09.927-.383 1.321-.089.125-.124.299-.233.394-.164.15-.362.339-.556.349-.224.015-.15-.309-.254-.464-.044-.069-.01-.194-.015-.294-.024-.678.229-1.301.408-1.939.169-.618.367-1.227.556-1.84.12-.389.234-.783.348-1.172l.238-.777c.18-.574.353-1.152.527-1.725.144-.484.293-.963.427-1.451.075-.28.114-.574.194-.853.08-.28.179-.553.288-.823.278-.688.497-1.386.646-2.114.144-.718.357-1.426.61-2.119.08-.219.055-.518-.014-.752-.254-.848-.855-1.372-1.66-1.7-.382-.155-.774-.095-1.162-.12-.313-.02-.561.09-.805.284-.407.329-.854.613-1.271.932-.214.165-.363.105-.507-.07-.139-.164-.258-.344-.392-.508-.437-.549-1.073-.753-1.69-1.007-.49-.205-.878-.06-1.26.194-.403.27-.448.499-.254.962.04.09.114.18.114.27 0 .124-.025.269-.094.364-.12.16-.298.08-.408-.005-.298-.23-.58-.479-.67-.873-.06-.26-.174-.493-.402-.628-.418-.25-.87-.444-1.357-.509-.59-.08-.933.29-1.227.743-.471.718-.6 1.556-.814 2.364-.09.339-.105.698-.124 1.047-.02.418.005.837-.005 1.256-.015.543-.254.708-.785.563a.665.665 0 0 1-.482-.807c.04-.17.084-.35.07-.519-.035-.548.114-1.112-.1-1.645.273-.414-.025-.863.085-1.301.08-.305-.095-.668-.025-.973.114-.503-.12-1.002.04-1.495a.41.41 0 0 0-.045-.285c-.095-.16-.035-.284.015-.443.208-.629.169-1.262.08-1.92-.08-.583-.03-1.186-.016-1.78 0-.234.11-.468.08-.693-.045-.349-.094-.683.11-.997-.06-.663-.11-1.326-.18-1.984-.01-.075-.109-.135-.169-.205-.074.085-.193.155-.213.25-.114.583-.407 1.091-.646 1.625-.218.493-.63.728-1.123.862-.109.03-.223.07-.332.1-.433.115-.865.245-1.317.045-.198-.085-.367.03-.397.23-.055.368-.12.737-.124 1.106-.015 1.416 0 2.832-.01 4.243 0 .459.119.898.035 1.386-.135.768 0 1.576-.14 2.364-.074.423-.014.872-.014 1.31l.014.026Zm66.329-38.411c.07-1.127-.119-1.62-.581-2.463-.268-.489-.502-.997-1.098-1.232-.387-.154-.755-.418-1.063-.708-.348-.329-.661-.618-1.177-.513-.085.015-.194-.09-.273-.065-.134.035-.308.045-.323.264-.03.529-.075 1.057-.119 1.59-.035.39-.075.779-.125 1.167-.024.215-.079.42-.114.634-.025.154-.482.593-.641.603-.193.01-.412-.18-.427-.374-.054-.558.109-1.092.169-1.635.04-.384.258-.743.169-1.152a3.842 3.842 0 0 1-.094-.633c-.02-.494 0-.977-.11-1.471-.213-.967-.337-1.96-.74-2.877-.278-.643-.516-1.306-.964-1.865a5.94 5.94 0 0 1-.571-.877c-.367-.683-.949-1.172-1.525-1.64-.675-.554-1.43-1.003-2.155-1.496-.239-.165-.458-.105-.557.164a34.86 34.86 0 0 0-.407 1.212c-.11.349-.06.474.243.643.189.1.383.2.576.29.736.343 1.416.767 1.938 1.405.208.255.377.544.576.808.348.479.621.992.745 1.57.065.305.144.604.204.913.049.254-.095.424-.293.533-.204.115-.333-.044-.452-.18-.09-.104-.149-.228-.234-.333-.233-.28-.164-.633-.248-.952-.244-.943-.875-1.646-1.486-2.359-.034-.04-.099-.065-.148-.09-.433-.219-.86-.443-1.297-.648-.363-.17-.556-.08-.77.26-.164.264-.149.563-.243.837-.239.718-.532 1.416-.765 2.14a71.688 71.688 0 0 1-1.843 5.035c-.03.07-.075.145-.075.22-.005.617-.372 1.101-.616 1.63-.134.289-.447.359-.745.244-.76-.294-1.52-.574-2.275-.873-.253-.1-.487-.274-.745-.334-.8-.194-1.51-.603-2.26-.917-1.152-.479-2.032-.01-2.657.927-.507.763-.22 1.66-.343 2.488-.01.065.07.135.1.21a3.153 3.153 0 0 0 1.435 1.58c.144.08.318.234.337.374.035.26.09.494.209.728.05.095.06.24.035.344-.124.529-.224 1.062-.462 1.56-.13.265-.015.444.268.454.318.01.64.045.949-.005.566-.1 1.162-.114 1.644-.518.124-.105.313-.16.482-.185.338-.05.61.095.69.324.07.2-.104.544-.357.693-.05.03-.11.035-.17.05-.238.075-.481.145-.72.225-1.152.379-1.837.508-2.99.518-.144 0-.343.03-.402.264-.1.394-.239.778-.353 1.167-.144.484-.238.982-.472 1.441-.183.359-.313.753-.457 1.132-.035.09-.025.194-.02.294.025.588 0 1.177.095 1.77.144.847.556 1.536 1.068 2.174.238.294.462.618.8.837.54.354 1.087.663 1.718.843.398.11.82.135 1.187.26.467.154.87.014 1.257-.085 1.009-.255 1.749-.938 2.33-1.785.278-.4.462-.868.765-1.242.328-.404.531-.843.72-1.321.154-.39.447-.728.69-1.082.12-.175.303-.185.482-.13.18.055.19.22.204.39.035.448-.084.857-.293 1.24-.437.818-.706 1.73-1.282 2.479-.07.09-.114.204-.169.309-.04.07-.06.16-.114.2-.646.408-1.013 1.136-1.699 1.5-.134.07-.263.154-.407.194a5.742 5.742 0 0 1-1.674.25c-.596-.005-.76.249-.62.832.034.145.039.31.014.454-.094.519-.084 1.052-.293 1.55-.055.13.005.31.03.47.015.114.07.224.074.338.07 1.137.581 2.094 1.207 3.002.403.588.984.982 1.615 1.251.685.294 1.4.569 2.18.344.333-.094.686-.14 1.009-.254.755-.264 1.237-.868 1.709-1.47.377-.48.69-1.003.834-1.596.06-.25.134-.44.308-.609.308-.289.497-.638.566-1.067.045-.259.144-.513.363-.718a1.13 1.13 0 0 0 .323-.543c.109-.474.174-.957.248-1.44.11-.719.229-1.432.765-1.985a.712.712 0 0 0 .179-.354c.059-.304.059-.628.139-.928.134-.523.194-1.072.631-1.485.169-.16.288-.45.293-.683.005-.34.124-.614.268-.893.268-.508.407-1.047.472-1.615.025-.225.124-.45.214-.658.193-.46.457-.898.596-1.377.139-.468.253-.942.501-1.366.164-.284.219-.573.239-.897.035-.464.144-.922.223-1.381.04-.235.174-.29.408-.24.735.15 1.485.21 2.23.15.71-.06 1.371-.284 1.902-.788a9.314 9.314 0 0 0 1.302-1.52c.417-.609.725-1.212.581-1.865h.005Zm6.681 46.717c.03.568-.03 1.137.09 1.71.074.344.203.673.253 1.017.104.743.442 1.406.67 2.104.318.968 1.178 1.551 1.674 2.394 1.063.952 1.664 2.268 2.583 3.34.234.274.418.608.661.893.328.383.611.807.889 1.231.522.803 1.118 1.516 2.057 1.835a1.9 1.9 0 0 0 .745.085c.248-.015.437-.325.343-.524a5.265 5.265 0 0 0-.487-.868c-.492-.678-1.019-1.336-1.515-2.014-.388-.533-.86-1.017-1.088-1.66a.335.335 0 0 0-.07-.095c-.556-.503-1.028-1.087-1.455-1.7-.288-.414-.691-.748-.884-1.236-.08-.2.074-.743.243-.838.124-.07.502.03.651.184.05.055.074.135.114.2.144.234.268.479.437.693.566.748 1.153 1.481 1.729 2.219.228.294.482.568.68.882.249.389.447.808.875 1.052.139.08.213.274.327.404.363.414.497.972.939 1.346.507.429.502.459.959-.015.288-.299.308-.309.114-.658-.228-.404-.497-.793-.755-1.182-.502-.743-1.003-1.48-1.515-2.218-.367-.529-.651-1.122-1.157-1.546-.075-.065-.164-.13-.204-.214-.273-.579-.715-1.027-1.132-1.496-.154-.17-.264-.384-.373-.593-.139-.26-.06-.763.124-.928.169-.149.517-.089.79.175.124.114.199.279.293.424.055.079.094.169.149.249.462.673.82 1.416 1.376 2.034.492.549.894 1.182 1.401 1.735.382.419.79.848.919 1.456a.945.945 0 0 0 .556.658c.402.18.82.334 1.232.494.099.035.253.089.308.045.109-.095.219-.24.238-.379.03-.165-.019-.349-.054-.524-.119-.593-.403-1.072-.865-1.486-.342-.309-.596-.723-.884-1.092-.119-.154-.213-.329-.342-.473-.641-.693-1.073-1.536-1.714-2.234-.472-.513-.845-1.122-1.222-1.71-.174-.269-.393-.518-.407-.892-.01-.215-.03-.359.163-.474.259-.16.452-.175.641.015.189.194.328.444.517.638.492.509.884 1.097 1.306 1.66.199.265.388.539.567.818.119.18.198.384.327.553.293.389.582.793.914 1.147.229.24.274.559.447.813.522.763 1.342 1.097 2.166 1.411.055.02.119 0 .179.01.353.075.492-.2.676-.404.218-.244.059-.459-.06-.643-.328-.484-.686-.947-1.033-1.416-.432-.579-.86-1.162-1.302-1.73-.491-.633-.874-1.351-1.475-1.895-.045-.04-.094-.08-.124-.129-.412-.743-.899-1.421-1.52-2.01-.08-.075-.119-.199-.179-.304-.368-.623-.69-1.286-1.465-1.521-.12-.034-.229-.154-.308-.264-.174-.219-.189-.419-.015-.633.342-.414.506-.962.988-1.261.075-.05.114-.155.174-.235.388-.488.775-.982 1.172-1.466.423-.518.85-1.027 1.282-1.535.268-.314.556-.614.81-.938.546-.688 1.073-1.39 1.609-2.089.154-.199.298-.413.477-.593.546-.538 1.083-1.087 1.44-1.78.045-.085.13-.15.189-.23.457-.573.924-1.141 1.371-1.724.179-.23.278-.569.507-.703.482-.29.636-.763.74-1.217.129-.573.412-1.062.68-1.55.502-.913 1.068-1.785 1.034-2.882.253-.678.094-1.401.208-2.104.169-1.047-.134-2.054-.64-2.997a3.47 3.47 0 0 0-1.039-1.171 5.239 5.239 0 0 0-2.225-.938c-.536-.1-1.078-.15-1.609-.279-1.004-.244-2.022-.379-3.03-.568-.552-.105-1.108-.17-1.65-.34-.72-.219-1.47-.333-2.21-.488-.248-.05-.497-.075-.745-.12-.209-.04-.283.095-.338.25-.035.11-.05.229-.055.349-.024.608.035 1.221-.109 1.83-.074.318-.055.658-.109.992-.055.324.03.673-.015 1.017-.04.294.03.603-.02.892-.144.878-.228 1.75-.233 2.638 0 .249-.075.498-.12.748-.034.209-.099.418-.109.633-.05 1.206-.074 2.413-.129 3.62-.02.408-.07.822-.164 1.221-.065.28-.084.528.01.803.114.339.055.638-.238.907-.269.25-.482.564-.676.878-.348.563-.661 1.146-.993 1.725-.438.758-.88 1.52-1.312 2.278-.472.828-.939 1.656-1.411 2.478-.114.205-.233.404-.357.603-.134.215-.244.424-.492.559-.204.115-.387.349-.482.573a14.233 14.233 0 0 0-.546 1.536c-.263.887-.432 1.795-.353 2.732v.02Zm-8.102-53.573s.03 0 .05-.005c-.055-.408-.169-.817-.154-1.221.03-.783-.243-1.5-.382-2.249a7.269 7.269 0 0 0-.423-1.39c-.203-.5-.467-.973-.715-1.457-.204-.398-.392-.812-.646-1.176a82.352 82.352 0 0 0-1.833-2.498c-.317-.424-.621-.868-.998-1.227-.437-.413-.969-.718-1.426-1.111-.501-.434-1.078-.698-1.708-.848-.328-.08-.636-.16-.895-.394-.089-.085-.248-.11-.377-.135-.695-.144-1.326.105-1.942.37a.631.631 0 0 0-.323.328c-.239.604-.68 1.167-.378 1.885.03.07 0 .16.005.24.03.727.413 1.186 1.133 1.365.144.035.288.1.412.18.457.294.874.673 1.361.888 1.004.438 1.659 1.3 2.509 1.919.328.558.884.937 1.182 1.53.218.434.571.798.775 1.232.67 1.426 1.271 2.882 1.44 4.477.025.23.249.42.428.384.322-.064.65-.104.958-.214.462-.165.879-.125 1.282.14.049.034.099.08.154.09.283.06.541-.04.511-.38-.019-.239 0-.478 0-.718v-.005Zm-.645 124.038c-.159 0-.318-.005-.477 0-.368.015-.537.179-.547.543-.01.334-.029.673.12.992.054.12.104.26.114.389.05.748.119 1.496.114 2.244-.005.653.293 1.072.825 1.371.695.389 1.42.733 2.081 1.172 1.142.752 2.404 1.286 3.576 1.979.82.484 1.684.887 2.489 1.406.551.354 1.177.598 1.788.848.388.159.661-.05.681-.464a2.032 2.032 0 0 0-.124-.868c-.149-.389-.368-.728-.606-1.057-.413-.573-.83-1.151-1.356-1.625-.1-.09-.209-.209-.328-.229-.586-.1-1.024-.474-1.466-.798a7.665 7.665 0 0 1-1.341-1.311c-.422-.529-.755-1.132-1.127-1.701-.02-.034-.055-.064-.06-.104-.055-.693-.621-1.162-.785-1.81-.03-.125-.144-.229-.189-.354-.104-.274-.278-.419-.581-.394-.159.01-.323.03-.477-.01-.765-.194-1.559-.08-2.329-.229l.005.01Zm-16.388 2.473-.01.04c-.178 0-.357-.015-.536 0-.164.015-.288.059-.204.299.055.154 0 .344-.02.518-.06.524-.362.913-.645 1.341-.686 1.027-1.595 1.83-2.494 2.653a.66.66 0 0 1-.094.07c-.442.244-.88.498-1.331.723-.73.364-1.48.693-2.21 1.057-.632.314-.796.922-.423 1.5.382.599 1.048.738 1.644.389.15-.085.303-.169.462-.229.447-.165.83-.509 1.341-.504.055 0 .114-.035.16-.069.605-.489 1.385-.584 2.056-.938.268-.139.551-.294.889-.259.1.01.208-.09.313-.145.814-.408 1.629-.822 2.444-1.231.05-.025.114-.02.169-.04.526-.199 1.082-.339 1.564-.608.567-.319 1.172-.484 1.764-.718.159-.065.352-.24.382-.389.085-.484.124-.977.134-1.466.01-.528.025-1.057-.09-1.59-.094-.419-.252-.674-.61-.604-.323.065-.636.175-.959.215-.228.03-.467-.02-.7-.035-.293-.02-.586-.055-.874-.05-.249.005-.502.065-.75.1-.229.034-.457.104-.686.094-.229-.005-.452-.089-.68-.134l-.005.01Zm23.799-86.056c-.576 0-1.153.01-1.724 0-.293-.005-.551.065-.735.294-.069.085-.129.21-.119.31.035.289.094.573.174.852.288 1.007.591 2.01.874 3.022.07.239.109.498.119.748.02.498.1.967.427 1.37.085.1.174.255.159.37-.059.478.194.872.313 1.3.06.205-.015.484.1.63.372.473.447 1.026.566 1.575.015.064.119.114.184.17.054-.066.154-.13.154-.2.015-.44.174-.833.298-1.242.198-.668.606-1.216.874-1.84.184-.423.437-.777.755-1.111.238-.25.392-.579.581-.873.085-.13.149-.274.234-.404.352-.533.735-1.052 1.063-1.605.248-.414.407-.883.65-1.297.293-.503.646-.972.954-1.47a1.42 1.42 0 0 0 .184-.544c.02-.18-.149-.359-.288-.279-.343.19-.646 0-.964-.01-.228-.005-.462.07-.695.075-.293.01-.586 0-.875-.015-.188-.005-.397-.075-.571-.025a5.167 5.167 0 0 1-1.565.2c-.377-.01-.755 0-1.127 0ZM46.344 78.528c-.447-.11-.77.16-1.072.439-.269.25-.591.489-.572.922.03.649.07 1.297.13 1.94.01.1.099.214.183.29.442.403 1.272.233 1.605-.265.367-.554.362-1.182.452-1.79.05-.334.06-.663.293-.927.11-.12.05-.21-.035-.305-.263-.294-.601-.344-.988-.299l.004-.005Z" fill="#110176"/>
    <path d="M99.604 48.439c-.005.523-.228.798-.725.897-.219.045-.467-.09-.571-.324-.06-.14-.09-.299-.144-.438-.194-.47.044-.873.531-.903.12-.01.239-.005.353 0 .372.015.531.17.551.534v.239l.005-.005Z" fill="#110176"/>
  </g>
  <defs>
    <clipPath id="a">
      <path d="M0 0h160v160H0z" fill="#fff"/>
    </clipPath>
  </defs>
</svg>