<?xml version="1.0" encoding="utf-8"?>
<svg xmlns="http://www.w3.org/2000/svg" fill="none" height="86" viewBox="0 0 252 86" width="252">
<g clip-path="url(#clip0_425_136)">
<path d="M0.5 46.8195H46.8756V0.616089H0.5V46.8195Z" fill="#42B163"/>
<path d="M40.0343 20.2737L13.7306 39.3108L17.5688 27.5452L7.52148 20.2737H19.9405L23.7779 8.50732L27.6153 20.2737H40.0343ZM23.7788 32.0401L30.9624 30.5347L33.8245 39.3108L23.7788 32.0401Z" fill="white"/>
<path d="M51.748 46.8195H98.1236V0.616089H51.748V46.8195Z" fill="#42B163"/>
<path d="M51.748 46.8195H74.9358V0.616089H51.748V46.8195Z" fill="#42B163"/>
<path d="M75.491 31.8604L81.6509 30.5341L84.5 39.5095L74.8398 32.3264L64.8028 39.5095L68.6984 27.7012L58.5 20.4034H71.1056L74.9996 8.59424L78.8952 20.4034H91.5L75.491 31.8604Z" fill="white"/>
<path d="M103.032 46.8195H149.408V0.616089H103.032V46.8195Z" fill="#42B163"/>
<path d="M103.032 46.8195H126.22V0.616089H103.032V46.8195Z" fill="#42B163"/>
<path d="M142.567 20.2737L116.264 39.3108L120.102 27.5452L110.055 20.2737H122.474L126.311 8.50732L130.149 20.2737L142.567 20.2737ZM126.312 32.0401L133.496 30.5347L136.358 39.3108L126.312 32.0401Z" fill="white"/>
<path d="M154.315 46.8195H200.691V0.616089H154.315V46.8195Z" fill="#42B163"/>
<path d="M154.315 46.8195H177.503V0.616089H154.315V46.8195Z" fill="#42B163"/>
<path d="M193.849 20.2737L167.546 39.3108L171.383 27.5452L161.336 20.2737H173.755L177.592 8.50732L181.43 20.2737L193.849 20.2737ZM177.593 32.0401L184.777 30.5347L187.639 39.3108L177.593 32.0401Z" fill="white"/>
<path d="M206 47.2034H252.376V1H206V47.2034Z" fill="#42B163"/>
<path d="M206 47.2034H229.188V1H206V47.2034Z" fill="#42B163"/>
<path d="M245.533 20.6576L219.23 39.6947L223.068 27.9291L213.021 20.6576H225.439L229.277 8.89124L233.114 20.6576L245.533 20.6576ZM229.278 32.424L236.461 30.9186L239.324 39.6947L229.278 32.424Z" fill="white"/>
</g>
<g clip-path="url(#clip1_425_136)">
<path d="M95.5746 65.5083H108.318V67.866H103.307V81.12H100.552V67.866H95.5635V65.5083H95.5746ZM107.773 69.8161H110.129V71.9976H110.173C110.251 71.6891 110.395 71.3916 110.607 71.1052C110.818 70.8187 111.073 70.5433 111.373 70.3119C111.673 70.0695 112.006 69.8822 112.373 69.728C112.74 69.5848 113.117 69.5076 113.495 69.5076C113.784 69.5076 113.995 69.5187 114.106 69.5297C114.217 69.5407 114.328 69.5627 114.451 69.5737V71.9756C114.273 71.9425 114.095 71.9205 113.906 71.8984C113.717 71.8764 113.54 71.8654 113.362 71.8654C112.94 71.8654 112.54 71.9535 112.162 72.1188C111.784 72.284 111.462 72.5374 111.184 72.8569C110.907 73.1875 110.684 73.5841 110.518 74.0689C110.351 74.5536 110.273 75.1045 110.273 75.7325V81.109H107.762V69.8161L107.773 69.8161ZM125.994 81.12H123.528V79.5445H123.483C123.172 80.1175 122.717 80.5692 122.106 80.9107C121.494 81.2522 120.872 81.4285 120.239 81.4285C118.739 81.4285 117.65 81.065 116.984 80.3268C116.317 79.5886 115.984 78.4759 115.984 76.9885V69.8161H118.495V76.7461C118.495 77.7377 118.684 78.4428 119.072 78.8504C119.45 79.2581 119.995 79.4674 120.683 79.4674C121.217 79.4674 121.65 79.3903 122.006 79.225C122.361 79.0598 122.65 78.8504 122.861 78.575C123.083 78.3106 123.239 77.9801 123.339 77.6055C123.439 77.2309 123.483 76.8232 123.483 76.3825V69.8271H125.994V81.12ZM130.271 77.4953C130.349 78.2224 130.627 78.7293 131.105 79.0267C131.594 79.3132 132.171 79.4674 132.849 79.4674C133.082 79.4674 133.349 79.4454 133.649 79.4123C133.949 79.3793 134.238 79.3022 134.493 79.203C134.76 79.1038 134.971 78.9496 135.149 78.7513C135.315 78.553 135.393 78.2996 135.382 77.9801C135.371 77.6606 135.249 77.3961 135.027 77.1978C134.804 76.9885 134.527 76.8342 134.182 76.702C133.838 76.5808 133.449 76.4707 133.005 76.3825C132.56 76.2944 132.116 76.1952 131.66 76.0961C131.194 75.9969 130.738 75.8647 130.305 75.7215C129.871 75.5783 129.483 75.3799 129.138 75.1265C128.794 74.8842 128.516 74.5647 128.316 74.179C128.105 73.7934 128.005 73.3197 128.005 72.7468C128.005 72.1298 128.161 71.623 128.46 71.2043C128.76 70.7857 129.149 70.4551 129.605 70.2017C130.071 69.9483 130.583 69.7721 131.149 69.6619C131.716 69.5627 132.26 69.5076 132.771 69.5076C133.36 69.5076 133.927 69.5737 134.46 69.6949C134.993 69.8161 135.482 70.0144 135.915 70.3009C136.349 70.5763 136.704 70.9399 136.993 71.3806C137.282 71.8213 137.46 72.3612 137.537 72.9892H134.915C134.793 72.3942 134.527 71.9866 134.093 71.7883C133.66 71.5789 133.16 71.4798 132.605 71.4798C132.427 71.4798 132.216 71.4908 131.971 71.5238C131.727 71.5569 131.505 71.612 131.282 71.6891C131.071 71.7662 130.894 71.8874 130.738 72.0417C130.594 72.1959 130.516 72.3942 130.516 72.6476C130.516 72.9561 130.627 73.1985 130.838 73.3858C131.049 73.5731 131.327 73.7273 131.671 73.8595C132.016 73.9807 132.405 74.0909 132.849 74.179C133.293 74.2672 133.749 74.3663 134.216 74.4655C134.671 74.5647 135.115 74.6969 135.56 74.8401C136.004 74.9833 136.393 75.1816 136.738 75.435C137.082 75.6884 137.36 75.9969 137.571 76.3715C137.782 76.7461 137.893 77.2199 137.893 77.7707C137.893 78.4428 137.737 79.0047 137.426 79.4784C137.115 79.9412 136.715 80.3268 136.226 80.6132C135.738 80.8997 135.182 81.12 134.582 81.2523C133.982 81.3845 133.382 81.4506 132.793 81.4506C132.071 81.4506 131.405 81.3734 130.794 81.2082C130.183 81.0429 129.649 80.8005 129.205 80.481C128.76 80.1505 128.405 79.7429 128.149 79.2581C127.894 78.7733 127.761 78.1894 127.738 77.5173H130.271V77.4953ZM138.56 69.8161H140.459V66.4228H142.97V69.8161H145.237V71.6781H142.97V77.7156C142.97 77.9801 142.981 78.2004 143.004 78.3987C143.026 78.586 143.081 78.7513 143.159 78.8835C143.237 79.0157 143.359 79.1149 143.526 79.181C143.692 79.2471 143.904 79.2801 144.192 79.2801C144.37 79.2801 144.548 79.2801 144.726 79.2691C144.903 79.2581 145.081 79.2361 145.259 79.192V81.12C144.981 81.1531 144.703 81.1751 144.448 81.2082C144.181 81.2412 143.915 81.2523 143.637 81.2523C142.97 81.2523 142.437 81.1861 142.037 81.065C141.637 80.9438 141.315 80.7565 141.093 80.5141C140.859 80.2717 140.715 79.9742 140.626 79.6106C140.548 79.2471 140.493 78.8284 140.482 78.3657V71.7001H138.582V69.8161H138.56ZM147.014 69.8161H149.392V71.3476H149.436C149.792 70.6865 150.281 70.2238 150.914 69.9373C151.547 69.6509 152.225 69.5076 152.969 69.5076C153.869 69.5076 154.647 69.6619 155.314 69.9814C155.98 70.2899 156.536 70.7196 156.98 71.2704C157.425 71.8213 157.747 72.4603 157.969 73.1875C158.191 73.9146 158.302 74.6969 158.302 75.5232C158.302 76.2834 158.202 77.0215 158.002 77.7267C157.802 78.4428 157.502 79.0708 157.102 79.6217C156.702 80.1725 156.191 80.6022 155.569 80.9327C154.947 81.2633 154.225 81.4285 153.38 81.4285C153.014 81.4285 152.647 81.3955 152.281 81.3294C151.914 81.2633 151.558 81.1531 151.225 81.0099C150.892 80.8666 150.57 80.6793 150.292 80.448C150.003 80.2166 149.77 79.9522 149.57 79.6547H149.525V85.2957H147.014V69.8161ZM155.791 75.4791C155.791 74.9723 155.725 74.4765 155.591 73.9917C155.458 73.507 155.258 73.0883 154.991 72.7137C154.725 72.3391 154.391 72.0417 154.003 71.8213C153.603 71.601 153.147 71.4798 152.636 71.4798C151.581 71.4798 150.781 71.8433 150.247 72.5705C149.714 73.2976 149.447 74.2672 149.447 75.4791C149.447 76.052 149.514 76.5808 149.659 77.0656C149.803 77.5504 150.003 77.969 150.292 78.3216C150.57 78.6742 150.903 78.9496 151.292 79.1479C151.681 79.3572 152.136 79.4564 152.647 79.4564C153.225 79.4564 153.703 79.3352 154.103 79.1038C154.503 78.8725 154.825 78.564 155.08 78.2004C155.336 77.8258 155.525 77.4072 155.636 76.9334C155.736 76.4597 155.791 75.9749 155.791 75.4791ZM160.224 65.5083H162.735V67.866H160.224V65.5083ZM160.224 69.8161H162.735V81.12H160.224V69.8161ZM164.979 65.5083H167.49V81.12H164.979V65.5083ZM175.19 81.4285C174.279 81.4285 173.468 81.2743 172.756 80.9768C172.045 80.6793 171.445 80.2607 170.946 79.7429C170.457 79.214 170.079 78.586 169.823 77.8589C169.568 77.1317 169.435 76.3274 169.435 75.4571C169.435 74.5977 169.568 73.8044 169.823 73.0773C170.079 72.3501 170.457 71.7221 170.946 71.1933C171.434 70.6645 172.045 70.2568 172.756 69.9594C173.468 69.6619 174.279 69.5076 175.19 69.5076C176.101 69.5076 176.912 69.6619 177.623 69.9594C178.334 70.2568 178.934 70.6755 179.434 71.1933C179.922 71.7221 180.3 72.3501 180.556 73.0773C180.811 73.8044 180.945 74.5977 180.945 75.4571C180.945 76.3274 180.811 77.1317 180.556 77.8589C180.3 78.586 179.922 79.214 179.434 79.7429C178.945 80.2717 178.334 80.6793 177.623 80.9768C176.912 81.2743 176.101 81.4285 175.19 81.4285ZM175.19 79.4564C175.745 79.4564 176.234 79.3352 176.645 79.1038C177.056 78.8725 177.389 78.564 177.656 78.1894C177.923 77.8148 178.112 77.3851 178.245 76.9114C178.367 76.4376 178.434 75.9529 178.434 75.4571C178.434 74.9723 178.367 74.4985 178.245 74.0138C178.123 73.529 177.923 73.1103 177.656 72.7358C177.389 72.3612 177.056 72.0637 176.645 71.8323C176.234 71.601 175.745 71.4798 175.19 71.4798C174.634 71.4798 174.145 71.601 173.734 71.8323C173.323 72.0637 172.99 72.3722 172.723 72.7358C172.456 73.1103 172.268 73.529 172.134 74.0138C172.012 74.4985 171.945 74.9723 171.945 75.4571C171.945 75.9529 172.012 76.4376 172.134 76.9114C172.257 77.3851 172.456 77.8148 172.723 78.1894C172.99 78.564 173.323 78.8725 173.734 79.1038C174.145 79.3462 174.634 79.4564 175.19 79.4564ZM181.678 69.8161H183.578V66.4228H186.089V69.8161H188.355V71.6781H186.089V77.7156C186.089 77.9801 186.1 78.2004 186.122 78.3987C186.144 78.586 186.2 78.7513 186.277 78.8835C186.355 79.0157 186.477 79.1149 186.644 79.181C186.811 79.2471 187.022 79.2801 187.311 79.2801C187.488 79.2801 187.666 79.2801 187.844 79.2691C188.022 79.2581 188.2 79.2361 188.377 79.192V81.12C188.1 81.1531 187.822 81.1751 187.566 81.2082C187.3 81.2412 187.033 81.2523 186.755 81.2523C186.089 81.2523 185.555 81.1861 185.155 81.065C184.755 80.9438 184.433 80.7565 184.211 80.5141C183.978 80.2717 183.833 79.9742 183.744 79.6106C183.667 79.2471 183.611 78.8284 183.6 78.3657V71.7001H181.7V69.8161L181.678 69.8161Z" fill="#191919"/>
<path d="M92.6417 65.5084H81.1316L77.5764 54.6451L74.0101 65.5084L62.5 65.4973L71.8214 72.218L68.255 83.0702L77.5764 76.3606L86.8867 83.0702L83.3314 72.218L92.6417 65.5084Z" fill="#00B67A"/>
<path d="M84.1311 74.6748L83.3312 72.2179L77.5762 76.3605L84.1311 74.6748Z" fill="#005128"/>
</g>
<defs>
<clipPath id="clip0_425_136">
<rect fill="white" height="45.8743" transform="translate(0.5 0.616089)" width="251"/>
</clipPath>
<clipPath id="clip1_425_136">
<rect fill="white" height="30.9153" transform="translate(62.5 54.4685)" width="126"/>
</clipPath>
</defs>
</svg>